WixMadeforText-Medium.ufo
<glyph name="exclam" format="2">
	<unicode hex="0021"/>
	<advance width="254"/>
	<outline>
		<contour>
			<point x="157" y="213" type="line"/>
			<point x="163" y="278"/>
			<point x="185" y="644"/>
			<point x="185" y="665" type="curve" smooth="yes"/>
			<point x="185" y="706"/>
			<point x="160" y="731"/>
			<point x="127" y="731" type="curve"/>
			<point x="95" y="731"/>
			<point x="69" y="706"/>
			<point x="69" y="665" type="curve" smooth="yes"/>
			<point x="69" y="644"/>
			<point x="92" y="278"/>
			<point x="97" y="213" type="curve"/>
		</contour>
		<contour>
			<point x="127" y="-12" type="curve" smooth="yes"/>
			<point x="167" y="-12"/>
			<point x="196" y="18"/>
			<point x="196" y="57" type="curve" smooth="yes"/>
			<point x="196" y="97"/>
			<point x="167" y="127"/>
			<point x="127" y="127" type="curve" smooth="yes"/>
			<point x="88" y="127"/>
			<point x="58" y="97"/>
			<point x="58" y="57" type="curve" smooth="yes"/>
			<point x="58" y="18"/>
			<point x="88" y="-12"/>
		</contour>
	</outline>
</glyph>
<glyph name="numbersign" format="2">
	<unicode hex="0023"/>
	<advance width="646"/>
	<outline>
		<contour>
			<point x="417" y="0" type="line"/>
			<point x="560" y="715" type="line"/>
			<point x="472" y="715" type="line"/>
			<point x="329" y="0" type="line"/>
		</contour>
		<contour>
			<point x="536" y="185" type="line"/>
			<point x="552" y="263" type="line"/>
			<point x="55" y="263" type="line"/>
			<point x="39" y="185" type="line"/>
		</contour>
		<contour>
			<point x="173" y="0" type="line"/>
			<point x="316" y="715" type="line"/>
			<point x="228" y="715" type="line"/>
			<point x="85" y="0" type="line"/>
		</contour>
		<contour>
			<point x="590" y="452" type="line"/>
			<point x="606" y="530" type="line"/>
			<point x="109" y="530" type="line"/>
			<point x="93" y="452" type="line"/>
		</contour>
	</outline>
</glyph>
<glyph name="parenleft" format="2">
	<unicode hex="0028"/>
	<advance width="337"/>
	<outline>
		<contour>
			<point x="301" y="-129" type="line"/>
			<point x="208" y="10"/>
			<point x="165" y="154"/>
			<point x="165" y="304" type="curve" smooth="yes"/>
			<point x="165" y="457"/>
			<point x="208" y="591"/>
			<point x="300" y="731" type="curve"/>
			<point x="202" y="731" type="line"/>
			<point x="112" y="608"/>
			<point x="66" y="463"/>
			<point x="66" y="304" type="curve" smooth="yes"/>
			<point x="66" y="143"/>
			<point x="113" y="-7"/>
			<point x="202" y="-129" type="curve"/>
		</contour>
	</outline>
</glyph>
<glyph name="asterisk" format="2">
	<unicode hex="002A"/>
	<advance width="407"/>
	<outline>
		<contour>
			<point x="292" y="356" type="curve" smooth="yes"/>
			<point x="314" y="356"/>
			<point x="334" y="375"/>
			<point x="334" y="397" type="curve" smooth="yes"/>
			<point x="334" y="408"/>
			<point x="330" y="419"/>
			<point x="322" y="430" type="curve" smooth="yes"/>
			<point x="311" y="446"/>
			<point x="273" y="484"/>
			<point x="234" y="518" type="curve"/>
			<point x="285" y="522"/>
			<point x="331" y="528"/>
			<point x="350" y="534" type="curve" smooth="yes"/>
			<point x="371" y="541"/>
			<point x="382" y="557"/>
			<point x="382" y="576" type="curve" smooth="yes"/>
			<point x="382" y="602"/>
			<point x="365" y="621"/>
			<point x="342" y="621" type="curve" smooth="yes"/>
			<point x="334" y="621"/>
			<point x="327" y="620"/>
			<point x="318" y="616" type="curve" smooth="yes"/>
			<point x="300" y="609"/>
			<point x="264" y="586"/>
			<point x="222" y="555" type="curve"/>
			<point x="236" y="608"/>
			<point x="246" y="663"/>
			<point x="246" y="684" type="curve" smooth="yes"/>
			<point x="246" y="713"/>
			<point x="229" y="731"/>
			<point x="204" y="731" type="curve" smooth="yes"/>
			<point x="178" y="731"/>
			<point x="162" y="713"/>
			<point x="162" y="684" type="curve" smooth="yes"/>
			<point x="162" y="663"/>
			<point x="172" y="608"/>
			<point x="185" y="555" type="curve"/>
			<point x="143" y="586"/>
			<point x="108" y="609"/>
			<point x="90" y="616" type="curve" smooth="yes"/>
			<point x="80" y="620"/>
			<point x="73" y="621"/>
			<point x="65" y="621" type="curve" smooth="yes"/>
			<point x="42" y="621"/>
			<point x="25" y="602"/>
			<point x="25" y="576" type="curve" smooth="yes"/>
			<point x="25" y="557"/>
			<point x="37" y="541"/>
			<point x="58" y="534" type="curve" smooth="yes"/>
			<point x="77" y="528"/>
			<point x="122" y="522"/>
			<point x="174" y="518" type="curve"/>
			<point x="134" y="484"/>
			<point x="96" y="446"/>
			<point x="85" y="430" type="curve" smooth="yes"/>
			<point x="78" y="419"/>
			<point x="73" y="408"/>
			<point x="73" y="397" type="curve" smooth="yes"/>
			<point x="73" y="375"/>
			<point x="94" y="356"/>
			<point x="116" y="356" type="curve" smooth="yes"/>
			<point x="130" y="356"/>
			<point x="142" y="362"/>
			<point x="152" y="377" type="curve" smooth="yes"/>
			<point x="163" y="393"/>
			<point x="186" y="446"/>
			<point x="204" y="496" type="curve"/>
			<point x="222" y="446"/>
			<point x="245" y="393"/>
			<point x="255" y="377" type="curve" smooth="yes"/>
			<point x="266" y="362"/>
			<point x="278" y="356"/>
		</contour>
	</outline>
</glyph>
<glyph name="plus" format="2">
	<unicode hex="002B"/>
	<advance width="632"/>
	<outline>
		<contour>
			<point x="275" y="155" type="line"/>
			<point x="357" y="155" type="line"/>
			<point x="357" y="316" type="line"/>
			<point x="512" y="316" type="line"/>
			<point x="512" y="398" type="line"/>
			<point x="357" y="398" type="line"/>
			<point x="357" y="559" type="line"/>
			<point x="275" y="559" type="line"/>
			<point x="275" y="398" type="line"/>
			<point x="120" y="398" type="line"/>
			<point x="120" y="316" type="line"/>
			<point x="275" y="316" type="line"/>
		</contour>
	</outline>
</glyph>
<glyph name="hyphen" format="2">
	<unicode hex="002D"/>
	<advance width="323"/>
	<outline>
		<contour>
			<point x="290" y="229" type="line"/>
			<point x="290" y="317" type="line"/>
			<point x="33" y="317" type="line"/>
			<point x="33" y="229" type="line"/>
		</contour>
	</outline>
</glyph>
<glyph name="period" format="2">
	<unicode hex="002E"/>
	<advance width="254"/>
	<outline>
		<contour>
			<point x="127" y="-12" type="curve" smooth="yes"/>
			<point x="167" y="-12"/>
			<point x="196" y="18"/>
			<point x="196" y="57" type="curve" smooth="yes"/>
			<point x="196" y="97"/>
			<point x="167" y="127"/>
			<point x="127" y="127" type="curve" smooth="yes"/>
			<point x="88" y="127"/>
			<point x="58" y="97"/>
			<point x="58" y="57" type="curve" smooth="yes"/>
			<point x="58" y="18"/>
			<point x="88" y="-12"/>
		</contour>
	</outline>
</glyph>
<glyph name="slash" format="2">
	<unicode hex="002F"/>
	<advance width="477"/>
	<outline>
		<contour>
			<point x="151" y="0" type="line"/>
			<point x="425" y="731" type="line"/>
			<point x="326" y="731" type="line"/>
			<point x="52" y="0" type="line"/>
		</contour>
	</outline>
</glyph>
<glyph name="zero" format="2">
	<unicode hex="0030"/>
	<advance width="637"/>
	<outline>
		<contour>
			<point x="319" y="69" type="curve" smooth="yes"/>
			<point x="222" y="69"/>
			<point x="166" y="172"/>
			<point x="166" y="358" type="curve" smooth="yes"/>
			<point x="166" y="544"/>
			<point x="222" y="646"/>
			<point x="319" y="646" type="curve" smooth="yes"/>
			<point x="416" y="646"/>
			<point x="472" y="544"/>
			<point x="472" y="358" type="curve" smooth="yes"/>
			<point x="472" y="172"/>
			<point x="416" y="69"/>
		</contour>
		<contour>
			<point x="319" y="-16" type="curve" smooth="yes"/>
			<point x="480" y="-16"/>
			<point x="576" y="123"/>
			<point x="576" y="358" type="curve" smooth="yes"/>
			<point x="576" y="593"/>
			<point x="480" y="731"/>
			<point x="319" y="731" type="curve" smooth="yes"/>
			<point x="158" y="731"/>
			<point x="62" y="593"/>
			<point x="62" y="358" type="curve" smooth="yes"/>
			<point x="62" y="123"/>
			<point x="158" y="-16"/>
		</contour>
	</outline>
</glyph>
<glyph name="one" format="2">
	<unicode hex="0031"/>
	<advance width="490"/>
	<outline>
		<contour>
			<point x="264" y="715" type="line"/>
			<point x="84" y="578" type="line"/>
			<point x="84" y="471" type="line"/>
			<point x="254" y="605" type="line"/>
			<point x="254" y="0" type="line"/>
			<point x="357" y="0" type="line"/>
			<point x="357" y="715" type="line"/>
		</contour>
	</outline>
</glyph>
<glyph name="three" format="2">
	<unicode hex="0033"/>
	<advance width="588"/>
	<outline>
		<contour>
			<point x="38" y="115" type="line"/>
			<point x="97" y="28"/>
			<point x="183" y="-16"/>
			<point x="288" y="-16" type="curve" smooth="yes"/>
			<point x="433" y="-16"/>
			<point x="536" y="75"/>
			<point x="536" y="201" type="curve" smooth="yes"/>
			<point x="536" y="320"/>
			<point x="442" y="396"/>
			<point x="296" y="396" type="curve"/>
			<point x="290" y="359" type="line"/>
			<point x="424" y="359"/>
			<point x="517" y="430"/>
			<point x="517" y="532" type="curve" smooth="yes"/>
			<point x="517" y="647"/>
			<point x="422" y="731"/>
			<point x="292" y="731" type="curve" smooth="yes"/>
			<point x="197" y="731"/>
			<point x="114" y="688"/>
			<point x="53" y="606" type="curve"/>
			<point x="120" y="539" type="line"/>
			<point x="168" y="611"/>
			<point x="221" y="644"/>
			<point x="287" y="644" type="curve" smooth="yes"/>
			<point x="361" y="644"/>
			<point x="411" y="596"/>
			<point x="411" y="528" type="curve" smooth="yes"/>
			<point x="411" y="462"/>
			<point x="358" y="415"/>
			<point x="280" y="415" type="curve" smooth="yes"/>
			<point x="217" y="415" type="line"/>
			<point x="217" y="329" type="line"/>
			<point x="280" y="329" type="line" smooth="yes"/>
			<point x="372" y="329"/>
			<point x="431" y="279"/>
			<point x="431" y="203" type="curve" smooth="yes"/>
			<point x="431" y="115"/>
			<point x="363" y="70"/>
			<point x="283" y="70" type="curve" smooth="yes"/>
			<point x="212" y="70"/>
			<point x="157" y="102"/>
			<point x="105" y="180" type="curve"/>
		</contour>
	</outline>
</glyph>
<glyph name="four" format="2">
	<unicode hex="0034"/>
	<advance width="647"/>
	<outline>
		<contour>
			<point x="507" y="0" type="line"/>
			<point x="507" y="163" type="line"/>
			<point x="605" y="163" type="line"/>
			<point x="605" y="248" type="line"/>
			<point x="507" y="248" type="line"/>
			<point x="507" y="715" type="line"/>
			<point x="407" y="715" type="line"/>
			<point x="46" y="248" type="line"/>
			<point x="46" y="163" type="line"/>
			<point x="407" y="163" type="line"/>
			<point x="407" y="0" type="line"/>
		</contour>
		<contour>
			<point x="407" y="585" type="line"/>
			<point x="407" y="248" type="line"/>
			<point x="147" y="248" type="line"/>
		</contour>
	</outline>
</glyph>
<glyph name="five" format="2">
	<unicode hex="0035"/>
	<advance width="583"/>
	<outline>
		<contour>
			<point x="39" y="121" type="line"/>
			<point x="90" y="31"/>
			<point x="178" y="-16"/>
			<point x="281" y="-16" type="curve" smooth="yes"/>
			<point x="432" y="-16"/>
			<point x="536" y="89"/>
			<point x="536" y="236" type="curve" smooth="yes"/>
			<point x="536" y="372"/>
			<point x="439" y="478"/>
			<point x="309" y="478" type="curve" smooth="yes"/>
			<point x="207" y="478"/>
			<point x="130" y="412"/>
			<point x="117" y="311" type="curve"/>
			<point x="150" y="308" type="line"/>
			<point x="177" y="366"/>
			<point x="235" y="393"/>
			<point x="289" y="393" type="curve" smooth="yes"/>
			<point x="375" y="393"/>
			<point x="434" y="326"/>
			<point x="434" y="237" type="curve" smooth="yes"/>
			<point x="434" y="138"/>
			<point x="374" y="70"/>
			<point x="282" y="70" type="curve" smooth="yes"/>
			<point x="208" y="70"/>
			<point x="148" y="111"/>
			<point x="107" y="186" type="curve"/>
		</contour>
		<contour>
			<point x="501" y="630" type="line"/>
			<point x="501" y="715" type="line"/>
			<point x="106" y="715" type="line"/>
			<point x="61" y="308" type="line"/>
			<point x="150" y="308" type="line"/>
			<point x="191" y="671" type="line"/>
			<point x="148" y="630" type="line"/>
		</contour>
	</outline>
</glyph>
<glyph name="six" format="2">
	<unicode hex="0036"/>
	<advance width="615"/>
	<outline>
		<contour>
			<point x="306" y="-16" type="curve" smooth="yes"/>
			<point x="456" y="-16"/>
			<point x="561" y="91"/>
			<point x="561" y="234" type="curve" smooth="yes"/>
			<point x="561" y="377"/>
			<point x="458" y="474"/>
			<point x="329" y="474" type="curve" smooth="yes"/>
			<point x="248" y="474"/>
			<point x="189" y="433"/>
			<point x="164" y="367" type="curve"/>
			<point x="172" y="359" type="line"/>
			<point x="207" y="465"/>
			<point x="287" y="566"/>
			<point x="470" y="715" type="curve"/>
			<point x="334" y="715" type="line"/>
			<point x="137" y="554"/>
			<point x="55" y="405"/>
			<point x="55" y="253" type="curve" smooth="yes"/>
			<point x="55" y="92"/>
			<point x="157" y="-16"/>
		</contour>
		<contour>
			<point x="307" y="69" type="curve" smooth="yes"/>
			<point x="220" y="69"/>
			<point x="156" y="137"/>
			<point x="156" y="231" type="curve" smooth="yes"/>
			<point x="156" y="328"/>
			<point x="222" y="391"/>
			<point x="307" y="391" type="curve" smooth="yes"/>
			<point x="395" y="391"/>
			<point x="459" y="325"/>
			<point x="459" y="231" type="curve" smooth="yes"/>
			<point x="459" y="137"/>
			<point x="395" y="69"/>
		</contour>
	</outline>
</glyph>
<glyph name="seven" format="2">
	<unicode hex="0037"/>
	<advance width="586"/>
	<outline>
		<contour>
			<point x="527" y="715" type="line"/>
			<point x="59" y="715" type="line"/>
			<point x="59" y="630" type="line"/>
			<point x="422" y="630" type="line"/>
			<point x="91" y="0" type="line"/>
			<point x="199" y="0" type="line"/>
			<point x="527" y="630" type="line"/>
		</contour>
	</outline>
</glyph>
<glyph name="eight" format="2">
	<unicode hex="0038"/>
	<advance width="616"/>
	<outline>
		<contour>
			<point x="308" y="-16" type="curve" smooth="yes"/>
			<point x="457" y="-16"/>
			<point x="563" y="72"/>
			<point x="563" y="196" type="curve" smooth="yes"/>
			<point x="563" y="314"/>
			<point x="457" y="401"/>
			<point x="308" y="401" type="curve" smooth="yes"/>
			<point x="160" y="401"/>
			<point x="53" y="314"/>
			<point x="53" y="196" type="curve" smooth="yes"/>
			<point x="53" y="72"/>
			<point x="160" y="-16"/>
		</contour>
		<contour>
			<point x="308" y="69" type="curve" smooth="yes"/>
			<point x="223" y="69"/>
			<point x="157" y="125"/>
			<point x="157" y="199" type="curve" smooth="yes"/>
			<point x="157" y="274"/>
			<point x="222" y="329"/>
			<point x="308" y="329" type="curve" smooth="yes"/>
			<point x="394" y="329"/>
			<point x="459" y="274"/>
			<point x="459" y="199" type="curve" smooth="yes"/>
			<point x="459" y="125"/>
			<point x="394" y="69"/>
		</contour>
		<contour>
			<point x="308" y="355" type="curve" smooth="yes"/>
			<point x="441" y="355"/>
			<point x="537" y="431"/>
			<point x="537" y="534" type="curve" smooth="yes"/>
			<point x="537" y="649"/>
			<point x="441" y="731"/>
			<point x="308" y="731" type="curve" smooth="yes"/>
			<point x="175" y="731"/>
			<point x="79" y="649"/>
			<point x="79" y="534" type="curve" smooth="yes"/>
			<point x="79" y="431"/>
			<point x="175" y="355"/>
		</contour>
		<contour>
			<point x="308" y="413" type="curve" smooth="yes"/>
			<point x="237" y="413"/>
			<point x="181" y="463"/>
			<point x="181" y="528" type="curve" smooth="yes"/>
			<point x="181" y="596"/>
			<point x="236" y="647"/>
			<point x="308" y="647" type="curve" smooth="yes"/>
			<point x="380" y="647"/>
			<point x="436" y="596"/>
			<point x="436" y="528" type="curve" smooth="yes"/>
			<point x="436" y="463"/>
			<point x="380" y="413"/>
		</contour>
	</outline>
</glyph>
<glyph name="nine" format="2">
	<unicode hex="0039"/>
	<advance width="615"/>
	<outline>
		<contour>
			<point x="313" y="731" type="curve" smooth="yes"/>
			<point x="162" y="731"/>
			<point x="58" y="624"/>
			<point x="58" y="481" type="curve" smooth="yes"/>
			<point x="58" y="338"/>
			<point x="161" y="241"/>
			<point x="289" y="241" type="curve" smooth="yes"/>
			<point x="371" y="241"/>
			<point x="429" y="282"/>
			<point x="454" y="348" type="curve"/>
			<point x="446" y="356" type="line"/>
			<point x="412" y="250"/>
			<point x="331" y="149"/>
			<point x="148" y="0" type="curve"/>
			<point x="285" y="0" type="line"/>
			<point x="481" y="161"/>
			<point x="563" y="310"/>
			<point x="563" y="462" type="curve" smooth="yes"/>
			<point x="563" y="623"/>
			<point x="462" y="731"/>
		</contour>
		<contour>
			<point x="311" y="646" type="curve" smooth="yes"/>
			<point x="398" y="646"/>
			<point x="463" y="578"/>
			<point x="463" y="484" type="curve" smooth="yes"/>
			<point x="463" y="387"/>
			<point x="397" y="324"/>
			<point x="311" y="324" type="curve" smooth="yes"/>
			<point x="224" y="324"/>
			<point x="160" y="390"/>
			<point x="160" y="484" type="curve" smooth="yes"/>
			<point x="160" y="578"/>
			<point x="224" y="646"/>
		</contour>
	</outline>
</glyph>
<glyph name="less" format="2">
	<unicode hex="003C"/>
	<advance width="632"/>
	<outline>
		<contour>
			<point x="117" y="391" type="line"/>
			<point x="117" y="304" type="line"/>
			<point x="514" y="127" type="line"/>
			<point x="514" y="222" type="line"/>
		</contour>
		<contour>
			<point x="117" y="415" type="line"/>
			<point x="117" y="331" type="line"/>
			<point x="514" y="500" type="line"/>
			<point x="514" y="591" type="line"/>
		</contour>
	</outline>
</glyph>
<glyph name="greater" format="2">
	<unicode hex="003E"/>
	<advance width="632"/>
	<outline>
		<contour>
			<point x="515" y="326" type="line"/>
			<point x="515" y="413" type="line"/>
			<point x="118" y="590" type="line"/>
			<point x="118" y="495" type="line"/>
		</contour>
		<contour>
			<point x="515" y="302" type="line"/>
			<point x="515" y="386" type="line"/>
			<point x="118" y="217" type="line"/>
			<point x="118" y="126" type="line"/>
		</contour>
	</outline>
</glyph>
<glyph name="question" format="2">
	<unicode hex="003F"/>
	<advance width="579"/>
	<outline>
		<contour>
			<point x="303" y="213" type="line"/>
			<point x="304" y="275"/>
			<point x="320" y="308"/>
			<point x="386" y="354" type="curve" smooth="yes"/>
			<point x="476" y="416"/>
			<point x="508" y="462"/>
			<point x="508" y="545" type="curve" smooth="yes"/>
			<point x="508" y="656"/>
			<point x="421" y="731"/>
			<point x="290" y="731" type="curve" smooth="yes"/>
			<point x="197" y="731"/>
			<point x="111" y="684"/>
			<point x="49" y="600" type="curve"/>
			<point x="117" y="535" type="line"/>
			<point x="163" y="608"/>
			<point x="221" y="645"/>
			<point x="288" y="645" type="curve" smooth="yes"/>
			<point x="362" y="645"/>
			<point x="409" y="605"/>
			<point x="409" y="542" type="curve" smooth="yes"/>
			<point x="409" y="489"/>
			<point x="389" y="457"/>
			<point x="336" y="420" type="curve" smooth="yes"/>
			<point x="243" y="358"/>
			<point x="221" y="312"/>
			<point x="232" y="213" type="curve"/>
		</contour>
		<contour>
			<point x="266" y="-12" type="curve" smooth="yes"/>
			<point x="305" y="-12"/>
			<point x="335" y="18"/>
			<point x="335" y="57" type="curve" smooth="yes"/>
			<point x="335" y="97"/>
			<point x="305" y="127"/>
			<point x="266" y="127" type="curve" smooth="yes"/>
			<point x="227" y="127"/>
			<point x="197" y="97"/>
			<point x="197" y="57" type="curve" smooth="yes"/>
			<point x="197" y="18"/>
			<point x="227" y="-12"/>
		</contour>
	</outline>
</glyph>
<glyph name="at" format="2">
	<unicode hex="0040"/>
	<advance width="1026"/>
	<outline>
		<contour>
			<point x="486" y="44" type="curve" smooth="yes"/>
			<point x="596" y="44"/>
			<point x="671" y="130"/>
			<point x="655" y="238" type="curve"/>
			<point x="632" y="259" type="line"/>
			<point x="630" y="178"/>
			<point x="573" y="118"/>
			<point x="498" y="118" type="curve" smooth="yes"/>
			<point x="418" y="118"/>
			<point x="376" y="180"/>
			<point x="376" y="261" type="curve" smooth="yes"/>
			<point x="376" y="342"/>
			<point x="418" y="404"/>
			<point x="499" y="404" type="curve" smooth="yes"/>
			<point x="571" y="404"/>
			<point x="622" y="342"/>
			<point x="622" y="254" type="curve"/>
			<point x="638" y="247" type="line"/>
			<point x="642" y="260"/>
			<point x="644" y="279"/>
			<point x="644" y="296" type="curve" smooth="yes"/>
			<point x="644" y="405"/>
			<point x="578" y="478"/>
			<point x="479" y="478" type="curve" smooth="yes"/>
			<point x="358" y="478"/>
			<point x="288" y="373"/>
			<point x="288" y="261" type="curve" smooth="yes"/>
			<point x="288" y="144"/>
			<point x="357" y="44"/>
		</contour>
		<contour>
			<point x="726" y="-37" type="line"/>
			<point x="679" y="-84"/>
			<point x="601" y="-111"/>
			<point x="519" y="-111" type="curve" smooth="yes"/>
			<point x="323" y="-111"/>
			<point x="169" y="53"/>
			<point x="169" y="261" type="curve" smooth="yes"/>
			<point x="169" y="484"/>
			<point x="317" y="647"/>
			<point x="526" y="647" type="curve" smooth="yes"/>
			<point x="724" y="647"/>
			<point x="859" y="497"/>
			<point x="859" y="283" type="curve" smooth="yes"/>
			<point x="859" y="183"/>
			<point x="828" y="124"/>
			<point x="778" y="124" type="curve" smooth="yes"/>
			<point x="732" y="124"/>
			<point x="706" y="157"/>
			<point x="706" y="213" type="curve" smooth="yes"/>
			<point x="706" y="464" type="line"/>
			<point x="623" y="464" type="line"/>
			<point x="623" y="347" type="line"/>
			<point x="622" y="341" type="line"/>
			<point x="622" y="194" type="line" smooth="yes"/>
			<point x="622" y="105"/>
			<point x="683" y="44"/>
			<point x="771" y="44" type="curve" smooth="yes"/>
			<point x="880" y="44"/>
			<point x="947" y="137"/>
			<point x="947" y="287" type="curve" smooth="yes"/>
			<point x="947" y="546"/>
			<point x="772" y="731"/>
			<point x="522" y="731" type="curve" smooth="yes"/>
			<point x="268" y="731"/>
			<point x="79" y="529"/>
			<point x="79" y="262" type="curve" smooth="yes"/>
			<point x="79" y="3"/>
			<point x="270" y="-194"/>
			<point x="521" y="-194" type="curve" smooth="yes"/>
			<point x="623" y="-194"/>
			<point x="724" y="-159"/>
			<point x="782" y="-105" type="curve"/>
		</contour>
	</outline>
</glyph>
<glyph name="A" format="2">
	<unicode hex="0041"/>
	<advance width="720"/>
	<outline>
		<contour>
			<point x="550" y="180" type="line"/>
			<point x="550" y="269" type="line"/>
			<point x="167" y="269" type="line"/>
			<point x="167" y="180" type="line"/>
		</contour>
		<contour>
			<point x="686" y="0" type="line"/>
			<point x="416" y="715" type="line"/>
			<point x="304" y="715" type="line"/>
			<point x="35" y="0" type="line"/>
			<point x="140" y="0" type="line"/>
			<point x="376" y="646" type="line"/>
			<point x="340" y="646" type="line"/>
			<point x="576" y="0" type="line"/>
		</contour>
	</outline>
	<anchor name="ogonek.UC" x="563" y="-30"/>
	<anchor name="top.UC" x="360" y="750"/>
	<anchor name="bottom.UC" x="360" y="-50"/>
</glyph>
<glyph name="B" format="2">
	<unicode hex="0042"/>
	<advance width="679"/>
	<outline>
		<contour>
			<point x="99" y="0" type="line"/>
			<point x="387" y="0" type="line" smooth="yes"/>
			<point x="526" y="0"/>
			<point x="619" y="81"/>
			<point x="619" y="203" type="curve" smooth="yes"/>
			<point x="619" y="322"/>
			<point x="528" y="398"/>
			<point x="387" y="398" type="curve" smooth="yes"/>
			<point x="211" y="398" type="line"/>
			<point x="211" y="349" type="line"/>
			<point x="373" y="349" type="line" smooth="yes"/>
			<point x="503" y="349"/>
			<point x="590" y="421"/>
			<point x="590" y="527" type="curve" smooth="yes"/>
			<point x="590" y="640"/>
			<point x="503" y="715"/>
			<point x="373" y="715" type="curve" smooth="yes"/>
			<point x="99" y="715" type="line"/>
		</contour>
		<contour>
			<point x="202" y="88" type="line"/>
			<point x="202" y="627" type="line"/>
			<point x="369" y="627" type="line" smooth="yes"/>
			<point x="442" y="627"/>
			<point x="486" y="585"/>
			<point x="486" y="520" type="curve" smooth="yes"/>
			<point x="486" y="452"/>
			<point x="442" y="411"/>
			<point x="369" y="411" type="curve" smooth="yes"/>
			<point x="192" y="411" type="line"/>
			<point x="192" y="324" type="line"/>
			<point x="388" y="324" type="line" smooth="yes"/>
			<point x="466" y="324"/>
			<point x="515" y="279"/>
			<point x="515" y="207" type="curve" smooth="yes"/>
			<point x="515" y="133"/>
			<point x="466" y="88"/>
			<point x="388" y="88" type="curve" smooth="yes"/>
		</contour>
	</outline>
</glyph>
<glyph name="C" format="2">
	<unicode hex="0043"/>
	<advance width="721"/>
	<outline>
		<contour>
			<point x="607" y="189" type="line"/>
			<point x="561" y="117"/>
			<point x="491" y="76"/>
			<point x="409" y="76" type="curve" smooth="yes"/>
			<point x="270" y="76"/>
			<point x="168" y="194"/>
			<point x="168" y="357" type="curve" smooth="yes"/>
			<point x="168" y="521"/>
			<point x="269" y="639"/>
			<point x="409" y="639" type="curve" smooth="yes"/>
			<point x="492" y="639"/>
			<point x="561" y="600"/>
			<point x="607" y="526" type="curve"/>
			<point x="677" y="596" type="line"/>
			<point x="615" y="683"/>
			<point x="520" y="731"/>
			<point x="410" y="731" type="curve" smooth="yes"/>
			<point x="209" y="731"/>
			<point x="60" y="572"/>
			<point x="60" y="357" type="curve" smooth="yes"/>
			<point x="60" y="143"/>
			<point x="209" y="-16"/>
			<point x="408" y="-16" type="curve" smooth="yes"/>
			<point x="514" y="-16"/>
			<point x="617" y="35"/>
			<point x="677" y="119" type="curve"/>
		</contour>
	</outline>
	<anchor name="top.UC" x="409" y="750"/>
	<anchor name="bottom.UC" x="411" y="-50"/>
</glyph>
<glyph name="D" format="2">
	<unicode hex="0044"/>
	<advance width="751"/>
	<outline>
		<contour>
			<point x="99" y="0" type="line"/>
			<point x="335" y="0" type="line" smooth="yes"/>
			<point x="547" y="0"/>
			<point x="691" y="149"/>
			<point x="691" y="358" type="curve" smooth="yes"/>
			<point x="691" y="566"/>
			<point x="547" y="715"/>
			<point x="335" y="715" type="curve" smooth="yes"/>
			<point x="99" y="715" type="line"/>
		</contour>
		<contour>
			<point x="202" y="90" type="line"/>
			<point x="202" y="625" type="line"/>
			<point x="335" y="625" type="line" smooth="yes"/>
			<point x="488" y="625"/>
			<point x="583" y="518"/>
			<point x="583" y="358" type="curve" smooth="yes"/>
			<point x="583" y="197"/>
			<point x="488" y="90"/>
			<point x="335" y="90" type="curve" smooth="yes"/>
		</contour>
	</outline>
	<anchor name="top.UC" x="336" y="750"/>
</glyph>
<glyph name="G" format="2">
	<unicode hex="0047"/>
	<advance width="783"/>
	<outline>
		<contour>
			<point x="712" y="0" type="line"/>
			<point x="712" y="381" type="line"/>
			<point x="407" y="381" type="line"/>
			<point x="407" y="294" type="line"/>
			<point x="615" y="294" type="line"/>
			<point x="615" y="164" type="line"/>
			<point x="624" y="202" type="line"/>
			<point x="588" y="123"/>
			<point x="510" y="76"/>
			<point x="418" y="76" type="curve" smooth="yes"/>
			<point x="269" y="76"/>
			<point x="168" y="191"/>
			<point x="168" y="358" type="curve" smooth="yes"/>
			<point x="168" y="522"/>
			<point x="269" y="639"/>
			<point x="409" y="639" type="curve" smooth="yes"/>
			<point x="500" y="639"/>
			<point x="567" y="603"/>
			<point x="619" y="526" type="curve"/>
			<point x="689" y="596" type="line"/>
			<point x="625" y="683"/>
			<point x="525" y="731"/>
			<point x="410" y="731" type="curve" smooth="yes"/>
			<point x="210" y="731"/>
			<point x="60" y="572"/>
			<point x="60" y="358" type="curve" smooth="yes"/>
			<point x="60" y="143"/>
			<point x="206" y="-16"/>
			<point x="402" y="-16" type="curve" smooth="yes"/>
			<point x="503" y="-16"/>
			<point x="583" y="24"/>
			<point x="627" y="98" type="curve"/>
			<point x="616" y="103" type="line"/>
			<point x="616" y="0" type="line"/>
		</contour>
	</outline>
	<anchor name="bottom.UC" x="407" y="-50"/>
	<anchor name="top.UC" x="410" y="750"/>
</glyph>
<glyph name="H" format="2">
	<unicode hex="0048"/>
	<advance width="755"/>
	<outline>
		<contour>
			<point x="553" y="0" type="line"/>
			<point x="656" y="0" type="line"/>
			<point x="656" y="715" type="line"/>
			<point x="553" y="715" type="line"/>
		</contour>
		<contour>
			<point x="202" y="0" type="line"/>
			<point x="202" y="715" type="line"/>
			<point x="99" y="715" type="line"/>
			<point x="99" y="0" type="line"/>
		</contour>
		<contour>
			<point x="192" y="325" type="line"/>
			<point x="562" y="325" type="line"/>
			<point x="562" y="415" type="line"/>
			<point x="192" y="415" type="line"/>
		</contour>
	</outline>
	<anchor name="top.UC" x="378" y="750"/>
	<anchor name="bottom.UC" x="378" y="-50"/>
</glyph>
<glyph name="J" format="2">
	<unicode hex="004A"/>
	<advance width="647"/>
	<outline>
		<contour>
			<point x="561" y="715" type="line"/>
			<point x="458" y="715" type="line"/>
			<point x="458" y="275" type="line" smooth="yes"/>
			<point x="458" y="146"/>
			<point x="408" y="77"/>
			<point x="300" y="77" type="curve" smooth="yes"/>
			<point x="206" y="77"/>
			<point x="152" y="131"/>
			<point x="141" y="243" type="curve"/>
			<point x="41" y="231" type="line"/>
			<point x="54" y="76"/>
			<point x="149" y="-16"/>
			<point x="300" y="-16" type="curve" smooth="yes"/>
			<point x="468" y="-16"/>
			<point x="561" y="89"/>
			<point x="561" y="275" type="curve" smooth="yes"/>
		</contour>
	</outline>
	<anchor name="top.UC" x="510" y="750"/>
</glyph>
<glyph name="M" format="2">
	<unicode hex="004D"/>
	<advance width="908"/>
	<outline>
		<contour>
			<point x="491" y="68" type="line"/>
			<point x="758" y="661" type="line"/>
			<point x="710" y="662" type="line"/>
			<point x="710" y="0" type="line"/>
			<point x="810" y="0" type="line"/>
			<point x="810" y="715" type="line"/>
			<point x="687" y="715" type="line"/>
			<point x="430" y="135" type="line"/>
			<point x="478" y="135" type="line"/>
			<point x="223" y="715" type="line"/>
			<point x="99" y="715" type="line"/>
			<point x="99" y="0" type="line"/>
			<point x="199" y="0" type="line"/>
			<point x="199" y="662" type="line"/>
			<point x="151" y="661" type="line"/>
			<point x="416" y="68" type="line"/>
		</contour>
	</outline>
</glyph>
<glyph name="O" format="2">
	<unicode hex="004F"/>
	<advance width="828"/>
	<outline>
		<contour>
			<point x="414" y="-16" type="curve" smooth="yes"/>
			<point x="618" y="-16"/>
			<point x="768" y="143"/>
			<point x="768" y="358" type="curve" smooth="yes"/>
			<point x="768" y="572"/>
			<point x="618" y="731"/>
			<point x="414" y="731" type="curve" smooth="yes"/>
			<point x="210" y="731"/>
			<point x="60" y="572"/>
			<point x="60" y="358" type="curve" smooth="yes"/>
			<point x="60" y="143"/>
			<point x="210" y="-16"/>
		</contour>
		<contour>
			<point x="414" y="77" type="curve" smooth="yes"/>
			<point x="270" y="77"/>
			<point x="168" y="195"/>
			<point x="168" y="358" type="curve" smooth="yes"/>
			<point x="168" y="521"/>
			<point x="270" y="638"/>
			<point x="414" y="638" type="curve" smooth="yes"/>
			<point x="558" y="638"/>
			<point x="660" y="521"/>
			<point x="660" y="358" type="curve" smooth="yes"/>
			<point x="660" y="195"/>
			<point x="558" y="77"/>
		</contour>
	</outline>
	<anchor name="top.UC" x="414" y="750"/>
	<anchor name="bottom.UC" x="414" y="-50"/>
</glyph>
<glyph name="Q" format="2">
	<unicode hex="0051"/>
	<advance width="828"/>
	<outline>
		<contour>
			<point x="689" y="-41" type="line"/>
			<point x="747" y="19" type="line"/>
			<point x="499" y="288" type="line"/>
			<point x="441" y="228" type="line"/>
		</contour>
		<contour>
			<point x="414" y="-16" type="curve" smooth="yes"/>
			<point x="619" y="-16"/>
			<point x="768" y="145"/>
			<point x="768" y="358" type="curve" smooth="yes"/>
			<point x="768" y="572"/>
			<point x="618" y="731"/>
			<point x="414" y="731" type="curve" smooth="yes"/>
			<point x="210" y="731"/>
			<point x="60" y="572"/>
			<point x="60" y="358" type="curve" smooth="yes"/>
			<point x="60" y="143"/>
			<point x="210" y="-16"/>
		</contour>
		<contour>
			<point x="414" y="77" type="curve" smooth="yes"/>
			<point x="270" y="77"/>
			<point x="168" y="195"/>
			<point x="168" y="358" type="curve" smooth="yes"/>
			<point x="168" y="521"/>
			<point x="270" y="638"/>
			<point x="414" y="638" type="curve" smooth="yes"/>
			<point x="558" y="638"/>
			<point x="660" y="521"/>
			<point x="660" y="358" type="curve" smooth="yes"/>
			<point x="660" y="193"/>
			<point x="560" y="77"/>
		</contour>
	</outline>
</glyph>
<glyph name="T" format="2">
	<unicode hex="0054"/>
	<advance width="606"/>
	<outline>
		<contour>
			<point x="355" y="0" type="line"/>
			<point x="355" y="635" type="line"/>
			<point x="252" y="635" type="line"/>
			<point x="252" y="0" type="line"/>
		</contour>
		<contour>
			<point x="571" y="625" type="line"/>
			<point x="571" y="715" type="line"/>
			<point x="36" y="715" type="line"/>
			<point x="36" y="625" type="line"/>
		</contour>
	</outline>
	<anchor name="top.UC" x="307" y="750"/>
	<anchor name="bottom.UC" x="306" y="-50"/>
</glyph>
<glyph name="U" format="2">
	<unicode hex="0055"/>
	<advance width="729"/>
	<outline>
		<contour>
			<point x="643" y="715" type="line"/>
			<point x="541" y="715" type="line"/>
			<point x="541" y="282" type="line" smooth="yes"/>
			<point x="541" y="152"/>
			<point x="476" y="77"/>
			<point x="365" y="77" type="curve" smooth="yes"/>
			<point x="254" y="77"/>
			<point x="189" y="152"/>
			<point x="189" y="282" type="curve" smooth="yes"/>
			<point x="189" y="715" type="line"/>
			<point x="86" y="715" type="line"/>
			<point x="86" y="282" type="line" smooth="yes"/>
			<point x="86" y="94"/>
			<point x="191" y="-16"/>
			<point x="365" y="-16" type="curve" smooth="yes"/>
			<point x="538" y="-16"/>
			<point x="643" y="94"/>
			<point x="643" y="282" type="curve" smooth="yes"/>
		</contour>
	</outline>
	<anchor name="top.UC" x="365" y="750"/>
	<anchor name="ogonek.UC.round" x="397" y="-30"/>
	<anchor name="bottom.UC" x="365" y="-50"/>
</glyph>
<glyph name="W" format="2">
	<unicode hex="0057"/>
	<advance width="1010"/>
	<outline>
		<contour>
			<point x="770" y="0" type="line"/>
			<point x="967" y="715" type="line"/>
			<point x="861" y="715" type="line"/>
			<point x="698" y="75" type="line"/>
			<point x="725" y="75" type="line"/>
			<point x="556" y="715" type="line"/>
			<point x="456" y="715" type="line"/>
			<point x="287" y="75" type="line"/>
			<point x="317" y="75" type="line"/>
			<point x="153" y="715" type="line"/>
			<point x="43" y="715" type="line"/>
			<point x="241" y="0" type="line"/>
			<point x="356" y="0" type="line"/>
			<point x="511" y="589" type="line"/>
			<point x="499" y="589" type="line"/>
			<point x="654" y="0" type="line"/>
		</contour>
	</outline>
	<anchor name="top.UC" x="505" y="750"/>
</glyph>
<glyph name="Y" format="2">
	<unicode hex="0059"/>
	<advance width="679"/>
	<outline>
		<contour>
			<point x="392" y="0" type="line"/>
			<point x="392" y="302" type="line"/>
			<point x="644" y="715" type="line"/>
			<point x="530" y="715" type="line"/>
			<point x="332" y="371" type="line"/>
			<point x="353" y="371" type="line"/>
			<point x="156" y="715" type="line"/>
			<point x="35" y="715" type="line"/>
			<point x="289" y="304" type="line"/>
			<point x="289" y="0" type="line"/>
		</contour>
	</outline>
	<anchor name="top.UC" x="343" y="750"/>
	<anchor name="bottom.UC" x="343" y="-50"/>
</glyph>
<glyph name="Z" format="2">
	<unicode hex="005A"/>
	<advance width="603"/>
	<outline>
		<contour>
			<point x="555" y="0" type="line"/>
			<point x="555" y="90" type="line"/>
			<point x="169" y="90" type="line"/>
			<point x="543" y="625" type="line"/>
			<point x="543" y="715" type="line"/>
			<point x="59" y="715" type="line"/>
			<point x="59" y="625" type="line"/>
			<point x="419" y="625" type="line"/>
			<point x="46" y="90" type="line"/>
			<point x="46" y="0" type="line"/>
		</contour>
	</outline>
	<anchor name="top.UC" x="300" y="750"/>
</glyph>
<glyph name="bracketleft" format="2">
	<unicode hex="005B"/>
	<advance width="316"/>
	<outline>
		<contour>
			<point x="286" y="-129" type="line"/>
			<point x="286" y="-48" type="line"/>
			<point x="178" y="-48" type="line"/>
			<point x="178" y="650" type="line"/>
			<point x="286" y="650" type="line"/>
			<point x="286" y="731" type="line"/>
			<point x="79" y="731" type="line"/>
			<point x="79" y="-129" type="line"/>
		</contour>
	</outline>
</glyph>
<glyph name="asciicircum" format="2">
	<unicode hex="005E"/>
	<advance width="632"/>
	<outline>
		<contour>
			<point x="283" y="715" type="line"/>
			<point x="445" y="354" type="line"/>
			<point x="542" y="354" type="line"/>
			<point x="372" y="715" type="line"/>
		</contour>
		<contour>
			<point x="260" y="715" type="line"/>
			<point x="90" y="354" type="line"/>
			<point x="182" y="354" type="line"/>
			<point x="346" y="715" type="line"/>
		</contour>
	</outline>
</glyph>
<glyph name="b" format="2">
	<unicode hex="0062"/>
	<advance width="633"/>
	<outline>
		<contour>
			<point x="178" y="0" type="line"/>
			<point x="178" y="127" type="line"/>
			<point x="179" y="131" type="line"/>
			<point x="179" y="239" type="line" smooth="yes"/>
			<point x="179" y="351"/>
			<point x="243" y="427"/>
			<point x="332" y="427" type="curve" smooth="yes"/>
			<point x="420" y="427"/>
			<point x="479" y="353"/>
			<point x="479" y="248" type="curve" smooth="yes"/>
			<point x="479" y="143"/>
			<point x="416" y="69"/>
			<point x="325" y="69" type="curve" smooth="yes"/>
			<point x="245" y="69"/>
			<point x="180" y="129"/>
			<point x="171" y="212" type="curve"/>
			<point x="151" y="193" type="line"/>
			<point x="141" y="75"/>
			<point x="225" y="-16"/>
			<point x="346" y="-16" type="curve" smooth="yes"/>
			<point x="480" y="-16"/>
			<point x="583" y="93"/>
			<point x="583" y="248" type="curve" smooth="yes"/>
			<point x="583" y="402"/>
			<point x="483" y="513"/>
			<point x="350" y="513" type="curve" smooth="yes"/>
			<point x="247" y="513"/>
			<point x="169" y="443"/>
			<point x="155" y="345" type="curve"/>
			<point x="179" y="345" type="line"/>
			<point x="179" y="720" type="line"/>
			<point x="79" y="720" type="line"/>
			<point x="79" y="0" type="line"/>
		</contour>
	</outline>
</glyph>
<glyph name="c" format="2">
	<unicode hex="0063"/>
	<advance width="540"/>
	<outline>
		<contour>
			<point x="441" y="145" type="line"/>
			<point x="409" y="96"/>
			<point x="365" y="69"/>
			<point x="309" y="69" type="curve" smooth="yes"/>
			<point x="218" y="69"/>
			<point x="155" y="141"/>
			<point x="155" y="248" type="curve" smooth="yes"/>
			<point x="155" y="357"/>
			<point x="217" y="427"/>
			<point x="307" y="427" type="curve" smooth="yes"/>
			<point x="364" y="427"/>
			<point x="411" y="400"/>
			<point x="440" y="352" type="curve"/>
			<point x="507" y="416" type="line"/>
			<point x="459" y="479"/>
			<point x="389" y="513"/>
			<point x="305" y="513" type="curve" smooth="yes"/>
			<point x="156" y="513"/>
			<point x="50" y="404"/>
			<point x="50" y="248" type="curve" smooth="yes"/>
			<point x="50" y="94"/>
			<point x="156" y="-16"/>
			<point x="304" y="-16" type="curve" smooth="yes"/>
			<point x="387" y="-16"/>
			<point x="458" y="19"/>
			<point x="506" y="81" type="curve"/>
		</contour>
	</outline>
	<anchor name="bottom.LC" x="305" y="-50"/>
	<anchor name="top.LC" x="304" y="544"/>
</glyph>
<glyph name="d" format="2">
	<unicode hex="0064"/>
	<advance width="633"/>
	<outline>
		<contour>
			<point x="455" y="0" type="line"/>
			<point x="455" y="127" type="line"/>
			<point x="454" y="131" type="line"/>
			<point x="454" y="239" type="line" smooth="yes"/>
			<point x="454" y="351"/>
			<point x="393" y="427"/>
			<point x="305" y="427" type="curve" smooth="yes"/>
			<point x="216" y="427"/>
			<point x="155" y="353"/>
			<point x="155" y="248" type="curve" smooth="yes"/>
			<point x="155" y="143"/>
			<point x="217" y="69"/>
			<point x="308" y="69" type="curve" smooth="yes"/>
			<point x="388" y="69"/>
			<point x="453" y="129"/>
			<point x="462" y="212" type="curve"/>
			<point x="483" y="193" type="line"/>
			<point x="492" y="75"/>
			<point x="408" y="-16"/>
			<point x="287" y="-16" type="curve" smooth="yes"/>
			<point x="153" y="-16"/>
			<point x="50" y="93"/>
			<point x="50" y="248" type="curve" smooth="yes"/>
			<point x="50" y="402"/>
			<point x="153" y="513"/>
			<point x="286" y="513" type="curve" smooth="yes"/>
			<point x="389" y="513"/>
			<point x="466" y="443"/>
			<point x="479" y="345" type="curve"/>
			<point x="454" y="345" type="line"/>
			<point x="454" y="720" type="line"/>
			<point x="554" y="720" type="line"/>
			<point x="554" y="0" type="line"/>
		</contour>
	</outline>
	<anchor name="top_right" x="665" y="540"/>
</glyph>
<glyph name="e" format="2">
	<unicode hex="0065"/>
	<advance width="578"/>
	<outline>
		<contour>
			<point x="461" y="146" type="line"/>
			<point x="424" y="93"/>
			<point x="376" y="67"/>
			<point x="316" y="67" type="curve" smooth="yes"/>
			<point x="215" y="67"/>
			<point x="153" y="141"/>
			<point x="153" y="250" type="curve" smooth="yes"/>
			<point x="153" y="358"/>
			<point x="210" y="430"/>
			<point x="295" y="430" type="curve" smooth="yes"/>
			<point x="378" y="430"/>
			<point x="428" y="363"/>
			<point x="428" y="256" type="curve" smooth="yes"/>
			<point x="428" y="246" type="line"/>
			<point x="527" y="246" type="line"/>
			<point x="527" y="252" type="line" smooth="yes"/>
			<point x="527" y="404"/>
			<point x="431" y="513"/>
			<point x="296" y="513" type="curve" smooth="yes"/>
			<point x="155" y="513"/>
			<point x="50" y="400"/>
			<point x="50" y="248" type="curve" smooth="yes"/>
			<point x="50" y="95"/>
			<point x="156" y="-16"/>
			<point x="311" y="-16" type="curve" smooth="yes"/>
			<point x="395" y="-16"/>
			<point x="468" y="17"/>
			<point x="520" y="83" type="curve"/>
		</contour>
		<contour>
			<point x="527" y="216" type="line"/>
			<point x="527" y="252" type="line"/>
			<point x="512" y="288" type="line"/>
			<point x="121" y="288" type="line"/>
			<point x="121" y="216" type="line"/>
		</contour>
	</outline>
	<anchor name="ogonek.LC.round" x="360" y="-30"/>
	<anchor name="top.LC" x="292" y="544"/>
	<anchor name="bottom.LC" x="292" y="-50"/>
</glyph>
<glyph name="f" format="2">
	<unicode hex="0066"/>
	<advance width="370"/>
	<outline>
		<contour>
			<point x="222" y="0" type="line"/>
			<point x="222" y="581" type="line" smooth="yes"/>
			<point x="222" y="622"/>
			<point x="237" y="639"/>
			<point x="275" y="639" type="curve" smooth="yes"/>
			<point x="349" y="639" type="line"/>
			<point x="349" y="720" type="line"/>
			<point x="245" y="720" type="line" smooth="yes"/>
			<point x="162" y="720"/>
			<point x="122" y="678"/>
			<point x="122" y="591" type="curve" smooth="yes"/>
			<point x="122" y="0" type="line"/>
		</contour>
		<contour>
			<point x="349" y="413" type="line"/>
			<point x="349" y="497" type="line"/>
			<point x="34" y="497" type="line"/>
			<point x="34" y="413" type="line"/>
		</contour>
	</outline>
</glyph>
<glyph name="g" format="2">
	<unicode hex="0067"/>
	<advance width="632"/>
	<outline>
		<contour>
			<point x="554" y="51" type="curve"/>
			<point x="554" y="497" type="line"/>
			<point x="455" y="497" type="line"/>
			<point x="455" y="345" type="line"/>
			<point x="478" y="345" type="line"/>
			<point x="464" y="446"/>
			<point x="392" y="513"/>
			<point x="286" y="513" type="curve" smooth="yes"/>
			<point x="154" y="513"/>
			<point x="50" y="402"/>
			<point x="50" y="253" type="curve" smooth="yes"/>
			<point x="50" y="102"/>
			<point x="152" y="-4"/>
			<point x="287" y="-4" type="curve" smooth="yes"/>
			<point x="412" y="-4"/>
			<point x="493" y="86"/>
			<point x="483" y="204" type="curve"/>
			<point x="462" y="223" type="line"/>
			<point x="453" y="141"/>
			<point x="388" y="81"/>
			<point x="308" y="81" type="curve" smooth="yes"/>
			<point x="217" y="81"/>
			<point x="155" y="151"/>
			<point x="155" y="253" type="curve" smooth="yes"/>
			<point x="155" y="354"/>
			<point x="217" y="428"/>
			<point x="305" y="428" type="curve" smooth="yes"/>
			<point x="393" y="428"/>
			<point x="454" y="351"/>
			<point x="454" y="239" type="curve" smooth="yes"/>
			<point x="454" y="48" type="line" smooth="yes"/>
			<point x="454" y="-57"/>
			<point x="390" y="-125"/>
			<point x="292" y="-125" type="curve" smooth="yes"/>
			<point x="230" y="-125"/>
			<point x="180" y="-101"/>
			<point x="141" y="-52" type="curve"/>
			<point x="82" y="-120" type="line"/>
			<point x="132" y="-177"/>
			<point x="210" y="-210"/>
			<point x="296" y="-210" type="curve" smooth="yes"/>
			<point x="447" y="-210"/>
			<point x="554" y="-103"/>
		</contour>
	</outline>
	<anchor name="top.LC" x="290" y="544"/>
</glyph>
<glyph name="h" format="2">
	<unicode hex="0068"/>
	<advance width="593"/>
	<outline>
		<contour>
			<point x="522" y="0" type="line"/>
			<point x="522" y="297" type="line" smooth="yes"/>
			<point x="522" y="435"/>
			<point x="455" y="513"/>
			<point x="341" y="513" type="curve" smooth="yes"/>
			<point x="252" y="513"/>
			<point x="181" y="460"/>
			<point x="165" y="344" type="curve"/>
			<point x="179" y="344" type="line"/>
			<point x="179" y="720" type="line"/>
			<point x="79" y="720" type="line"/>
			<point x="79" y="0" type="line"/>
			<point x="179" y="0" type="line"/>
			<point x="179" y="231" type="line" smooth="yes"/>
			<point x="179" y="354"/>
			<point x="234" y="427"/>
			<point x="316" y="427" type="curve" smooth="yes"/>
			<point x="383" y="427"/>
			<point x="422" y="377"/>
			<point x="422" y="286" type="curve" smooth="yes"/>
			<point x="422" y="0" type="line"/>
		</contour>
	</outline>
	<anchor name="bottom.LC" x="301" y="-50"/>
</glyph>
<glyph name="i" format="2">
	<unicode hex="0069"/>
	<advance width="258"/>
	<outline>
		<contour>
			<point x="179" y="0" type="line"/>
			<point x="179" y="497" type="line"/>
			<point x="79" y="497" type="line"/>
			<point x="79" y="0" type="line"/>
		</contour>
		<contour>
			<point x="194" y="673" type="curve" smooth="yes"/>
			<point x="194" y="711"/>
			<point x="166" y="738"/>
			<point x="129" y="738" type="curve" smooth="yes"/>
			<point x="91" y="738"/>
			<point x="63" y="711"/>
			<point x="63" y="673" type="curve" smooth="yes"/>
			<point x="63" y="636"/>
			<point x="91" y="609"/>
			<point x="129" y="609" type="curve" smooth="yes"/>
			<point x="166" y="609"/>
			<point x="194" y="636"/>
		</contour>
	</outline>
	<anchor name="ogonek.LC" x="69" y="-30"/>
	<anchor name="bottom.LC" x="129" y="-50"/>
	<guideline x="83" y="0" angle="0"/>
	<guideline x="174" y="0" angle="0"/>
</glyph>
<glyph name="k" format="2">
	<unicode hex="006B"/>
	<advance width="560"/>
	<outline>
		<contour>
			<point x="179" y="0" type="line"/>
			<point x="179" y="720" type="line"/>
			<point x="79" y="720" type="line"/>
			<point x="79" y="0" type="line"/>
		</contour>
		<contour>
			<point x="552" y="0" type="line"/>
			<point x="272" y="267" type="line"/>
			<point x="272" y="248" type="line"/>
			<point x="524" y="497" type="line"/>
			<point x="399" y="497" type="line"/>
			<point x="163" y="258" type="line"/>
			<point x="153" y="258" type="line"/>
			<point x="418" y="0" type="line"/>
		</contour>
	</outline>
	<anchor name="bottom.LC" x="300" y="-50"/>
</glyph>
<glyph name="l" format="2">
	<unicode hex="006C"/>
	<advance width="258"/>
	<outline>
		<contour>
			<point x="179" y="0" type="line"/>
			<point x="179" y="720" type="line"/>
			<point x="79" y="720" type="line"/>
			<point x="79" y="0" type="line"/>
		</contour>
	</outline>
	<anchor name="top.LC" x="129" y="766"/>
	<anchor name="top_right" x="290" y="540"/>
	<anchor name="bottom.LC" x="129" y="-50"/>
</glyph>
<glyph name="m" format="2">
	<unicode hex="006D"/>
	<advance width="900"/>
	<outline>
		<contour>
			<point x="829" y="0" type="line"/>
			<point x="829" y="297" type="line" smooth="yes"/>
			<point x="829" y="435"/>
			<point x="764" y="513"/>
			<point x="653" y="513" type="curve" smooth="yes"/>
			<point x="569" y="513"/>
			<point x="498" y="466"/>
			<point x="475" y="368" type="curve"/>
			<point x="488" y="368" type="line"/>
			<point x="470" y="462"/>
			<point x="416" y="513"/>
			<point x="332" y="513" type="curve" smooth="yes"/>
			<point x="256" y="513"/>
			<point x="194" y="469"/>
			<point x="171" y="380" type="curve"/>
			<point x="178" y="379" type="line"/>
			<point x="178" y="497" type="line"/>
			<point x="79" y="497" type="line"/>
			<point x="79" y="0" type="line"/>
			<point x="179" y="0" type="line"/>
			<point x="179" y="233" type="line" smooth="yes"/>
			<point x="179" y="355"/>
			<point x="230" y="427"/>
			<point x="306" y="427" type="curve" smooth="yes"/>
			<point x="368" y="427"/>
			<point x="403" y="377"/>
			<point x="403" y="289" type="curve" smooth="yes"/>
			<point x="403" y="0" type="line"/>
			<point x="503" y="0" type="line"/>
			<point x="503" y="233" type="line" smooth="yes"/>
			<point x="503" y="355"/>
			<point x="555" y="427"/>
			<point x="631" y="427" type="curve" smooth="yes"/>
			<point x="692" y="427"/>
			<point x="729" y="377"/>
			<point x="729" y="289" type="curve" smooth="yes"/>
			<point x="729" y="0" type="line"/>
		</contour>
	</outline>
</glyph>
<glyph name="n" format="2">
	<unicode hex="006E"/>
	<advance width="593"/>
	<outline>
		<contour>
			<point x="522" y="0" type="line"/>
			<point x="522" y="297" type="line" smooth="yes"/>
			<point x="522" y="437"/>
			<point x="453" y="513"/>
			<point x="341" y="513" type="curve" smooth="yes"/>
			<point x="264" y="513"/>
			<point x="182" y="472"/>
			<point x="164" y="344" type="curve"/>
			<point x="178" y="344" type="line"/>
			<point x="178" y="497" type="line"/>
			<point x="79" y="497" type="line"/>
			<point x="79" y="0" type="line"/>
			<point x="179" y="0" type="line"/>
			<point x="179" y="231" type="line" smooth="yes"/>
			<point x="179" y="369"/>
			<point x="245" y="427"/>
			<point x="316" y="427" type="curve" smooth="yes"/>
			<point x="381" y="427"/>
			<point x="422" y="380"/>
			<point x="422" y="286" type="curve" smooth="yes"/>
			<point x="422" y="0" type="line"/>
		</contour>
	</outline>
	<anchor name="bottom.LC" x="301" y="-50"/>
	<anchor name="top.LC" x="321" y="544"/>
</glyph>
<glyph name="o" format="2">
	<unicode hex="006F"/>
	<advance width="607"/>
	<outline>
		<contour>
			<point x="304" y="-16" type="curve" smooth="yes"/>
			<point x="453" y="-16"/>
			<point x="558" y="95"/>
			<point x="558" y="248" type="curve" smooth="yes"/>
			<point x="558" y="402"/>
			<point x="453" y="513"/>
			<point x="303" y="513" type="curve" smooth="yes"/>
			<point x="155" y="513"/>
			<point x="50" y="402"/>
			<point x="50" y="248" type="curve" smooth="yes"/>
			<point x="50" y="95"/>
			<point x="155" y="-16"/>
		</contour>
		<contour>
			<point x="304" y="70" type="curve" smooth="yes"/>
			<point x="215" y="70"/>
			<point x="155" y="143"/>
			<point x="155" y="248" type="curve" smooth="yes"/>
			<point x="155" y="354"/>
			<point x="215" y="427"/>
			<point x="303" y="427" type="curve" smooth="yes"/>
			<point x="393" y="427"/>
			<point x="453" y="354"/>
			<point x="453" y="248" type="curve" smooth="yes"/>
			<point x="453" y="143"/>
			<point x="393" y="70"/>
		</contour>
	</outline>
	<anchor name="top.LC" x="303" y="544"/>
	<anchor name="bottom.LC" x="303" y="-50"/>
</glyph>
<glyph name="q" format="2">
	<unicode hex="0071"/>
	<advance width="633"/>
	<outline>
		<contour>
			<point x="454" y="-194" type="line"/>
			<point x="454" y="239" type="line" smooth="yes"/>
			<point x="454" y="351"/>
			<point x="393" y="428"/>
			<point x="305" y="428" type="curve" smooth="yes"/>
			<point x="217" y="428"/>
			<point x="155" y="353"/>
			<point x="155" y="248" type="curve" smooth="yes"/>
			<point x="155" y="143"/>
			<point x="217" y="69"/>
			<point x="308" y="69" type="curve" smooth="yes"/>
			<point x="388" y="69"/>
			<point x="453" y="129"/>
			<point x="462" y="212" type="curve"/>
			<point x="483" y="193" type="line"/>
			<point x="492" y="75"/>
			<point x="412" y="-16"/>
			<point x="287" y="-16" type="curve" smooth="yes"/>
			<point x="153" y="-16"/>
			<point x="50" y="93"/>
			<point x="50" y="248" type="curve" smooth="yes"/>
			<point x="50" y="402"/>
			<point x="153" y="513"/>
			<point x="286" y="513" type="curve" smooth="yes"/>
			<point x="390" y="513"/>
			<point x="465" y="442"/>
			<point x="479" y="345" type="curve"/>
			<point x="455" y="345" type="line"/>
			<point x="455" y="497" type="line"/>
			<point x="554" y="497" type="line"/>
			<point x="554" y="-194" type="line"/>
		</contour>
	</outline>
</glyph>
<glyph name="s" format="2">
	<unicode hex="0073"/>
	<advance width="501"/>
	<outline>
		<contour>
			<point x="26" y="75" type="line"/>
			<point x="79" y="18"/>
			<point x="153" y="-16"/>
			<point x="248" y="-16" type="curve" smooth="yes"/>
			<point x="372" y="-16"/>
			<point x="458" y="48"/>
			<point x="458" y="143" type="curve" smooth="yes"/>
			<point x="458" y="232"/>
			<point x="403" y="279"/>
			<point x="257" y="301" type="curve" smooth="yes"/>
			<point x="171" y="314"/>
			<point x="146" y="330"/>
			<point x="146" y="364" type="curve" smooth="yes"/>
			<point x="146" y="405"/>
			<point x="187" y="434"/>
			<point x="246" y="434" type="curve" smooth="yes"/>
			<point x="308" y="434"/>
			<point x="357" y="405"/>
			<point x="394" y="357" type="curve"/>
			<point x="452" y="422" type="line"/>
			<point x="399" y="480"/>
			<point x="331" y="513"/>
			<point x="245" y="513" type="curve" smooth="yes"/>
			<point x="129" y="513"/>
			<point x="48" y="451"/>
			<point x="48" y="358" type="curve" smooth="yes"/>
			<point x="48" y="278"/>
			<point x="102" y="234"/>
			<point x="242" y="213" type="curve" smooth="yes"/>
			<point x="329" y="200"/>
			<point x="359" y="179"/>
			<point x="359" y="140" type="curve" smooth="yes"/>
			<point x="359" y="95"/>
			<point x="315" y="63"/>
			<point x="249" y="63" type="curve" smooth="yes"/>
			<point x="179" y="63"/>
			<point x="124" y="93"/>
			<point x="82" y="140" type="curve"/>
		</contour>
	</outline>
	<anchor name="bottom.LC" x="249" y="-50"/>
	<anchor name="top.LC" x="246" y="544"/>
</glyph>
<glyph name="u" format="2">
	<unicode hex="0075"/>
	<advance width="591"/>
	<outline>
		<contour>
			<point x="514" y="0" type="line"/>
			<point x="514" y="497" type="line"/>
			<point x="414" y="497" type="line"/>
			<point x="414" y="124" type="line"/>
			<point x="415" y="96" type="line"/>
			<point x="415" y="0" type="line"/>
		</contour>
		<contour>
			<point x="422" y="212" type="line"/>
			<point x="413" y="127"/>
			<point x="352" y="69"/>
			<point x="280" y="69" type="curve" smooth="yes"/>
			<point x="213" y="69"/>
			<point x="173" y="115"/>
			<point x="173" y="200" type="curve" smooth="yes"/>
			<point x="173" y="497" type="line"/>
			<point x="73" y="497" type="line"/>
			<point x="73" y="190" type="line" smooth="yes"/>
			<point x="73" y="56"/>
			<point x="144" y="-16"/>
			<point x="254" y="-16" type="curve" smooth="yes"/>
			<point x="368" y="-16"/>
			<point x="447" y="70"/>
			<point x="442" y="192" type="curve"/>
		</contour>
	</outline>
	<anchor name="ogonek.LC" x="404" y="-30"/>
	<anchor name="top.LC" x="286" y="544"/>
	<anchor name="bottom.LC" x="286" y="-50"/>
</glyph>
<glyph name="w" format="2">
	<unicode hex="0077"/>
	<advance width="783"/>
	<outline>
		<contour>
			<point x="602" y="0" type="line"/>
			<point x="750" y="497" type="line"/>
			<point x="652" y="497" type="line"/>
			<point x="535" y="53" type="line"/>
			<point x="564" y="53" type="line"/>
			<point x="437" y="497" type="line"/>
			<point x="347" y="497" type="line"/>
			<point x="219" y="53" type="line"/>
			<point x="249" y="53" type="line"/>
			<point x="133" y="497" type="line"/>
			<point x="33" y="497" type="line"/>
			<point x="179" y="0" type="line"/>
			<point x="284" y="0" type="line"/>
			<point x="403" y="409" type="line"/>
			<point x="377" y="409" type="line"/>
			<point x="498" y="0" type="line"/>
		</contour>
	</outline>
	<anchor name="top.LC" x="392" y="544"/>
</glyph>
<glyph name="x" format="2">
	<unicode hex="0078"/>
	<advance width="506"/>
	<outline>
		<contour>
			<point x="124" y="0" type="line"/>
			<point x="253" y="196" type="line"/>
			<point x="383" y="0" type="line"/>
			<point x="500" y="0" type="line"/>
			<point x="318" y="258" type="line"/>
			<point x="484" y="497" type="line"/>
			<point x="368" y="497" type="line"/>
			<point x="253" y="317" type="line"/>
			<point x="139" y="497" type="line"/>
			<point x="23" y="497" type="line"/>
			<point x="189" y="258" type="line"/>
			<point x="7" y="0" type="line"/>
		</contour>
	</outline>
</glyph>
<glyph name="y" format="2">
	<unicode hex="0079"/>
	<advance width="556"/>
	<outline>
		<contour>
			<point x="426" y="497" type="line"/>
			<point x="262" y="58" type="line"/>
			<point x="296" y="58" type="line"/>
			<point x="134" y="497" type="line"/>
			<point x="29" y="497" type="line"/>
			<point x="230" y="-2" type="line"/>
			<point x="212" y="-50" type="line" smooth="yes"/>
			<point x="199" y="-90"/>
			<point x="177" y="-110"/>
			<point x="132" y="-110" type="curve" smooth="yes"/>
			<point x="73" y="-110" type="line"/>
			<point x="73" y="-194" type="line"/>
			<point x="135" y="-194" type="line" smooth="yes"/>
			<point x="225" y="-194"/>
			<point x="266" y="-151"/>
			<point x="297" y="-74" type="curve" smooth="yes"/>
			<point x="527" y="497" type="line"/>
		</contour>
	</outline>
	<anchor name="top.LC" x="280" y="544"/>
	<anchor name="bottom.LC" x="425" y="-50"/>
</glyph>
<glyph name="z" format="2">
	<unicode hex="007A"/>
	<advance width="482"/>
	<outline>
		<contour>
			<point x="443" y="0" type="line"/>
			<point x="443" y="82" type="line"/>
			<point x="160" y="82" type="line"/>
			<point x="433" y="414" type="line"/>
			<point x="433" y="497" type="line"/>
			<point x="49" y="497" type="line"/>
			<point x="49" y="414" type="line"/>
			<point x="314" y="414" type="line"/>
			<point x="40" y="82" type="line"/>
			<point x="40" y="0" type="line"/>
		</contour>
	</outline>
	<anchor name="top.LC" x="241" y="544"/>
</glyph>
<glyph name="braceright" format="2">
	<unicode hex="007D"/>
	<advance width="389"/>
	<outline>
		<contour>
			<point x="49" y="-48" type="line"/>
			<point x="102" y="-48" type="line" smooth="yes"/>
			<point x="140" y="-48"/>
			<point x="156" y="-31"/>
			<point x="156" y="10" type="curve" smooth="yes"/>
			<point x="156" y="186" type="line" smooth="yes"/>
			<point x="156" y="273"/>
			<point x="195" y="315"/>
			<point x="279" y="315" type="curve"/>
			<point x="279" y="291" type="line"/>
			<point x="195" y="291"/>
			<point x="156" y="333"/>
			<point x="156" y="420" type="curve" smooth="yes"/>
			<point x="156" y="592" type="line" smooth="yes"/>
			<point x="156" y="633"/>
			<point x="140" y="650"/>
			<point x="101" y="650" type="curve" smooth="yes"/>
			<point x="49" y="650" type="line"/>
			<point x="49" y="731" type="line"/>
			<point x="131" y="731" type="line" smooth="yes"/>
			<point x="214" y="731"/>
			<point x="254" y="689"/>
			<point x="254" y="602" type="curve" smooth="yes"/>
			<point x="254" y="402" type="line" smooth="yes"/>
			<point x="254" y="361"/>
			<point x="270" y="343"/>
			<point x="308" y="343" type="curve" smooth="yes"/>
			<point x="340" y="343" type="line"/>
			<point x="340" y="262" type="line"/>
			<point x="308" y="262" type="line" smooth="yes"/>
			<point x="270" y="262"/>
			<point x="254" y="245"/>
			<point x="254" y="204" type="curve" smooth="yes"/>
			<point x="254" y="0" type="line" smooth="yes"/>
			<point x="254" y="-87"/>
			<point x="214" y="-129"/>
			<point x="131" y="-129" type="curve" smooth="yes"/>
			<point x="49" y="-129" type="line"/>
		</contour>
	</outline>
</glyph>
<glyph name="asciitilde" format="2">
	<unicode hex="007E"/>
	<advance width="632"/>
	<outline>
		<contour>
			<point x="148" y="265" type="line"/>
			<point x="166" y="333"/>
			<point x="186" y="362"/>
			<point x="216" y="362" type="curve" smooth="yes"/>
			<point x="235" y="362"/>
			<point x="250" y="353"/>
			<point x="293" y="318" type="curve" smooth="yes"/>
			<point x="351" y="271"/>
			<point x="380" y="256"/>
			<point x="417" y="256" type="curve" smooth="yes"/>
			<point x="490" y="256"/>
			<point x="534" y="302"/>
			<point x="561" y="408" type="curve"/>
			<point x="483" y="444" type="line"/>
			<point x="466" y="376"/>
			<point x="446" y="347"/>
			<point x="416" y="347" type="curve" smooth="yes"/>
			<point x="396" y="347"/>
			<point x="380" y="357"/>
			<point x="338" y="391" type="curve" smooth="yes"/>
			<point x="284" y="438"/>
			<point x="252" y="453"/>
			<point x="214" y="453" type="curve" smooth="yes"/>
			<point x="142" y="453"/>
			<point x="98" y="406"/>
			<point x="71" y="301" type="curve"/>
		</contour>
	</outline>
</glyph>
<glyph name="exclamdown" format="2">
	<unicode hex="00A1"/>
	<advance width="254"/>
	<outline>
		<contour>
			<point x="98" y="272" type="line"/>
			<point x="93" y="206"/>
			<point x="70" y="-160"/>
			<point x="70" y="-180" type="curve" smooth="yes"/>
			<point x="70" y="-222"/>
			<point x="95" y="-246"/>
			<point x="128" y="-246" type="curve"/>
			<point x="160" y="-246"/>
			<point x="187" y="-222"/>
			<point x="187" y="-180" type="curve" smooth="yes"/>
			<point x="187" y="-160"/>
			<point x="164" y="206"/>
			<point x="158" y="272" type="curve"/>
		</contour>
		<contour>
			<point x="128" y="497" type="curve" smooth="yes"/>
			<point x="89" y="497"/>
			<point x="59" y="467"/>
			<point x="59" y="427" type="curve" smooth="yes"/>
			<point x="59" y="388"/>
			<point x="89" y="358"/>
			<point x="128" y="358" type="curve" smooth="yes"/>
			<point x="168" y="358"/>
			<point x="197" y="388"/>
			<point x="197" y="427" type="curve" smooth="yes"/>
			<point x="197" y="467"/>
			<point x="168" y="497"/>
		</contour>
	</outline>
</glyph>
<glyph name="cent" format="2">
	<unicode hex="00A2"/>
	<advance width="632"/>
	<outline>
		<contour>
			<point x="374" y="-116" type="line"/>
			<point x="374" y="613" type="line"/>
			<point x="311" y="613" type="line"/>
			<point x="311" y="-116" type="line"/>
		</contour>
		<contour>
			<point x="481" y="147" type="line"/>
			<point x="450" y="96"/>
			<point x="404" y="69"/>
			<point x="350" y="69" type="curve" smooth="yes"/>
			<point x="257" y="69"/>
			<point x="194" y="140"/>
			<point x="194" y="248" type="curve" smooth="yes"/>
			<point x="194" y="357"/>
			<point x="256" y="428"/>
			<point x="350" y="428" type="curve" smooth="yes"/>
			<point x="403" y="428"/>
			<point x="452" y="399"/>
			<point x="480" y="350" type="curve"/>
			<point x="547" y="415" type="line"/>
			<point x="500" y="478"/>
			<point x="430" y="513"/>
			<point x="347" y="513" type="curve" smooth="yes"/>
			<point x="196" y="513"/>
			<point x="91" y="404"/>
			<point x="91" y="248" type="curve" smooth="yes"/>
			<point x="91" y="94"/>
			<point x="196" y="-16"/>
			<point x="346" y="-16" type="curve" smooth="yes"/>
			<point x="427" y="-16"/>
			<point x="499" y="19"/>
			<point x="547" y="82" type="curve"/>
		</contour>
	</outline>
</glyph>
<glyph name="currency" format="2">
	<unicode hex="00A4"/>
	<advance width="608"/>
	<outline>
		<contour>
			<point x="304" y="235" type="curve" smooth="yes"/>
			<point x="228" y="235"/>
			<point x="170" y="295"/>
			<point x="170" y="376" type="curve" smooth="yes"/>
			<point x="170" y="457"/>
			<point x="228" y="516"/>
			<point x="304" y="516" type="curve" smooth="yes"/>
			<point x="380" y="516"/>
			<point x="438" y="457"/>
			<point x="438" y="376" type="curve" smooth="yes"/>
			<point x="438" y="295"/>
			<point x="380" y="235"/>
		</contour>
		<contour>
			<point x="304" y="160" type="curve" smooth="yes"/>
			<point x="350" y="160"/>
			<point x="393" y="175"/>
			<point x="428" y="199" type="curve"/>
			<point x="503" y="125" type="line"/>
			<point x="552" y="174" type="line"/>
			<point x="479" y="248" type="line"/>
			<point x="505" y="283"/>
			<point x="520" y="328"/>
			<point x="520" y="376" type="curve" smooth="yes"/>
			<point x="520" y="424"/>
			<point x="505" y="468"/>
			<point x="479" y="504" type="curve"/>
			<point x="552" y="577" type="line"/>
			<point x="503" y="627" type="line"/>
			<point x="428" y="552" type="line"/>
			<point x="393" y="577"/>
			<point x="350" y="591"/>
			<point x="304" y="591" type="curve" smooth="yes"/>
			<point x="258" y="591"/>
			<point x="215" y="577"/>
			<point x="180" y="552" type="curve"/>
			<point x="105" y="627" type="line"/>
			<point x="56" y="577" type="line"/>
			<point x="129" y="504" type="line"/>
			<point x="104" y="468"/>
			<point x="88" y="424"/>
			<point x="88" y="376" type="curve" smooth="yes"/>
			<point x="88" y="328"/>
			<point x="104" y="283"/>
			<point x="129" y="248" type="curve"/>
			<point x="56" y="174" type="line"/>
			<point x="105" y="125" type="line"/>
			<point x="180" y="199" type="line"/>
			<point x="215" y="175"/>
			<point x="258" y="160"/>
		</contour>
	</outline>
</glyph>
<glyph name="yen" format="2">
	<unicode hex="00A5"/>
	<advance width="632"/>
	<outline>
		<contour>
			<point x="526" y="119" type="line"/>
			<point x="526" y="197" type="line"/>
			<point x="106" y="197" type="line"/>
			<point x="106" y="119" type="line"/>
		</contour>
		<contour>
			<point x="526" y="277" type="line"/>
			<point x="526" y="355" type="line"/>
			<point x="106" y="355" type="line"/>
			<point x="106" y="277" type="line"/>
		</contour>
		<contour>
			<point x="367" y="0" type="line"/>
			<point x="367" y="309" type="line"/>
			<point x="607" y="715" type="line"/>
			<point x="495" y="715" type="line"/>
			<point x="307" y="378" type="line"/>
			<point x="328" y="378" type="line"/>
			<point x="141" y="715" type="line"/>
			<point x="25" y="715" type="line"/>
			<point x="265" y="311" type="line"/>
			<point x="265" y="0" type="line"/>
		</contour>
	</outline>
</glyph>
<glyph name="brokenbar" format="2">
	<unicode hex="00A6"/>
	<advance width="256"/>
	<outline>
		<contour>
			<point x="178" y="390" type="line"/>
			<point x="178" y="736" type="line"/>
			<point x="79" y="736" type="line"/>
			<point x="79" y="390" type="line"/>
		</contour>
		<contour>
			<point x="178" y="-129" type="line"/>
			<point x="178" y="217" type="line"/>
			<point x="79" y="217" type="line"/>
			<point x="79" y="-129" type="line"/>
		</contour>
	</outline>
</glyph>
<glyph name="section" format="2">
	<unicode hex="00A7"/>
	<advance width="534"/>
	<outline>
		<contour>
			<point x="486" y="307" type="curve" smooth="yes"/>
			<point x="486" y="391"/>
			<point x="429" y="439"/>
			<point x="290" y="474" type="curve" smooth="yes"/>
			<point x="212" y="493"/>
			<point x="180" y="522"/>
			<point x="180" y="570" type="curve" smooth="yes"/>
			<point x="180" y="621"/>
			<point x="218" y="655"/>
			<point x="276" y="655" type="curve" smooth="yes"/>
			<point x="332" y="655"/>
			<point x="381" y="630"/>
			<point x="419" y="581" type="curve"/>
			<point x="472" y="641" type="line"/>
			<point x="422" y="699"/>
			<point x="354" y="731"/>
			<point x="275" y="731" type="curve" smooth="yes"/>
			<point x="169" y="731"/>
			<point x="91" y="660"/>
			<point x="91" y="564" type="curve" smooth="yes"/>
			<point x="91" y="513"/>
			<point x="114" y="471"/>
			<point x="159" y="441" type="curve"/>
			<point x="101" y="410"/>
			<point x="67" y="360"/>
			<point x="67" y="301" type="curve" smooth="yes"/>
			<point x="67" y="218"/>
			<point x="126" y="169"/>
			<point x="265" y="135" type="curve" smooth="yes"/>
			<point x="345" y="114"/>
			<point x="376" y="86"/>
			<point x="376" y="32" type="curve" smooth="yes"/>
			<point x="376" y="-16"/>
			<point x="331" y="-51"/>
			<point x="271" y="-51" type="curve" smooth="yes"/>
			<point x="209" y="-51"/>
			<point x="150" y="-22"/>
			<point x="112" y="24" type="curve"/>
			<point x="61" y="-36" type="line"/>
			<point x="110" y="-94"/>
			<point x="189" y="-129"/>
			<point x="271" y="-129" type="curve" smooth="yes"/>
			<point x="381" y="-129"/>
			<point x="465" y="-57"/>
			<point x="465" y="37" type="curve" smooth="yes"/>
			<point x="465" y="94"/>
			<point x="442" y="136"/>
			<point x="394" y="167" type="curve"/>
			<point x="453" y="197"/>
			<point x="486" y="248"/>
		</contour>
		<contour>
			<point x="398" y="297" type="curve" smooth="yes"/>
			<point x="398" y="256"/>
			<point x="369" y="221"/>
			<point x="321" y="203" type="curve"/>
			<point x="280" y="215" type="line" smooth="yes"/>
			<point x="189" y="240"/>
			<point x="156" y="266"/>
			<point x="156" y="312" type="curve" smooth="yes"/>
			<point x="156" y="353"/>
			<point x="185" y="388"/>
			<point x="233" y="405" type="curve"/>
			<point x="274" y="393" type="line" smooth="yes"/>
			<point x="364" y="369"/>
			<point x="398" y="342"/>
		</contour>
	</outline>
</glyph>
<glyph name="ordfeminine" format="2">
	<unicode hex="00AA"/>
	<advance width="426"/>
	<outline>
		<contour>
			<point x="380" y="312" type="line"/>
			<point x="380" y="554" type="line" smooth="yes"/>
			<point x="380" y="654"/>
			<point x="309" y="715"/>
			<point x="203" y="715" type="curve" smooth="yes"/>
			<point x="138" y="715"/>
			<point x="82" y="689"/>
			<point x="42" y="647" type="curve"/>
			<point x="91" y="593" type="line"/>
			<point x="119" y="626"/>
			<point x="155" y="646"/>
			<point x="199" y="646" type="curve" smooth="yes"/>
			<point x="258" y="646"/>
			<point x="296" y="610"/>
			<point x="296" y="552" type="curve" smooth="yes"/>
			<point x="296" y="405" type="line"/>
			<point x="299" y="390" type="line"/>
			<point x="299" y="312" type="line"/>
		</contour>
		<contour>
			<point x="171" y="300" type="curve" smooth="yes"/>
			<point x="265" y="300"/>
			<point x="329" y="366"/>
			<point x="329" y="462" type="curve"/>
			<point x="305" y="476" type="line"/>
			<point x="300" y="412"/>
			<point x="253" y="367"/>
			<point x="192" y="367" type="curve" smooth="yes"/>
			<point x="149" y="367"/>
			<point x="121" y="391"/>
			<point x="121" y="429" type="curve" smooth="yes"/>
			<point x="121" y="473"/>
			<point x="159" y="495"/>
			<point x="213" y="495" type="curve" smooth="yes"/>
			<point x="303" y="495" type="line"/>
			<point x="303" y="554" type="line"/>
			<point x="205" y="554" type="line" smooth="yes"/>
			<point x="100" y="554"/>
			<point x="30" y="507"/>
			<point x="30" y="426" type="curve" smooth="yes"/>
			<point x="30" y="352"/>
			<point x="88" y="300"/>
		</contour>
	</outline>
</glyph>
<glyph name="logicalnot" format="2">
	<unicode hex="00AC"/>
	<advance width="632"/>
	<outline>
		<contour>
			<point x="512" y="166" type="line"/>
			<point x="512" y="399" type="line"/>
			<point x="120" y="399" type="line"/>
			<point x="120" y="316" type="line"/>
			<point x="430" y="316" type="line"/>
			<point x="430" y="166" type="line"/>
		</contour>
	</outline>
</glyph>
<glyph name="registered" format="2">
	<unicode hex="00AE"/>
	<advance width="523"/>
	<outline>
		<contour>
			<point x="221" y="384" type="line"/>
			<point x="221" y="565" type="line"/>
			<point x="269" y="565" type="line" smooth="yes"/>
			<point x="292" y="565"/>
			<point x="307" y="552"/>
			<point x="307" y="533" type="curve" smooth="yes"/>
			<point x="307" y="515"/>
			<point x="292" y="502"/>
			<point x="269" y="502" type="curve" smooth="yes"/>
			<point x="218" y="502" type="line"/>
			<point x="218" y="464" type="line"/>
			<point x="269" y="464" type="line" smooth="yes"/>
			<point x="318" y="464"/>
			<point x="351" y="492"/>
			<point x="351" y="533" type="curve" smooth="yes"/>
			<point x="351" y="574"/>
			<point x="318" y="604"/>
			<point x="269" y="604" type="curve" smooth="yes"/>
			<point x="178" y="604" type="line"/>
			<point x="178" y="384" type="line"/>
		</contour>
		<contour>
			<point x="369" y="384" type="line"/>
			<point x="290" y="473" type="line"/>
			<point x="239" y="473" type="line"/>
			<point x="315" y="384" type="line"/>
		</contour>
		<contour>
			<point x="262" y="259" type="curve" smooth="yes"/>
			<point x="385" y="259"/>
			<point x="485" y="361"/>
			<point x="485" y="488" type="curve" smooth="yes"/>
			<point x="485" y="615"/>
			<point x="385" y="717"/>
			<point x="262" y="717" type="curve" smooth="yes"/>
			<point x="138" y="717"/>
			<point x="38" y="615"/>
			<point x="38" y="488" type="curve" smooth="yes"/>
			<point x="38" y="361"/>
			<point x="138" y="259"/>
		</contour>
		<contour>
			<point x="262" y="317" type="curve" smooth="yes"/>
			<point x="168" y="317"/>
			<point x="97" y="387"/>
			<point x="97" y="488" type="curve" smooth="yes"/>
			<point x="97" y="589"/>
			<point x="168" y="659"/>
			<point x="262" y="659" type="curve" smooth="yes"/>
			<point x="356" y="659"/>
			<point x="426" y="589"/>
			<point x="426" y="488" type="curve" smooth="yes"/>
			<point x="426" y="387"/>
			<point x="356" y="317"/>
		</contour>
	</outline>
</glyph>
<glyph name="degree" format="2">
	<unicode hex="00B0"/>
	<advance width="456"/>
	<outline>
		<contour>
			<point x="228" y="382" type="curve" smooth="yes"/>
			<point x="325" y="382"/>
			<point x="404" y="461"/>
			<point x="404" y="556" type="curve" smooth="yes"/>
			<point x="404" y="653"/>
			<point x="325" y="731"/>
			<point x="228" y="731" type="curve" smooth="yes"/>
			<point x="132" y="731"/>
			<point x="53" y="653"/>
			<point x="53" y="556" type="curve" smooth="yes"/>
			<point x="53" y="461"/>
			<point x="132" y="382"/>
		</contour>
		<contour>
			<point x="228" y="456" type="curve" smooth="yes"/>
			<point x="175" y="456"/>
			<point x="133" y="500"/>
			<point x="133" y="556" type="curve" smooth="yes"/>
			<point x="133" y="613"/>
			<point x="175" y="657"/>
			<point x="228" y="657" type="curve" smooth="yes"/>
			<point x="282" y="657"/>
			<point x="324" y="613"/>
			<point x="324" y="556" type="curve" smooth="yes"/>
			<point x="324" y="500"/>
			<point x="282" y="456"/>
		</contour>
	</outline>
</glyph>
<glyph name="micro" format="2">
	<unicode hex="00B5"/>
	<advance width="632"/>
	<outline>
		<contour>
			<point x="537" y="0" type="line"/>
			<point x="537" y="497" type="line"/>
			<point x="437" y="497" type="line"/>
			<point x="437" y="124" type="line"/>
			<point x="438" y="96" type="line"/>
			<point x="438" y="0" type="line"/>
		</contour>
		<contour>
			<point x="96" y="-194" type="line"/>
			<point x="196" y="-194" type="line"/>
			<point x="196" y="74" type="line"/>
			<point x="162" y="54" type="line"/>
			<point x="180" y="8"/>
			<point x="227" y="-16"/>
			<point x="287" y="-16" type="curve" smooth="yes"/>
			<point x="395" y="-16"/>
			<point x="470" y="70"/>
			<point x="465" y="192" type="curve"/>
			<point x="445" y="212" type="line"/>
			<point x="436" y="127"/>
			<point x="375" y="69"/>
			<point x="303" y="69" type="curve" smooth="yes"/>
			<point x="236" y="69"/>
			<point x="196" y="115"/>
			<point x="196" y="200" type="curve" smooth="yes"/>
			<point x="196" y="497" type="line"/>
			<point x="96" y="497" type="line"/>
		</contour>
	</outline>
</glyph>
<glyph name="ordmasculine" format="2">
	<unicode hex="00BA"/>
	<advance width="472"/>
	<outline>
		<contour>
			<point x="236" y="300" type="curve" smooth="yes"/>
			<point x="355" y="300"/>
			<point x="438" y="386"/>
			<point x="438" y="508" type="curve" smooth="yes"/>
			<point x="438" y="629"/>
			<point x="355" y="715"/>
			<point x="236" y="715" type="curve" smooth="yes"/>
			<point x="118" y="715"/>
			<point x="35" y="629"/>
			<point x="35" y="508" type="curve" smooth="yes"/>
			<point x="35" y="386"/>
			<point x="118" y="300"/>
		</contour>
		<contour>
			<point x="236" y="374" type="curve" smooth="yes"/>
			<point x="172" y="374"/>
			<point x="129" y="429"/>
			<point x="129" y="508" type="curve" smooth="yes"/>
			<point x="129" y="586"/>
			<point x="172" y="641"/>
			<point x="236" y="641" type="curve" smooth="yes"/>
			<point x="301" y="641"/>
			<point x="344" y="586"/>
			<point x="344" y="508" type="curve" smooth="yes"/>
			<point x="344" y="429"/>
			<point x="301" y="374"/>
		</contour>
	</outline>
</glyph>
<glyph name="questiondown" format="2">
	<unicode hex="00BF"/>
	<advance width="579"/>
	<outline>
		<contour>
			<point x="277" y="272" type="line"/>
			<point x="277" y="209"/>
			<point x="260" y="177"/>
			<point x="194" y="131" type="curve" smooth="yes"/>
			<point x="105" y="69"/>
			<point x="72" y="23"/>
			<point x="72" y="-61" type="curve" smooth="yes"/>
			<point x="72" y="-172"/>
			<point x="159" y="-246"/>
			<point x="290" y="-246" type="curve" smooth="yes"/>
			<point x="383" y="-246"/>
			<point x="469" y="-200"/>
			<point x="531" y="-115" type="curve"/>
			<point x="463" y="-51" type="line"/>
			<point x="417" y="-123"/>
			<point x="359" y="-160"/>
			<point x="292" y="-160" type="curve" smooth="yes"/>
			<point x="218" y="-160"/>
			<point x="172" y="-120"/>
			<point x="172" y="-57" type="curve" smooth="yes"/>
			<point x="172" y="-4"/>
			<point x="191" y="28"/>
			<point x="244" y="64" type="curve" smooth="yes"/>
			<point x="337" y="127"/>
			<point x="359" y="173"/>
			<point x="348" y="272" type="curve"/>
		</contour>
		<contour>
			<point x="314" y="497" type="curve" smooth="yes"/>
			<point x="275" y="497"/>
			<point x="245" y="467"/>
			<point x="245" y="427" type="curve" smooth="yes"/>
			<point x="245" y="388"/>
			<point x="275" y="358"/>
			<point x="314" y="358" type="curve" smooth="yes"/>
			<point x="353" y="358"/>
			<point x="383" y="388"/>
			<point x="383" y="427" type="curve" smooth="yes"/>
			<point x="383" y="467"/>
			<point x="353" y="497"/>
		</contour>
	</outline>
</glyph>
<glyph name="AE" format="2">
	<unicode hex="00C6"/>
	<advance width="1022"/>
	<outline>
		<contour>
			<point x="27" y="0" type="line"/>
			<point x="140" y="0" type="line"/>
			<point x="568" y="715" type="line"/>
			<point x="466" y="715" type="line"/>
		</contour>
		<contour>
			<point x="556" y="181" type="line"/>
			<point x="556" y="269" type="line"/>
			<point x="219" y="269" type="line"/>
			<point x="219" y="181" type="line"/>
		</contour>
		<contour>
			<point x="974" y="0" type="line"/>
			<point x="974" y="89" type="line"/>
			<point x="617" y="89" type="line"/>
			<point x="617" y="626" type="line"/>
			<point x="974" y="626" type="line"/>
			<point x="974" y="715" type="line"/>
			<point x="514" y="715" type="line"/>
			<point x="514" y="0" type="line"/>
		</contour>
		<contour>
			<point x="956" y="320" type="line"/>
			<point x="956" y="409" type="line"/>
			<point x="607" y="409" type="line"/>
			<point x="607" y="320" type="line"/>
		</contour>
	</outline>
</glyph>
<glyph name="Thorn" format="2">
	<unicode hex="00DE"/>
	<advance width="646"/>
	<outline>
		<contour>
			<point x="193" y="476" type="line"/>
			<point x="366" y="476" type="line" smooth="yes"/>
			<point x="445" y="476"/>
			<point x="493" y="431"/>
			<point x="493" y="357" type="curve" smooth="yes"/>
			<point x="493" y="282"/>
			<point x="445" y="237"/>
			<point x="366" y="237" type="curve" smooth="yes"/>
			<point x="192" y="237" type="line"/>
			<point x="192" y="148" type="line"/>
			<point x="366" y="148" type="line" smooth="yes"/>
			<point x="504" y="148"/>
			<point x="597" y="232"/>
			<point x="597" y="357" type="curve" smooth="yes"/>
			<point x="597" y="482"/>
			<point x="504" y="565"/>
			<point x="366" y="565" type="curve" smooth="yes"/>
			<point x="193" y="565" type="line"/>
		</contour>
		<contour>
			<point x="202" y="0" type="line"/>
			<point x="202" y="715" type="line"/>
			<point x="99" y="715" type="line"/>
			<point x="99" y="0" type="line"/>
		</contour>
	</outline>
</glyph>
<glyph name="germandbls" format="2">
	<unicode hex="00DF"/>
	<advance width="622"/>
	<outline>
		<contour>
			<point x="173" y="0" type="line"/>
			<point x="173" y="454" type="line" smooth="yes"/>
			<point x="173" y="586"/>
			<point x="230" y="648"/>
			<point x="311" y="648" type="curve" smooth="yes"/>
			<point x="382" y="648"/>
			<point x="420" y="601"/>
			<point x="420" y="537" type="curve" smooth="yes"/>
			<point x="420" y="464"/>
			<point x="372" y="415"/>
			<point x="301" y="415" type="curve" smooth="yes"/>
			<point x="280" y="415" type="line"/>
			<point x="280" y="332" type="line"/>
			<point x="323" y="332" type="line" smooth="yes"/>
			<point x="400" y="332"/>
			<point x="475" y="278"/>
			<point x="475" y="188" type="curve" smooth="yes"/>
			<point x="475" y="113"/>
			<point x="429" y="65"/>
			<point x="368" y="65" type="curve" smooth="yes"/>
			<point x="332" y="65"/>
			<point x="296" y="81"/>
			<point x="272" y="109" type="curve"/>
			<point x="226" y="39" type="line"/>
			<point x="261" y="4"/>
			<point x="320" y="-16"/>
			<point x="373" y="-16" type="curve" smooth="yes"/>
			<point x="493" y="-16"/>
			<point x="579" y="66"/>
			<point x="579" y="189" type="curve" smooth="yes"/>
			<point x="579" y="322"/>
			<point x="469" y="401"/>
			<point x="335" y="401" type="curve" smooth="yes"/>
			<point x="298" y="401" type="line"/>
			<point x="298" y="356" type="line"/>
			<point x="301" y="356" type="line" smooth="yes"/>
			<point x="440" y="356"/>
			<point x="524" y="434"/>
			<point x="524" y="538" type="curve" smooth="yes"/>
			<point x="524" y="645"/>
			<point x="439" y="731"/>
			<point x="310" y="731" type="curve" smooth="yes"/>
			<point x="175" y="731"/>
			<point x="73" y="635"/>
			<point x="73" y="466" type="curve" smooth="yes"/>
			<point x="73" y="0" type="line"/>
		</contour>
	</outline>
	<guideline x="320" y="0" angle="0"/>
	<guideline x="383" y="0" angle="0"/>
</glyph>
<glyph name="ae" format="2">
	<unicode hex="00E6"/>
	<advance width="915"/>
	<outline>
		<contour>
			<point x="798" y="146" type="line"/>
			<point x="760" y="93"/>
			<point x="712" y="67"/>
			<point x="653" y="67" type="curve" smooth="yes"/>
			<point x="551" y="67"/>
			<point x="490" y="141"/>
			<point x="490" y="250" type="curve" smooth="yes"/>
			<point x="490" y="358"/>
			<point x="547" y="430"/>
			<point x="632" y="430" type="curve" smooth="yes"/>
			<point x="714" y="430"/>
			<point x="765" y="363"/>
			<point x="765" y="256" type="curve" smooth="yes"/>
			<point x="765" y="246" type="line"/>
			<point x="864" y="246" type="line"/>
			<point x="864" y="252" type="line" smooth="yes"/>
			<point x="864" y="404"/>
			<point x="768" y="513"/>
			<point x="633" y="513" type="curve" smooth="yes"/>
			<point x="493" y="513"/>
			<point x="391" y="400"/>
			<point x="391" y="248" type="curve" smooth="yes"/>
			<point x="391" y="95"/>
			<point x="494" y="-16"/>
			<point x="648" y="-16" type="curve" smooth="yes"/>
			<point x="732" y="-16"/>
			<point x="804" y="17"/>
			<point x="857" y="83" type="curve"/>
		</contour>
		<contour>
			<point x="864" y="220" type="line"/>
			<point x="864" y="252" type="line"/>
			<point x="849" y="293" type="line"/>
			<point x="457" y="293" type="line"/>
			<point x="457" y="220" type="line"/>
		</contour>
		<contour>
			<point x="467" y="253" type="line"/>
			<point x="467" y="294" type="line" smooth="yes"/>
			<point x="467" y="434"/>
			<point x="385" y="513"/>
			<point x="263" y="513" type="curve" smooth="yes"/>
			<point x="182" y="513"/>
			<point x="117" y="486"/>
			<point x="57" y="428" type="curve"/>
			<point x="115" y="366" type="line"/>
			<point x="157" y="411"/>
			<point x="201" y="432"/>
			<point x="255" y="432" type="curve" smooth="yes"/>
			<point x="337" y="432"/>
			<point x="386" y="383"/>
			<point x="386" y="292" type="curve" smooth="yes"/>
			<point x="386" y="252" type="line"/>
		</contour>
		<contour>
			<point x="411" y="223" type="line"/>
			<point x="411" y="294" type="line"/>
			<point x="261" y="294" type="line" smooth="yes"/>
			<point x="125" y="294"/>
			<point x="41" y="236"/>
			<point x="41" y="140" type="curve" smooth="yes"/>
			<point x="41" y="50"/>
			<point x="117" y="-16"/>
			<point x="229" y="-16" type="curve" smooth="yes"/>
			<point x="368" y="-16"/>
			<point x="465" y="66"/>
			<point x="478" y="177" type="curve"/>
			<point x="414" y="194" type="line"/>
			<point x="406" y="115"/>
			<point x="326" y="62"/>
			<point x="245" y="62" type="curve" smooth="yes"/>
			<point x="179" y="62"/>
			<point x="143" y="96"/>
			<point x="143" y="142" type="curve" smooth="yes"/>
			<point x="143" y="194"/>
			<point x="190" y="223"/>
			<point x="270" y="223" type="curve" smooth="yes"/>
		</contour>
	</outline>
</glyph>
<glyph name="eth" format="2">
	<unicode hex="00F0"/>
	<advance width="604"/>
	<outline>
		<contour>
			<point x="487" y="237" type="line"/>
			<point x="487" y="387"/>
			<point x="419" y="488"/>
			<point x="287" y="488" type="curve" smooth="yes"/>
			<point x="156" y="488"/>
			<point x="50" y="382"/>
			<point x="50" y="237" type="curve" smooth="yes"/>
			<point x="50" y="92"/>
			<point x="158" y="-16"/>
			<point x="302" y="-16" type="curve" smooth="yes"/>
			<point x="458" y="-16"/>
			<point x="557" y="95"/>
			<point x="557" y="282" type="curve" smooth="yes"/>
			<point x="557" y="485"/>
			<point x="448" y="663"/>
			<point x="260" y="765" type="curve"/>
			<point x="181" y="731" type="line"/>
			<point x="376" y="609"/>
			<point x="469" y="461"/>
			<point x="469" y="237" type="curve"/>
		</contour>
		<contour>
			<point x="303" y="69" type="curve" smooth="yes"/>
			<point x="215" y="69"/>
			<point x="155" y="139"/>
			<point x="155" y="237" type="curve" smooth="yes"/>
			<point x="155" y="335"/>
			<point x="215" y="406"/>
			<point x="303" y="406" type="curve" smooth="yes"/>
			<point x="391" y="406"/>
			<point x="453" y="336"/>
			<point x="453" y="237" type="curve" smooth="yes"/>
			<point x="453" y="139"/>
			<point x="391" y="69"/>
		</contour>
		<contour>
			<point x="502" y="673" type="line"/>
			<point x="471" y="742" type="line"/>
			<point x="179" y="602" type="line"/>
			<point x="209" y="532" type="line"/>
		</contour>
	</outline>
</glyph>
<glyph name="divide" format="2">
	<unicode hex="00F7"/>
	<advance width="632"/>
	<outline>
		<contour>
			<point x="527" y="316" type="line"/>
			<point x="527" y="398" type="line"/>
			<point x="105" y="398" type="line"/>
			<point x="105" y="316" type="line"/>
		</contour>
		<contour>
			<point x="316" y="460" type="curve" smooth="yes"/>
			<point x="351" y="460"/>
			<point x="379" y="488"/>
			<point x="379" y="523" type="curve" smooth="yes"/>
			<point x="379" y="559"/>
			<point x="351" y="587"/>
			<point x="316" y="587" type="curve" smooth="yes"/>
			<point x="281" y="587"/>
			<point x="253" y="559"/>
			<point x="253" y="523" type="curve" smooth="yes"/>
			<point x="253" y="488"/>
			<point x="281" y="460"/>
		</contour>
		<contour>
			<point x="316" y="127" type="curve" smooth="yes"/>
			<point x="351" y="127"/>
			<point x="379" y="155"/>
			<point x="379" y="190" type="curve" smooth="yes"/>
			<point x="379" y="226"/>
			<point x="351" y="254"/>
			<point x="316" y="254" type="curve" smooth="yes"/>
			<point x="281" y="254"/>
			<point x="253" y="226"/>
			<point x="253" y="190" type="curve" smooth="yes"/>
			<point x="253" y="155"/>
			<point x="281" y="127"/>
		</contour>
	</outline>
</glyph>
<glyph name="oslash" format="2">
	<unicode hex="00F8"/>
	<advance width="607"/>
	<outline>
		<contour>
			<point x="88" y="-29" type="line"/>
			<point x="571" y="475" type="line"/>
			<point x="520" y="525" type="line"/>
			<point x="38" y="22" type="line"/>
		</contour>
		<contour>
			<point x="303" y="-16" type="curve" smooth="yes"/>
			<point x="452" y="-16"/>
			<point x="558" y="95"/>
			<point x="558" y="248" type="curve" smooth="yes"/>
			<point x="558" y="402"/>
			<point x="452" y="513"/>
			<point x="303" y="513" type="curve" smooth="yes"/>
			<point x="155" y="513"/>
			<point x="50" y="402"/>
			<point x="50" y="248" type="curve" smooth="yes"/>
			<point x="50" y="95"/>
			<point x="155" y="-16"/>
		</contour>
		<contour>
			<point x="303" y="70" type="curve" smooth="yes"/>
			<point x="214" y="70"/>
			<point x="154" y="143"/>
			<point x="154" y="248" type="curve" smooth="yes"/>
			<point x="154" y="354"/>
			<point x="214" y="427"/>
			<point x="303" y="427" type="curve" smooth="yes"/>
			<point x="394" y="427"/>
			<point x="454" y="354"/>
			<point x="454" y="248" type="curve" smooth="yes"/>
			<point x="454" y="144"/>
			<point x="393" y="70"/>
		</contour>
	</outline>
</glyph>
<glyph name="Hbar" format="2">
	<unicode hex="0126"/>
	<advance width="755"/>
	<outline>
		<contour>
			<point x="718" y="523" type="line"/>
			<point x="718" y="608" type="line"/>
			<point x="37" y="608" type="line"/>
			<point x="37" y="523" type="line"/>
		</contour>
		<contour>
			<point x="553" y="0" type="line"/>
			<point x="656" y="0" type="line"/>
			<point x="656" y="715" type="line"/>
			<point x="553" y="715" type="line"/>
		</contour>
		<contour>
			<point x="202" y="0" type="line"/>
			<point x="202" y="715" type="line"/>
			<point x="99" y="715" type="line"/>
			<point x="99" y="0" type="line"/>
		</contour>
		<contour>
			<point x="192" y="325" type="line"/>
			<point x="562" y="325" type="line"/>
			<point x="562" y="415" type="line"/>
			<point x="192" y="415" type="line"/>
		</contour>
	</outline>
</glyph>
<glyph name="dotlessi" format="2">
	<unicode hex="0131"/>
	<advance width="258"/>
	<outline>
		<contour>
			<point x="179" y="0" type="line"/>
			<point x="179" y="497" type="line"/>
			<point x="79" y="497" type="line"/>
			<point x="79" y="0" type="line"/>
		</contour>
	</outline>
	<anchor name="top.LC" x="129" y="544"/>
	<guideline x="129" y="0" angle="0"/>
	<guideline y="497"/>
</glyph>
<glyph name="Lslash" format="2">
	<unicode hex="0141"/>
	<advance width="577"/>
	<outline>
		<contour>
			<point x="401" y="432" type="line"/>
			<point x="355" y="505" type="line"/>
			<point x="5" y="268" type="line"/>
			<point x="50" y="195" type="line"/>
		</contour>
		<contour>
			<point x="542" y="0" type="line"/>
			<point x="542" y="90" type="line"/>
			<point x="205" y="90" type="line"/>
			<point x="205" y="715" type="line"/>
			<point x="102" y="715" type="line"/>
			<point x="102" y="0" type="line"/>
		</contour>
	</outline>
</glyph>
<glyph name="lslash" format="2">
	<unicode hex="0142"/>
	<advance width="316"/>
	<outline>
		<contour>
			<point x="199" y="0" type="line"/>
			<point x="199" y="720" type="line"/>
			<point x="99" y="720" type="line"/>
			<point x="99" y="0" type="line"/>
		</contour>
		<contour>
			<point x="318" y="439" type="line"/>
			<point x="281" y="501" type="line"/>
			<point x="-2" y="313" type="line"/>
			<point x="35" y="251" type="line"/>
		</contour>
	</outline>
</glyph>
<glyph name="Eng" format="2">
	<unicode hex="014A"/>
	<advance width="762"/>
	<outline>
		<contour>
			<point x="246" y="-146" type="line"/>
			<point x="286" y="-183"/>
			<point x="348" y="-204"/>
			<point x="420" y="-204" type="curve" smooth="yes"/>
			<point x="578" y="-204"/>
			<point x="664" y="-107"/>
			<point x="664" y="76" type="curve" smooth="yes"/>
			<point x="664" y="715" type="line"/>
			<point x="564" y="715" type="line"/>
			<point x="564" y="76" type="line" smooth="yes"/>
			<point x="564" y="-50"/>
			<point x="515" y="-112"/>
			<point x="420" y="-112" type="curve" smooth="yes"/>
			<point x="374" y="-112"/>
			<point x="333" y="-97"/>
			<point x="302" y="-66" type="curve"/>
		</contour>
		<contour>
			<point x="199" y="0" type="line"/>
			<point x="199" y="611" type="line"/>
			<point x="165" y="611" type="line"/>
			<point x="577" y="-20" type="line"/>
			<point x="601" y="113" type="line"/>
			<point x="208" y="715" type="line"/>
			<point x="99" y="715" type="line"/>
			<point x="99" y="0" type="line"/>
		</contour>
	</outline>
</glyph>
<glyph name="OE" format="2">
	<unicode hex="0152"/>
	<advance width="1167"/>
	<outline>
		<contour>
			<point x="409" y="-16" type="curve" smooth="yes"/>
			<point x="602" y="-16"/>
			<point x="740" y="143"/>
			<point x="740" y="358" type="curve" smooth="yes"/>
			<point x="740" y="572"/>
			<point x="602" y="731"/>
			<point x="409" y="731" type="curve" smooth="yes"/>
			<point x="210" y="731"/>
			<point x="60" y="572"/>
			<point x="60" y="358" type="curve" smooth="yes"/>
			<point x="60" y="143"/>
			<point x="210" y="-16"/>
		</contour>
		<contour>
			<point x="414" y="77" type="curve" smooth="yes"/>
			<point x="269" y="77"/>
			<point x="168" y="195"/>
			<point x="168" y="358" type="curve" smooth="yes"/>
			<point x="168" y="520"/>
			<point x="269" y="638"/>
			<point x="414" y="638" type="curve" smooth="yes"/>
			<point x="559" y="638"/>
			<point x="660" y="520"/>
			<point x="660" y="358" type="curve" smooth="yes"/>
			<point x="660" y="195"/>
			<point x="559" y="77"/>
		</contour>
		<contour>
			<point x="1120" y="0" type="line"/>
			<point x="1120" y="89" type="line"/>
			<point x="763" y="89" type="line"/>
			<point x="763" y="626" type="line"/>
			<point x="1120" y="626" type="line"/>
			<point x="1120" y="715" type="line"/>
			<point x="660" y="715" type="line"/>
			<point x="660" y="0" type="line"/>
		</contour>
		<contour>
			<point x="1102" y="320" type="line"/>
			<point x="1102" y="409" type="line"/>
			<point x="753" y="409" type="line"/>
			<point x="753" y="320" type="line"/>
		</contour>
	</outline>
</glyph>
<glyph name="Tbar" format="2">
	<unicode hex="0166"/>
	<advance width="606"/>
	<outline>
		<contour>
			<point x="502" y="320" type="line"/>
			<point x="502" y="408" type="line"/>
			<point x="105" y="408" type="line"/>
			<point x="105" y="320" type="line"/>
		</contour>
		<contour>
			<point x="355" y="0" type="line"/>
			<point x="355" y="635" type="line"/>
			<point x="252" y="635" type="line"/>
			<point x="252" y="0" type="line"/>
		</contour>
		<contour>
			<point x="571" y="625" type="line"/>
			<point x="571" y="715" type="line"/>
			<point x="36" y="715" type="line"/>
			<point x="36" y="625" type="line"/>
		</contour>
	</outline>
</glyph>
<glyph name="tbar" format="2">
	<unicode hex="0167"/>
	<advance width="389"/>
	<outline>
		<contour>
			<point x="351" y="0" type="line"/>
			<point x="351" y="84" type="line"/>
			<point x="268" y="84" type="line" smooth="yes"/>
			<point x="235" y="84"/>
			<point x="220" y="102"/>
			<point x="220" y="135" type="curve" smooth="yes"/>
			<point x="220" y="636" type="line"/>
			<point x="120" y="636" type="line"/>
			<point x="120" y="122" type="line" smooth="yes"/>
			<point x="120" y="42"/>
			<point x="160" y="0"/>
			<point x="238" y="0" type="curve" smooth="yes"/>
		</contour>
		<contour>
			<point x="345" y="413" type="line"/>
			<point x="345" y="497" type="line"/>
			<point x="32" y="497" type="line"/>
			<point x="32" y="413" type="line"/>
		</contour>
		<contour>
			<point x="345" y="235" type="line"/>
			<point x="345" y="314" type="line"/>
			<point x="32" y="314" type="line"/>
			<point x="32" y="235" type="line"/>
		</contour>
	</outline>
</glyph>
<glyph name="Ohorn" format="2">
	<unicode hex="01A0"/>
	<advance width="831"/>
	<outline>
		<contour>
			<point x="415" y="-16" type="curve" smooth="yes"/>
			<point x="618" y="-16"/>
			<point x="768" y="143"/>
			<point x="768" y="357" type="curve" smooth="yes"/>
			<point x="768" y="477"/>
			<point x="721" y="584"/>
			<point x="635" y="654" type="curve"/>
			<point x="619" y="647" type="line"/>
			<point x="624" y="646"/>
			<point x="634" y="644"/>
			<point x="646" y="644" type="curve" smooth="yes"/>
			<point x="748" y="644"/>
			<point x="815" y="703"/>
			<point x="815" y="818" type="curve" smooth="yes"/>
			<point x="815" y="865" type="line"/>
			<point x="723" y="865" type="line"/>
			<point x="723" y="809" type="line" smooth="yes"/>
			<point x="723" y="746"/>
			<point x="690" y="715"/>
			<point x="586" y="715" type="curve" smooth="yes"/>
			<point x="566" y="715"/>
			<point x="533" y="717"/>
			<point x="491" y="724" type="curve" smooth="yes"/>
			<point x="468" y="728"/>
			<point x="442" y="731"/>
			<point x="416" y="731" type="curve" smooth="yes"/>
			<point x="210" y="731"/>
			<point x="60" y="572"/>
			<point x="60" y="358" type="curve" smooth="yes"/>
			<point x="60" y="143"/>
			<point x="211" y="-16"/>
		</contour>
		<contour>
			<point x="415" y="77" type="curve" smooth="yes"/>
			<point x="271" y="77"/>
			<point x="168" y="194"/>
			<point x="168" y="358" type="curve" smooth="yes"/>
			<point x="168" y="522"/>
			<point x="271" y="638"/>
			<point x="415" y="638" type="curve" smooth="yes"/>
			<point x="558" y="638"/>
			<point x="661" y="522"/>
			<point x="661" y="358" type="curve" smooth="yes"/>
			<point x="661" y="194"/>
			<point x="558" y="77"/>
		</contour>
	</outline>
	<anchor name="bottom.UC" x="414" y="-50"/>
	<anchor name="top.UC" x="414" y="750"/>
</glyph>
<glyph name="Uhorn" format="2">
	<unicode hex="01AF"/>
	<advance width="751"/>
	<outline>
		<contour>
			<point x="365" y="-16" type="curve" smooth="yes"/>
			<point x="538" y="-16"/>
			<point x="643" y="94"/>
			<point x="643" y="282" type="curve" smooth="yes"/>
			<point x="643" y="655" type="line"/>
			<point x="629" y="643" type="line"/>
			<point x="746" y="645"/>
			<point x="808" y="704"/>
			<point x="808" y="818" type="curve" smooth="yes"/>
			<point x="808" y="865" type="line"/>
			<point x="715" y="865" type="line"/>
			<point x="715" y="809" type="line" smooth="yes"/>
			<point x="715" y="746"/>
			<point x="683" y="715"/>
			<point x="621" y="715" type="curve" smooth="yes"/>
			<point x="541" y="715" type="line"/>
			<point x="541" y="282" type="line" smooth="yes"/>
			<point x="541" y="152"/>
			<point x="476" y="77"/>
			<point x="365" y="77" type="curve" smooth="yes"/>
			<point x="254" y="77"/>
			<point x="189" y="152"/>
			<point x="189" y="282" type="curve" smooth="yes"/>
			<point x="189" y="715" type="line"/>
			<point x="86" y="715" type="line"/>
			<point x="86" y="282" type="line" smooth="yes"/>
			<point x="86" y="94"/>
			<point x="191" y="-16"/>
		</contour>
	</outline>
	<anchor name="bottom.UC" x="365" y="-50"/>
	<anchor name="top.UC" x="365" y="750"/>
</glyph>
<glyph name="uhorn" format="2">
	<unicode hex="01B0"/>
	<advance width="639"/>
	<outline>
		<contour>
			<point x="422" y="212" type="line"/>
			<point x="413" y="127"/>
			<point x="352" y="69"/>
			<point x="280" y="69" type="curve" smooth="yes"/>
			<point x="213" y="69"/>
			<point x="173" y="115"/>
			<point x="173" y="200" type="curve" smooth="yes"/>
			<point x="173" y="497" type="line"/>
			<point x="73" y="497" type="line"/>
			<point x="73" y="190" type="line" smooth="yes"/>
			<point x="73" y="56"/>
			<point x="144" y="-16"/>
			<point x="254" y="-16" type="curve" smooth="yes"/>
			<point x="368" y="-16"/>
			<point x="447" y="70"/>
			<point x="442" y="192" type="curve"/>
		</contour>
		<contour>
			<point x="415" y="0" type="line"/>
			<point x="514" y="0" type="line"/>
			<point x="514" y="439" type="line"/>
			<point x="498" y="425" type="line"/>
			<point x="610" y="430"/>
			<point x="659" y="479"/>
			<point x="659" y="578" type="curve" smooth="yes"/>
			<point x="659" y="616" type="line"/>
			<point x="571" y="616" type="line"/>
			<point x="571" y="572" type="line" smooth="yes"/>
			<point x="571" y="521"/>
			<point x="547" y="497"/>
			<point x="487" y="497" type="curve" smooth="yes"/>
			<point x="414" y="497" type="line"/>
			<point x="414" y="124" type="line"/>
			<point x="415" y="96" type="line"/>
		</contour>
	</outline>
	<anchor name="bottom.LC" x="286" y="-50"/>
	<anchor name="top.LC" x="286" y="544"/>
</glyph>
<glyph name="dotlessj" format="2">
	<unicode hex="0237"/>
	<advance width="258"/>
	<outline>
		<contour>
			<point x="-8" y="-194" type="line"/>
			<point x="56" y="-194" type="line" smooth="yes"/>
			<point x="139" y="-194"/>
			<point x="179" y="-152"/>
			<point x="179" y="-65" type="curve" smooth="yes"/>
			<point x="179" y="497" type="line"/>
			<point x="79" y="497" type="line"/>
			<point x="79" y="-51" type="line" smooth="yes"/>
			<point x="79" y="-92"/>
			<point x="65" y="-111"/>
			<point x="25" y="-111" type="curve" smooth="yes"/>
			<point x="-8" y="-111" type="line"/>
		</contour>
	</outline>
	<anchor name="top.LC" x="130" y="544"/>
</glyph>
<glyph name="gravecomb" format="2">
	<unicode hex="0300"/>
	<outline>
		<contour>
			<point x="-28" y="587" type="line"/>
			<point x="57" y="587" type="line"/>
			<point x="-51" y="761" type="line"/>
			<point x="-163" y="761" type="line"/>
		</contour>
	</outline>
	<anchor name="_top.LC" x="0" y="544"/>
</glyph>
<glyph name="acutecomb" format="2">
	<unicode hex="0301"/>
	<outline>
		<contour>
			<point x="163" y="761" type="line"/>
			<point x="52" y="761" type="line"/>
			<point x="-57" y="587" type="line"/>
			<point x="29" y="587" type="line"/>
		</contour>
	</outline>
	<anchor name="_top.LC" x="0" y="544"/>
</glyph>
<glyph name="circumflexcomb" format="2">
	<unicode hex="0302"/>
	<outline>
		<contour>
			<point x="168" y="587" type="line"/>
			<point x="50" y="761" type="line"/>
			<point x="-51" y="761" type="line"/>
			<point x="-169" y="587" type="line"/>
			<point x="-80" y="587" type="line"/>
			<point x="38" y="745" type="line"/>
			<point x="-42" y="745" type="line"/>
			<point x="77" y="587" type="line"/>
		</contour>
	</outline>
	<anchor name="_top.LC" x="0" y="544"/>
</glyph>
<glyph name="dotaccentcomb" format="2">
	<unicode hex="0307"/>
	<outline>
		<contour>
			<point x="0" y="610" type="curve" smooth="yes"/>
			<point x="35" y="610"/>
			<point x="63" y="638"/>
			<point x="63" y="673" type="curve" smooth="yes"/>
			<point x="63" y="708"/>
			<point x="35" y="736"/>
			<point x="0" y="736" type="curve" smooth="yes"/>
			<point x="-36" y="736"/>
			<point x="-63" y="708"/>
			<point x="-63" y="673" type="curve" smooth="yes"/>
			<point x="-63" y="638"/>
			<point x="-36" y="610"/>
		</contour>
	</outline>
	<anchor name="_top.LC" x="0" y="544"/>
</glyph>
<glyph name="dieresiscomb" format="2">
	<unicode hex="0308"/>
	<outline>
		<contour>
			<point x="102" y="610" type="curve" smooth="yes"/>
			<point x="138" y="610"/>
			<point x="166" y="638"/>
			<point x="166" y="673" type="curve" smooth="yes"/>
			<point x="166" y="708"/>
			<point x="138" y="736"/>
			<point x="102" y="736" type="curve" smooth="yes"/>
			<point x="67" y="736"/>
			<point x="39" y="708"/>
			<point x="39" y="673" type="curve" smooth="yes"/>
			<point x="39" y="638"/>
			<point x="67" y="610"/>
		</contour>
		<contour>
			<point x="-101" y="610" type="curve" smooth="yes"/>
			<point x="-66" y="610"/>
			<point x="-38" y="638"/>
			<point x="-38" y="673" type="curve" smooth="yes"/>
			<point x="-38" y="708"/>
			<point x="-66" y="736"/>
			<point x="-101" y="736" type="curve" smooth="yes"/>
			<point x="-137" y="736"/>
			<point x="-165" y="708"/>
			<point x="-165" y="673" type="curve" smooth="yes"/>
			<point x="-165" y="638"/>
			<point x="-137" y="610"/>
		</contour>
	</outline>
	<anchor name="_top.LC" x="0" y="544"/>
</glyph>
<glyph name="ringcomb" format="2">
	<unicode hex="030A"/>
	<outline>
		<contour>
			<point x="111" y="675" type="curve" smooth="yes"/>
			<point x="111" y="739"/>
			<point x="62" y="788"/>
			<point x="0" y="788" type="curve" smooth="yes"/>
			<point x="-62" y="788"/>
			<point x="-111" y="739"/>
			<point x="-111" y="675" type="curve" smooth="yes"/>
			<point x="-111" y="612"/>
			<point x="-62" y="562"/>
			<point x="0" y="562" type="curve" smooth="yes"/>
			<point x="62" y="562"/>
			<point x="111" y="612"/>
		</contour>
		<contour>
			<point x="49" y="675" type="curve" smooth="yes"/>
			<point x="49" y="644"/>
			<point x="27" y="620"/>
			<point x="0" y="620" type="curve" smooth="yes"/>
			<point x="-27" y="620"/>
			<point x="-50" y="644"/>
			<point x="-50" y="675" type="curve" smooth="yes"/>
			<point x="-50" y="705"/>
			<point x="-27" y="729"/>
			<point x="0" y="729" type="curve" smooth="yes"/>
			<point x="27" y="729"/>
			<point x="49" y="705"/>
		</contour>
	</outline>
	<anchor name="_top.LC" x="0" y="544"/>
</glyph>
<glyph name="hungarumlautcomb" format="2">
	<unicode hex="030B"/>
	<outline>
		<contour>
			<point x="97" y="761" type="line"/>
			<point x="-15" y="761" type="line"/>
			<point x="-147" y="587" type="line"/>
			<point x="-58" y="587" type="line"/>
		</contour>
		<contour>
			<point x="280" y="761" type="line"/>
			<point x="169" y="761" type="line"/>
			<point x="27" y="587" type="line"/>
			<point x="116" y="587" type="line"/>
		</contour>
	</outline>
	<anchor name="_top.LC" x="0" y="544"/>
</glyph>
<glyph name="caroncomb" format="2">
	<unicode hex="030C"/>
	<outline>
		<contour>
			<point x="-169" y="761" type="line"/>
			<point x="-51" y="587" type="line"/>
			<point x="50" y="587" type="line"/>
			<point x="168" y="761" type="line"/>
			<point x="80" y="761" type="line"/>
			<point x="-39" y="603" type="line"/>
			<point x="41" y="603" type="line"/>
			<point x="-77" y="761" type="line"/>
		</contour>
	</outline>
	<anchor name="_top.LC" x="0" y="544"/>
</glyph>
<glyph name="commaturnedabovecomb" format="2">
	<unicode hex="0312"/>
	<outline>
		<contour>
			<point x="2" y="773" type="line"/>
			<point x="-28" y="736"/>
			<point x="-54" y="681"/>
			<point x="-54" y="639" type="curve" smooth="yes"/>
			<point x="-54" y="604"/>
			<point x="-31" y="578"/>
			<point x="2" y="578" type="curve" smooth="yes"/>
			<point x="31" y="578"/>
			<point x="55" y="601"/>
			<point x="55" y="630" type="curve" smooth="yes"/>
			<point x="55" y="660"/>
			<point x="29" y="683"/>
			<point x="-2" y="683" type="curve"/>
			<point x="15" y="663" type="line"/>
			<point x="13" y="691"/>
			<point x="32" y="736"/>
			<point x="59" y="773" type="curve"/>
		</contour>
	</outline>
	<anchor name="_top.LC" x="0" y="544"/>
</glyph>
<glyph name="commaaboverightcomb" format="2">
	<unicode hex="0315"/>
	<outline>
		<contour>
			<point x="0" y="509" type="line"/>
			<point x="33" y="550"/>
			<point x="63" y="616"/>
			<point x="63" y="662" type="curve" smooth="yes"/>
			<point x="63" y="703"/>
			<point x="38" y="731"/>
			<point x="2" y="731" type="curve" smooth="yes"/>
			<point x="-29" y="731"/>
			<point x="-54" y="705"/>
			<point x="-54" y="673" type="curve" smooth="yes"/>
			<point x="-54" y="640"/>
			<point x="-28" y="615"/>
			<point x="5" y="615" type="curve"/>
			<point x="-8" y="633" type="line"/>
			<point x="-6" y="601"/>
			<point x="-25" y="549"/>
			<point x="-56" y="509" type="curve"/>
		</contour>
	</outline>
	<anchor name="_top_right" x="0" y="540"/>
</glyph>
<glyph name="horncomb" format="2">
	<unicode hex="031B"/>
	<outline>
		<contour>
			<point x="0" y="425" type="line"/>
			<point x="39" y="425" type="line" smooth="yes"/>
			<point x="163" y="425"/>
			<point x="217" y="474"/>
			<point x="217" y="578" type="curve" smooth="yes"/>
			<point x="217" y="616" type="line"/>
			<point x="130" y="616" type="line"/>
			<point x="130" y="572" type="line" smooth="yes"/>
			<point x="130" y="521"/>
			<point x="106" y="497"/>
			<point x="45" y="497" type="curve" smooth="yes"/>
			<point x="0" y="497" type="line"/>
		</contour>
	</outline>
	<anchor name="_topright.LC" x="0" y="544"/>
</glyph>
<glyph name="dotbelowcomb" format="2">
	<unicode hex="0323"/>
	<outline>
		<contour>
			<point x="0" y="-242" type="curve" smooth="yes"/>
			<point x="35" y="-242"/>
			<point x="63" y="-214"/>
			<point x="63" y="-180" type="curve" smooth="yes"/>
			<point x="63" y="-144"/>
			<point x="35" y="-116"/>
			<point x="0" y="-116" type="curve" smooth="yes"/>
			<point x="-36" y="-116"/>
			<point x="-63" y="-144"/>
			<point x="-63" y="-180" type="curve" smooth="yes"/>
			<point x="-63" y="-214"/>
			<point x="-36" y="-242"/>
		</contour>
	</outline>
	<anchor name="_bottom.LC" x="0" y="-50"/>
</glyph>
<glyph name="commabelowcomb" format="2">
	<unicode hex="0326"/>
	<outline>
		<contour>
			<point x="-4" y="-280" type="line"/>
			<point x="26" y="-243"/>
			<point x="53" y="-188"/>
			<point x="53" y="-146" type="curve" smooth="yes"/>
			<point x="53" y="-111"/>
			<point x="29" y="-85"/>
			<point x="-4" y="-85" type="curve" smooth="yes"/>
			<point x="-33" y="-85"/>
			<point x="-56" y="-108"/>
			<point x="-56" y="-137" type="curve" smooth="yes"/>
			<point x="-56" y="-167"/>
			<point x="-31" y="-190"/>
			<point x="1" y="-190" type="curve"/>
			<point x="-17" y="-170" type="line"/>
			<point x="-15" y="-198"/>
			<point x="-34" y="-243"/>
			<point x="-60" y="-280" type="curve"/>
		</contour>
	</outline>
	<anchor name="_bottom.LC" x="0" y="-50"/>
</glyph>
<glyph name="ogonekcomb" format="2">
	<unicode hex="0328"/>
	<outline>
		<contour>
			<point x="110" y="-171" type="line"/>
			<point x="99" y="-174"/>
			<point x="88" y="-175"/>
			<point x="81" y="-175" type="curve" smooth="yes"/>
			<point x="47" y="-175"/>
			<point x="21" y="-157"/>
			<point x="21" y="-119" type="curve" smooth="yes"/>
			<point x="21" y="-81"/>
			<point x="47" y="-39"/>
			<point x="110" y="0" type="curve"/>
			<point x="51" y="22" type="line"/>
			<point x="-26" y="-28"/>
			<point x="-60" y="-78"/>
			<point x="-60" y="-137" type="curve" smooth="yes"/>
			<point x="-60" y="-209"/>
			<point x="-4" y="-249"/>
			<point x="68" y="-249" type="curve" smooth="yes"/>
			<point x="82" y="-249"/>
			<point x="96" y="-248"/>
			<point x="110" y="-245" type="curve"/>
		</contour>
	</outline>
	<anchor name="_ogonek.LC" x="0" y="-30"/>
</glyph>
<glyph name="Ieukrain" format="2">
	<unicode hex="0404"/>
	<advance width="721"/>
	<outline>
		<contour>
			<point x="405" y="-16" type="curve" smooth="yes"/>
			<point x="514" y="-16"/>
			<point x="616" y="34"/>
			<point x="676" y="119" type="curve"/>
			<point x="607" y="190" type="line"/>
			<point x="559" y="117"/>
			<point x="490" y="77"/>
			<point x="407" y="77" type="curve" smooth="yes"/>
			<point x="267" y="77"/>
			<point x="163" y="196"/>
			<point x="163" y="357" type="curve" smooth="yes"/>
			<point x="163" y="519"/>
			<point x="267" y="638"/>
			<point x="407" y="638" type="curve" smooth="yes"/>
			<point x="492" y="638"/>
			<point x="560" y="598"/>
			<point x="607" y="524" type="curve"/>
			<point x="676" y="597" type="line"/>
			<point x="615" y="683"/>
			<point x="519" y="731"/>
			<point x="410" y="731" type="curve" smooth="yes"/>
			<point x="209" y="731"/>
			<point x="60" y="571"/>
			<point x="60" y="357" type="curve" smooth="yes"/>
			<point x="60" y="142"/>
			<point x="205" y="-16"/>
		</contour>
		<contour>
			<point x="119" y="325" type="line"/>
			<point x="537" y="325" type="line"/>
			<point x="537" y="415" type="line"/>
			<point x="119" y="415" type="line"/>
		</contour>
	</outline>
</glyph>
<glyph name="Lje" format="2">
	<unicode hex="0409"/>
	<advance width="1065"/>
	<outline>
		<contour>
			<point x="42" y="0" type="line"/>
			<point x="107" y="0" type="line" smooth="yes"/>
			<point x="193" y="0"/>
			<point x="233" y="40"/>
			<point x="244" y="132" type="curve" smooth="yes"/>
			<point x="306" y="659" type="line"/>
			<point x="272" y="625" type="line"/>
			<point x="567" y="625" type="line"/>
			<point x="521" y="670" type="line"/>
			<point x="521" y="0" type="line"/>
			<point x="790" y="0" type="line" smooth="yes"/>
			<point x="929" y="0"/>
			<point x="1021" y="85"/>
			<point x="1021" y="215" type="curve" smooth="yes"/>
			<point x="1021" y="343"/>
			<point x="930" y="427"/>
			<point x="790" y="427" type="curve" smooth="yes"/>
			<point x="571" y="427" type="line"/>
			<point x="571" y="338" type="line"/>
			<point x="790" y="338" type="line" smooth="yes"/>
			<point x="868" y="338"/>
			<point x="916" y="291"/>
			<point x="916" y="215" type="curve" smooth="yes"/>
			<point x="916" y="136"/>
			<point x="868" y="89"/>
			<point x="790" y="89" type="curve" smooth="yes"/>
			<point x="580" y="89" type="line"/>
			<point x="624" y="45" type="line"/>
			<point x="624" y="715" type="line"/>
			<point x="210" y="715" type="line"/>
			<point x="145" y="142" type="line" smooth="yes"/>
			<point x="141" y="105"/>
			<point x="125" y="90"/>
			<point x="94" y="90" type="curve" smooth="yes"/>
			<point x="42" y="90" type="line"/>
		</contour>
	</outline>
</glyph>
<glyph name="Tshe" format="2">
	<unicode hex="040B"/>
	<advance width="706"/>
	<outline>
		<contour>
			<point x="14" y="625" type="line"/>
			<point x="509" y="625" type="line"/>
			<point x="509" y="715" type="line"/>
			<point x="14" y="715" type="line"/>
		</contour>
		<contour>
			<point x="554" y="1" type="line"/>
			<point x="657" y="1" type="line"/>
			<point x="657" y="227" type="line" smooth="yes"/>
			<point x="657" y="368"/>
			<point x="572" y="445"/>
			<point x="421" y="445" type="curve" smooth="yes"/>
			<point x="334" y="445"/>
			<point x="257" y="422"/>
			<point x="199" y="378" type="curve"/>
			<point x="227" y="303" type="line"/>
			<point x="278" y="335"/>
			<point x="345" y="354"/>
			<point x="405" y="354" type="curve" smooth="yes"/>
			<point x="501" y="354"/>
			<point x="554" y="304"/>
			<point x="554" y="215" type="curve" smooth="yes"/>
		</contour>
		<contour>
			<point x="145" y="0" type="line"/>
			<point x="248" y="0" type="line"/>
			<point x="248" y="670" type="line"/>
			<point x="145" y="670" type="line"/>
		</contour>
	</outline>
</glyph>
<glyph name="Dzhe" format="2">
	<unicode hex="040F"/>
	<advance width="746"/>
	<outline>
		<contour>
			<point x="99" y="0" type="line"/>
			<point x="647" y="0" type="line"/>
			<point x="647" y="715" type="line"/>
			<point x="544" y="715" type="line"/>
			<point x="544" y="65" type="line"/>
			<point x="569" y="90" type="line"/>
			<point x="177" y="90" type="line"/>
			<point x="202" y="65" type="line"/>
			<point x="202" y="715" type="line"/>
			<point x="99" y="715" type="line"/>
		</contour>
		<contour>
			<point x="324" y="-174" type="line"/>
			<point x="422" y="-174" type="line"/>
			<point x="422" y="55" type="line"/>
			<point x="324" y="55" type="line"/>
		</contour>
	</outline>
</glyph>
<glyph name="Be" format="2">
	<unicode hex="0411"/>
	<advance width="655"/>
	<outline>
		<contour>
			<point x="99" y="0" type="line"/>
			<point x="377" y="0" type="line" smooth="yes"/>
			<point x="517" y="0"/>
			<point x="609" y="84"/>
			<point x="609" y="209" type="curve" smooth="yes"/>
			<point x="609" y="335"/>
			<point x="518" y="417"/>
			<point x="377" y="417" type="curve" smooth="yes"/>
			<point x="155" y="417" type="line"/>
			<point x="155" y="329" type="line"/>
			<point x="378" y="329" type="line" smooth="yes"/>
			<point x="456" y="329"/>
			<point x="504" y="285"/>
			<point x="504" y="209" type="curve" smooth="yes"/>
			<point x="504" y="133"/>
			<point x="456" y="88"/>
			<point x="378" y="88" type="curve" smooth="yes"/>
			<point x="177" y="88" type="line"/>
			<point x="202" y="63" type="line"/>
			<point x="202" y="650" type="line"/>
			<point x="177" y="626" type="line"/>
			<point x="558" y="626" type="line"/>
			<point x="558" y="715" type="line"/>
			<point x="99" y="715" type="line"/>
		</contour>
	</outline>
</glyph>
<glyph name="Ghe" format="2">
	<unicode hex="0413"/>
	<advance width="540"/>
	<outline>
		<contour>
			<point x="99" y="0" type="line"/>
			<point x="202" y="0" type="line"/>
			<point x="202" y="668" type="line"/>
			<point x="157" y="625" type="line"/>
			<point x="525" y="625" type="line"/>
			<point x="525" y="715" type="line"/>
			<point x="99" y="715" type="line"/>
		</contour>
	</outline>
	<anchor name="top.UC" x="318" y="750"/>
</glyph>
<glyph name="De" format="2">
	<unicode hex="0414"/>
	<advance width="782"/>
	<outline>
		<contour>
			<point x="42" y="-174" type="line"/>
			<point x="141" y="-174" type="line"/>
			<point x="141" y="25" type="line"/>
			<point x="116" y="0" type="line"/>
			<point x="652" y="0" type="line"/>
			<point x="627" y="25" type="line"/>
			<point x="627" y="-174" type="line"/>
			<point x="725" y="-174" type="line"/>
			<point x="725" y="90" type="line"/>
			<point x="202" y="90" type="line"/>
			<point x="210" y="72" type="line"/>
			<point x="245" y="102"/>
			<point x="260" y="157"/>
			<point x="269" y="232" type="curve" smooth="yes"/>
			<point x="316" y="650" type="line"/>
			<point x="288" y="625" type="line"/>
			<point x="574" y="625" type="line"/>
			<point x="549" y="650" type="line"/>
			<point x="549" y="65" type="line"/>
			<point x="651" y="65" type="line"/>
			<point x="651" y="715" type="line"/>
			<point x="223" y="715" type="line"/>
			<point x="172" y="245" type="line" smooth="yes"/>
			<point x="161" y="144"/>
			<point x="143" y="91"/>
			<point x="110" y="90" type="curve"/>
			<point x="42" y="90" type="line"/>
		</contour>
	</outline>
</glyph>
<glyph name="Zhe" format="2">
	<unicode hex="0416"/>
	<advance width="1015"/>
	<outline>
		<contour>
			<point x="29" y="0" type="line"/>
			<point x="163" y="0" type="line"/>
			<point x="484" y="372" type="line"/>
			<point x="469" y="372" type="line"/>
			<point x="178" y="715" type="line"/>
			<point x="51" y="715" type="line"/>
			<point x="352" y="370" type="line"/>
		</contour>
		<contour>
			<point x="456" y="0" type="line"/>
			<point x="559" y="0" type="line"/>
			<point x="559" y="715" type="line"/>
			<point x="456" y="715" type="line"/>
		</contour>
		<contour>
			<point x="853" y="0" type="line"/>
			<point x="987" y="0" type="line"/>
			<point x="664" y="370" type="line"/>
			<point x="964" y="715" type="line"/>
			<point x="837" y="715" type="line"/>
			<point x="547" y="372" type="line"/>
			<point x="532" y="372" type="line"/>
		</contour>
	</outline>
</glyph>
<glyph name="Ze" format="2">
	<unicode hex="0417"/>
	<advance width="644"/>
	<outline>
		<contour>
			<point x="317" y="-16" type="curve" smooth="yes"/>
			<point x="471" y="-16"/>
			<point x="581" y="74"/>
			<point x="581" y="204" type="curve" smooth="yes"/>
			<point x="581" y="292"/>
			<point x="524" y="361"/>
			<point x="427" y="385" type="curve"/>
			<point x="427" y="369" type="line"/>
			<point x="512" y="393"/>
			<point x="562" y="459"/>
			<point x="562" y="538" type="curve" smooth="yes"/>
			<point x="562" y="652"/>
			<point x="463" y="731"/>
			<point x="316" y="731" type="curve" smooth="yes"/>
			<point x="205" y="731"/>
			<point x="122" y="690"/>
			<point x="54" y="599" type="curve"/>
			<point x="122" y="533" type="line"/>
			<point x="171" y="607"/>
			<point x="231" y="639"/>
			<point x="312" y="639" type="curve" smooth="yes"/>
			<point x="403" y="639"/>
			<point x="458" y="596"/>
			<point x="458" y="527" type="curve" smooth="yes"/>
			<point x="458" y="459"/>
			<point x="405" y="415"/>
			<point x="325" y="415" type="curve" smooth="yes"/>
			<point x="186" y="415" type="line"/>
			<point x="186" y="326" type="line"/>
			<point x="325" y="326" type="line" smooth="yes"/>
			<point x="418" y="326"/>
			<point x="477" y="282"/>
			<point x="477" y="209" type="curve" smooth="yes"/>
			<point x="477" y="127"/>
			<point x="414" y="76"/>
			<point x="315" y="76" type="curve" smooth="yes"/>
			<point x="227" y="76"/>
			<point x="155" y="112"/>
			<point x="106" y="186" type="curve"/>
			<point x="38" y="115" type="line"/>
			<point x="106" y="27"/>
			<point x="196" y="-16"/>
		</contour>
	</outline>
</glyph>
<glyph name="Icyr" format="2">
	<unicode hex="0418"/>
	<advance width="755"/>
	<outline>
		<contour>
			<point x="99" y="0" type="line"/>
			<point x="207" y="0" type="line"/>
			<point x="593" y="622" type="line"/>
			<point x="553" y="624" type="line"/>
			<point x="553" y="0" type="line"/>
			<point x="656" y="0" type="line"/>
			<point x="656" y="715" type="line"/>
			<point x="545" y="715" type="line"/>
			<point x="157" y="90" type="line"/>
			<point x="202" y="84" type="line"/>
			<point x="202" y="715" type="line"/>
			<point x="99" y="715" type="line"/>
		</contour>
	</outline>
	<anchor name="top.UC" x="382" y="750"/>
</glyph>
<glyph name="El" format="2">
	<unicode hex="041B"/>
	<advance width="733"/>
	<outline>
		<contour>
			<point x="42" y="0" type="line"/>
			<point x="107" y="0" type="line" smooth="yes"/>
			<point x="191" y="0"/>
			<point x="232" y="39"/>
			<point x="243" y="132" type="curve" smooth="yes"/>
			<point x="305" y="662" type="line"/>
			<point x="274" y="625" type="line"/>
			<point x="561" y="625" type="line"/>
			<point x="531" y="661" type="line"/>
			<point x="531" y="0" type="line"/>
			<point x="634" y="0" type="line"/>
			<point x="634" y="715" type="line"/>
			<point x="210" y="715" type="line"/>
			<point x="145" y="142" type="line" smooth="yes"/>
			<point x="141" y="105"/>
			<point x="126" y="90"/>
			<point x="95" y="90" type="curve" smooth="yes"/>
			<point x="42" y="90" type="line"/>
		</contour>
	</outline>
</glyph>
<glyph name="Pe" format="2">
	<unicode hex="041F"/>
	<advance width="749"/>
	<outline>
		<contour>
			<point x="99" y="0" type="line"/>
			<point x="202" y="0" type="line"/>
			<point x="202" y="700" type="line"/>
			<point x="143" y="625" type="line"/>
			<point x="604" y="625" type="line"/>
			<point x="548" y="701" type="line"/>
			<point x="548" y="0" type="line"/>
			<point x="651" y="0" type="line"/>
			<point x="651" y="715" type="line"/>
			<point x="99" y="715" type="line"/>
		</contour>
	</outline>
</glyph>
<glyph name="Ucyr" format="2">
	<unicode hex="0423"/>
	<advance width="646"/>
	<outline>
		<contour>
			<point x="78" y="0" type="line"/>
			<point x="165" y="0" type="line" smooth="yes"/>
			<point x="263" y="0"/>
			<point x="311" y="38"/>
			<point x="362" y="149" type="curve" smooth="yes"/>
			<point x="623" y="715" type="line"/>
			<point x="517" y="715" type="line"/>
			<point x="286" y="198" type="line" smooth="yes"/>
			<point x="249" y="114"/>
			<point x="222" y="90"/>
			<point x="162" y="90" type="curve" smooth="yes"/>
			<point x="78" y="90" type="line"/>
		</contour>
		<contour>
			<point x="288" y="158" type="line"/>
			<point x="367" y="207" type="line"/>
			<point x="129" y="715" type="line"/>
			<point x="23" y="715" type="line"/>
		</contour>
	</outline>
	<anchor name="top.UC" x="323" y="750"/>
</glyph>
<glyph name="Ef" format="2">
	<unicode hex="0424"/>
	<advance width="844"/>
	<outline>
		<contour>
			<point x="422" y="73" type="curve" smooth="yes"/>
			<point x="657" y="73"/>
			<point x="785" y="173"/>
			<point x="785" y="358" type="curve" smooth="yes"/>
			<point x="785" y="542"/>
			<point x="656" y="642"/>
			<point x="422" y="642" type="curve" smooth="yes"/>
			<point x="188" y="642"/>
			<point x="59" y="542"/>
			<point x="59" y="358" type="curve" smooth="yes"/>
			<point x="59" y="173"/>
			<point x="187" y="73"/>
		</contour>
		<contour>
			<point x="422" y="162" type="curve" smooth="yes"/>
			<point x="246" y="162"/>
			<point x="163" y="225"/>
			<point x="163" y="358" type="curve" smooth="yes"/>
			<point x="163" y="490"/>
			<point x="247" y="553"/>
			<point x="422" y="553" type="curve" smooth="yes"/>
			<point x="598" y="553"/>
			<point x="681" y="490"/>
			<point x="681" y="358" type="curve" smooth="yes"/>
			<point x="681" y="226"/>
			<point x="596" y="162"/>
		</contour>
		<contour>
			<point x="371" y="-31" type="line"/>
			<point x="473" y="-31" type="line"/>
			<point x="473" y="99" type="line"/>
			<point x="470" y="143" type="line"/>
			<point x="470" y="575" type="line"/>
			<point x="473" y="614" type="line"/>
			<point x="473" y="746" type="line"/>
			<point x="371" y="746" type="line"/>
			<point x="371" y="614" type="line"/>
			<point x="374" y="575" type="line"/>
			<point x="374" y="143" type="line"/>
			<point x="371" y="99" type="line"/>
		</contour>
	</outline>
</glyph>
<glyph name="Tse" format="2">
	<unicode hex="0426"/>
	<advance width="779"/>
	<outline>
		<contour>
			<point x="648" y="56" type="line"/>
			<point x="648" y="715" type="line"/>
			<point x="545" y="715" type="line"/>
			<point x="545" y="56" type="line"/>
		</contour>
		<contour>
			<point x="624" y="-174" type="line"/>
			<point x="722" y="-174" type="line"/>
			<point x="722" y="90" type="line"/>
			<point x="177" y="90" type="line"/>
			<point x="202" y="65" type="line"/>
			<point x="202" y="715" type="line"/>
			<point x="99" y="715" type="line"/>
			<point x="99" y="0" type="line"/>
			<point x="649" y="0" type="line"/>
			<point x="624" y="25" type="line"/>
		</contour>
	</outline>
</glyph>
<glyph name="Che" format="2">
	<unicode hex="0427"/>
	<advance width="666"/>
	<outline>
		<contour>
			<point x="464" y="0" type="line"/>
			<point x="567" y="0" type="line"/>
			<point x="567" y="715" type="line"/>
			<point x="464" y="715" type="line"/>
		</contour>
		<contour>
			<point x="295" y="261" type="curve" smooth="yes"/>
			<point x="383" y="261"/>
			<point x="458" y="288"/>
			<point x="513" y="342" type="curve"/>
			<point x="481" y="408" type="line"/>
			<point x="436" y="373"/>
			<point x="370" y="352"/>
			<point x="308" y="352" type="curve" smooth="yes"/>
			<point x="212" y="352"/>
			<point x="159" y="403"/>
			<point x="159" y="495" type="curve" smooth="yes"/>
			<point x="159" y="715" type="line"/>
			<point x="56" y="715" type="line"/>
			<point x="56" y="484" type="line" smooth="yes"/>
			<point x="56" y="341"/>
			<point x="143" y="261"/>
		</contour>
	</outline>
</glyph>
<glyph name="Sha" format="2">
	<unicode hex="0428"/>
	<advance width="1080"/>
	<outline>
		<contour>
			<point x="99" y="0" type="line"/>
			<point x="982" y="0" type="line"/>
			<point x="982" y="715" type="line"/>
			<point x="879" y="715" type="line"/>
			<point x="879" y="49" type="line"/>
			<point x="913" y="90" type="line"/>
			<point x="547" y="90" type="line"/>
			<point x="591" y="49" type="line"/>
			<point x="591" y="715" type="line"/>
			<point x="488" y="715" type="line"/>
			<point x="488" y="49" type="line"/>
			<point x="534" y="90" type="line"/>
			<point x="168" y="90" type="line"/>
			<point x="202" y="49" type="line"/>
			<point x="202" y="715" type="line"/>
			<point x="99" y="715" type="line"/>
		</contour>
	</outline>
</glyph>
<glyph name="Shcha" format="2">
	<unicode hex="0429"/>
	<advance width="1113"/>
	<outline>
		<contour>
			<point x="591" y="50" type="line"/>
			<point x="591" y="715" type="line"/>
			<point x="488" y="715" type="line"/>
			<point x="488" y="50" type="line"/>
		</contour>
		<contour>
			<point x="982" y="53" type="line"/>
			<point x="982" y="715" type="line"/>
			<point x="879" y="715" type="line"/>
			<point x="879" y="53" type="line"/>
		</contour>
		<contour>
			<point x="957" y="-174" type="line"/>
			<point x="1056" y="-174" type="line"/>
			<point x="1056" y="90" type="line"/>
			<point x="177" y="90" type="line"/>
			<point x="202" y="65" type="line"/>
			<point x="202" y="715" type="line"/>
			<point x="99" y="715" type="line"/>
			<point x="99" y="0" type="line"/>
			<point x="982" y="0" type="line"/>
			<point x="957" y="25" type="line"/>
		</contour>
	</outline>
</glyph>
<glyph name="Hard" format="2">
	<unicode hex="042A"/>
	<advance width="699"/>
	<outline>
		<contour>
			<point x="145" y="0" type="line"/>
			<point x="424" y="0" type="line" smooth="yes"/>
			<point x="564" y="0"/>
			<point x="655" y="85"/>
			<point x="655" y="213" type="curve" smooth="yes"/>
			<point x="655" y="342"/>
			<point x="565" y="427"/>
			<point x="424" y="427" type="curve" smooth="yes"/>
			<point x="204" y="427" type="line"/>
			<point x="204" y="338" type="line"/>
			<point x="424" y="338" type="line" smooth="yes"/>
			<point x="502" y="338"/>
			<point x="550" y="291"/>
			<point x="550" y="213" type="curve" smooth="yes"/>
			<point x="550" y="136"/>
			<point x="502" y="89"/>
			<point x="424" y="89" type="curve" smooth="yes"/>
			<point x="223" y="89" type="line"/>
			<point x="248" y="64" type="line"/>
			<point x="248" y="715" type="line"/>
			<point x="14" y="715" type="line"/>
			<point x="14" y="625" type="line"/>
			<point x="170" y="625" type="line"/>
			<point x="145" y="650" type="line"/>
		</contour>
	</outline>
</glyph>
<glyph name="Soft" format="2">
	<unicode hex="042C"/>
	<advance width="653"/>
	<outline>
		<contour>
			<point x="99" y="0" type="line"/>
			<point x="377" y="0" type="line" smooth="yes"/>
			<point x="517" y="0"/>
			<point x="609" y="85"/>
			<point x="609" y="213" type="curve" smooth="yes"/>
			<point x="609" y="342"/>
			<point x="518" y="427"/>
			<point x="377" y="427" type="curve" smooth="yes"/>
			<point x="147" y="427" type="line"/>
			<point x="147" y="338" type="line"/>
			<point x="378" y="338" type="line" smooth="yes"/>
			<point x="456" y="338"/>
			<point x="504" y="291"/>
			<point x="504" y="213" type="curve" smooth="yes"/>
			<point x="504" y="136"/>
			<point x="456" y="89"/>
			<point x="378" y="89" type="curve" smooth="yes"/>
			<point x="184" y="89" type="line"/>
			<point x="202" y="70" type="line"/>
			<point x="202" y="715" type="line"/>
			<point x="99" y="715" type="line"/>
		</contour>
	</outline>
</glyph>
<glyph name="Ecyr" format="2">
	<unicode hex="042D"/>
	<advance width="719"/>
	<outline>
		<contour>
			<point x="319" y="-16" type="curve" smooth="yes"/>
			<point x="519" y="-16"/>
			<point x="659" y="131"/>
			<point x="659" y="357" type="curve" smooth="yes"/>
			<point x="659" y="582"/>
			<point x="515" y="731"/>
			<point x="314" y="731" type="curve" smooth="yes"/>
			<point x="205" y="731"/>
			<point x="104" y="683"/>
			<point x="44" y="597" type="curve"/>
			<point x="113" y="524" type="line"/>
			<point x="160" y="598"/>
			<point x="232" y="638"/>
			<point x="317" y="638" type="curve" smooth="yes"/>
			<point x="457" y="638"/>
			<point x="556" y="530"/>
			<point x="556" y="357" type="curve" smooth="yes"/>
			<point x="556" y="185"/>
			<point x="457" y="77"/>
			<point x="317" y="77" type="curve" smooth="yes"/>
			<point x="234" y="77"/>
			<point x="160" y="117"/>
			<point x="113" y="190" type="curve"/>
			<point x="44" y="119" type="line"/>
			<point x="103" y="34"/>
			<point x="210" y="-16"/>
		</contour>
		<contour>
			<point x="182" y="325" type="line"/>
			<point x="601" y="325" type="line"/>
			<point x="601" y="415" type="line"/>
			<point x="182" y="415" type="line"/>
		</contour>
	</outline>
</glyph>
<glyph name="Yu" format="2">
	<unicode hex="042E"/>
	<advance width="1045"/>
	<outline>
		<contour>
			<point x="99" y="0" type="line"/>
			<point x="202" y="0" type="line"/>
			<point x="202" y="715" type="line"/>
			<point x="99" y="715" type="line"/>
		</contour>
		<contour>
			<point x="647" y="-16" type="curve" smooth="yes"/>
			<point x="844" y="-16"/>
			<point x="985" y="142"/>
			<point x="985" y="358" type="curve" smooth="yes"/>
			<point x="985" y="573"/>
			<point x="844" y="731"/>
			<point x="647" y="731" type="curve" smooth="yes"/>
			<point x="451" y="731"/>
			<point x="310" y="573"/>
			<point x="310" y="358" type="curve" smooth="yes"/>
			<point x="310" y="142"/>
			<point x="451" y="-16"/>
		</contour>
		<contour>
			<point x="647" y="77" type="curve" smooth="yes"/>
			<point x="513" y="77"/>
			<point x="416" y="193"/>
			<point x="416" y="358" type="curve" smooth="yes"/>
			<point x="416" y="522"/>
			<point x="513" y="638"/>
			<point x="647" y="638" type="curve" smooth="yes"/>
			<point x="783" y="638"/>
			<point x="878" y="523"/>
			<point x="878" y="358" type="curve" smooth="yes"/>
			<point x="878" y="193"/>
			<point x="783" y="77"/>
		</contour>
		<contour>
			<point x="168" y="325" type="line"/>
			<point x="377" y="325" type="line"/>
			<point x="377" y="415" type="line"/>
			<point x="168" y="415" type="line"/>
		</contour>
	</outline>
</glyph>
<glyph name="be" format="2">
	<unicode hex="0431"/>
	<advance width="588"/>
	<outline>
		<contour>
			<point x="298" y="-16" type="curve" smooth="yes"/>
			<point x="443" y="-16"/>
			<point x="538" y="85"/>
			<point x="538" y="240" type="curve" smooth="yes"/>
			<point x="538" y="384"/>
			<point x="454" y="479"/>
			<point x="324" y="479" type="curve" smooth="yes"/>
			<point x="219" y="479"/>
			<point x="136" y="410"/>
			<point x="122" y="311" type="curve"/>
			<point x="144" y="343" type="line"/>
			<point x="148" y="517"/>
			<point x="183" y="579"/>
			<point x="287" y="597" type="curve" smooth="yes"/>
			<point x="494" y="633" type="line"/>
			<point x="480" y="720" type="line"/>
			<point x="272" y="686" type="line" smooth="yes"/>
			<point x="118" y="662"/>
			<point x="52" y="555"/>
			<point x="52" y="336" type="curve" smooth="yes"/>
			<point x="52" y="108"/>
			<point x="139" y="-16"/>
		</contour>
		<contour>
			<point x="295" y="70" type="curve" smooth="yes"/>
			<point x="193" y="70"/>
			<point x="156" y="157"/>
			<point x="156" y="302" type="curve"/>
			<point x="133" y="283" type="line"/>
			<point x="146" y="250" type="line"/>
			<point x="164" y="336"/>
			<point x="224" y="394"/>
			<point x="303" y="394" type="curve" smooth="yes"/>
			<point x="386" y="394"/>
			<point x="433" y="337"/>
			<point x="433" y="236" type="curve" smooth="yes"/>
			<point x="433" y="134"/>
			<point x="382" y="70"/>
		</contour>
	</outline>
</glyph>
<glyph name="ghe" format="2">
	<unicode hex="0433"/>
	<advance width="438"/>
	<outline>
		<contour>
			<point x="79" y="0" type="line"/>
			<point x="179" y="0" type="line"/>
			<point x="179" y="448" type="line"/>
			<point x="145" y="414" type="line"/>
			<point x="418" y="414" type="line"/>
			<point x="418" y="497" type="line"/>
			<point x="79" y="497" type="line"/>
		</contour>
	</outline>
	<anchor name="top.LC" x="247" y="544"/>
</glyph>
<glyph name="de" format="2">
	<unicode hex="0434"/>
	<advance width="593"/>
	<outline>
		<contour>
			<point x="14" y="-132" type="line"/>
			<point x="109" y="-132" type="line"/>
			<point x="109" y="25" type="line"/>
			<point x="84" y="0" type="line"/>
			<point x="485" y="0" type="line"/>
			<point x="460" y="25" type="line"/>
			<point x="460" y="-132" type="line"/>
			<point x="554" y="-132" type="line"/>
			<point x="554" y="83" type="line"/>
			<point x="154" y="83" type="line"/>
			<point x="163" y="63" type="line"/>
			<point x="185" y="83"/>
			<point x="198" y="118"/>
			<point x="204" y="174" type="curve" smooth="yes"/>
			<point x="235" y="440" type="line"/>
			<point x="207" y="415" type="line"/>
			<point x="412" y="415" type="line"/>
			<point x="387" y="440" type="line"/>
			<point x="387" y="53" type="line"/>
			<point x="486" y="53" type="line"/>
			<point x="486" y="497" type="line"/>
			<point x="142" y="497" type="line"/>
			<point x="109" y="181" type="line" smooth="yes"/>
			<point x="101" y="104"/>
			<point x="90" y="83"/>
			<point x="55" y="83" type="curve" smooth="yes"/>
			<point x="14" y="83" type="line"/>
		</contour>
	</outline>
</glyph>
<glyph name="zhe" format="2">
	<unicode hex="0436"/>
	<advance width="749"/>
	<outline>
		<contour>
			<point x="11" y="0" type="line"/>
			<point x="133" y="0" type="line"/>
			<point x="353" y="258" type="line"/>
			<point x="342" y="258" type="line"/>
			<point x="139" y="497" type="line"/>
			<point x="21" y="497" type="line"/>
			<point x="248" y="235" type="line"/>
			<point x="250" y="271" type="line"/>
		</contour>
		<contour>
			<point x="324" y="0" type="line"/>
			<point x="421" y="0" type="line"/>
			<point x="421" y="497" type="line"/>
			<point x="324" y="497" type="line"/>
		</contour>
		<contour>
			<point x="614" y="0" type="line"/>
			<point x="737" y="0" type="line"/>
			<point x="499" y="271" type="line"/>
			<point x="496" y="235" type="line"/>
			<point x="724" y="497" type="line"/>
			<point x="608" y="497" type="line"/>
			<point x="404" y="258" type="line"/>
			<point x="394" y="258" type="line"/>
		</contour>
	</outline>
</glyph>
<glyph name="ka" format="2">
	<unicode hex="043A"/>
	<advance width="534"/>
	<outline>
		<contour>
			<point x="79" y="0" type="line"/>
			<point x="179" y="0" type="line"/>
			<point x="179" y="497" type="line"/>
			<point x="79" y="497" type="line"/>
		</contour>
		<contour>
			<point x="394" y="0" type="line"/>
			<point x="525" y="0" type="line"/>
			<point x="244" y="286" type="line"/>
			<point x="259" y="238" type="line"/>
			<point x="503" y="497" type="line"/>
			<point x="379" y="497" type="line"/>
			<point x="156" y="258" type="line"/>
			<point x="146" y="258" type="line"/>
		</contour>
	</outline>
	<anchor name="top.LC" x="274" y="544"/>
</glyph>
<glyph name="en" format="2">
	<unicode hex="043D"/>
	<advance width="595"/>
	<outline>
		<contour>
			<point x="79" y="0" type="line"/>
			<point x="179" y="0" type="line"/>
			<point x="179" y="497" type="line"/>
			<point x="79" y="497" type="line"/>
		</contour>
		<contour>
			<point x="416" y="0" type="line"/>
			<point x="516" y="0" type="line"/>
			<point x="516" y="497" type="line"/>
			<point x="416" y="497" type="line"/>
		</contour>
		<contour>
			<point x="124" y="220" type="line"/>
			<point x="476" y="220" type="line"/>
			<point x="476" y="302" type="line"/>
			<point x="124" y="302" type="line"/>
		</contour>
	</outline>
</glyph>
<glyph name="te" format="2">
	<unicode hex="0442"/>
	<advance width="491"/>
	<outline>
		<contour>
			<point x="31" y="414" type="line"/>
			<point x="460" y="414" type="line"/>
			<point x="460" y="497" type="line"/>
			<point x="31" y="497" type="line"/>
		</contour>
		<contour>
			<point x="196" y="0" type="line"/>
			<point x="295" y="0" type="line"/>
			<point x="295" y="465" type="line"/>
			<point x="196" y="465" type="line"/>
		</contour>
	</outline>
</glyph>
<glyph name="tse" format="2">
	<unicode hex="0446"/>
	<advance width="609"/>
	<outline>
		<contour>
			<point x="402" y="40" type="line"/>
			<point x="502" y="40" type="line"/>
			<point x="502" y="497" type="line"/>
			<point x="402" y="497" type="line"/>
		</contour>
		<contour>
			<point x="79" y="0" type="line"/>
			<point x="501" y="0" type="line"/>
			<point x="476" y="25" type="line"/>
			<point x="476" y="-132" type="line"/>
			<point x="570" y="-132" type="line"/>
			<point x="570" y="83" type="line"/>
			<point x="154" y="83" type="line"/>
			<point x="179" y="58" type="line"/>
			<point x="179" y="497" type="line"/>
			<point x="79" y="497" type="line"/>
		</contour>
	</outline>
</glyph>
<glyph name="che" format="2">
	<unicode hex="0447"/>
	<advance width="556"/>
	<outline>
		<contour>
			<point x="376" y="0" type="line"/>
			<point x="476" y="0" type="line"/>
			<point x="476" y="497" type="line"/>
			<point x="376" y="497" type="line"/>
		</contour>
		<contour>
			<point x="235" y="160" type="curve" smooth="yes"/>
			<point x="302" y="160"/>
			<point x="367" y="181"/>
			<point x="411" y="221" type="curve"/>
			<point x="388" y="288" type="line"/>
			<point x="345" y="259"/>
			<point x="301" y="244"/>
			<point x="257" y="244" type="curve" smooth="yes"/>
			<point x="182" y="244"/>
			<point x="148" y="282"/>
			<point x="148" y="366" type="curve" smooth="yes"/>
			<point x="148" y="497" type="line"/>
			<point x="48" y="497" type="line"/>
			<point x="48" y="356" type="line" smooth="yes"/>
			<point x="48" y="229"/>
			<point x="114" y="160"/>
		</contour>
	</outline>
</glyph>
<glyph name="sha" format="2">
	<unicode hex="0448"/>
	<advance width="817"/>
	<outline>
		<contour>
			<point x="79" y="0" type="line"/>
			<point x="738" y="0" type="line"/>
			<point x="738" y="497" type="line"/>
			<point x="639" y="497" type="line"/>
			<point x="639" y="28" type="line"/>
			<point x="671" y="83" type="line"/>
			<point x="427" y="83" type="line"/>
			<point x="458" y="28" type="line"/>
			<point x="458" y="497" type="line"/>
			<point x="359" y="497" type="line"/>
			<point x="359" y="28" type="line"/>
			<point x="391" y="83" type="line"/>
			<point x="144" y="83" type="line"/>
			<point x="178" y="28" type="line"/>
			<point x="178" y="497" type="line"/>
			<point x="79" y="497" type="line"/>
		</contour>
	</outline>
</glyph>
<glyph name="shcha" format="2">
	<unicode hex="0449"/>
	<advance width="845"/>
	<outline>
		<contour>
			<point x="359" y="44" type="line"/>
			<point x="458" y="44" type="line"/>
			<point x="458" y="497" type="line"/>
			<point x="359" y="497" type="line"/>
		</contour>
		<contour>
			<point x="639" y="44" type="line"/>
			<point x="738" y="44" type="line"/>
			<point x="738" y="497" type="line"/>
			<point x="639" y="497" type="line"/>
		</contour>
		<contour>
			<point x="79" y="0" type="line"/>
			<point x="737" y="0" type="line"/>
			<point x="712" y="25" type="line"/>
			<point x="712" y="-132" type="line"/>
			<point x="806" y="-132" type="line"/>
			<point x="806" y="83" type="line"/>
			<point x="153" y="83" type="line"/>
			<point x="178" y="58" type="line"/>
			<point x="178" y="497" type="line"/>
			<point x="79" y="497" type="line"/>
		</contour>
	</outline>
</glyph>
<glyph name="yeru" format="2">
	<unicode hex="044B"/>
	<advance width="715"/>
	<outline>
		<contour>
			<point x="79" y="0" type="line"/>
			<point x="294" y="0" type="line" smooth="yes"/>
			<point x="400" y="0"/>
			<point x="475" y="69"/>
			<point x="475" y="164" type="curve" smooth="yes"/>
			<point x="475" y="260"/>
			<point x="403" y="325"/>
			<point x="294" y="325" type="curve" smooth="yes"/>
			<point x="126" y="325" type="line"/>
			<point x="126" y="243" type="line"/>
			<point x="290" y="243" type="line" smooth="yes"/>
			<point x="343" y="243"/>
			<point x="374" y="213"/>
			<point x="374" y="163" type="curve" smooth="yes"/>
			<point x="374" y="111"/>
			<point x="343" y="81"/>
			<point x="290" y="81" type="curve" smooth="yes"/>
			<point x="160" y="81" type="line"/>
			<point x="179" y="65" type="line"/>
			<point x="179" y="497" type="line"/>
			<point x="79" y="497" type="line"/>
		</contour>
		<contour>
			<point x="535" y="0" type="line"/>
			<point x="635" y="0" type="line"/>
			<point x="635" y="497" type="line"/>
			<point x="535" y="497" type="line"/>
		</contour>
	</outline>
</glyph>
<glyph name="soft" format="2">
	<unicode hex="044C"/>
	<advance width="504"/>
	<outline>
		<contour>
			<point x="79" y="0" type="line"/>
			<point x="308" y="0" type="line" smooth="yes"/>
			<point x="415" y="0"/>
			<point x="489" y="68"/>
			<point x="489" y="164" type="curve" smooth="yes"/>
			<point x="489" y="262"/>
			<point x="418" y="325"/>
			<point x="308" y="325" type="curve" smooth="yes"/>
			<point x="126" y="325" type="line"/>
			<point x="126" y="243" type="line"/>
			<point x="304" y="243" type="line" smooth="yes"/>
			<point x="357" y="243"/>
			<point x="388" y="213"/>
			<point x="388" y="163" type="curve" smooth="yes"/>
			<point x="388" y="111"/>
			<point x="357" y="81"/>
			<point x="304" y="81" type="curve" smooth="yes"/>
			<point x="160" y="81" type="line"/>
			<point x="179" y="65" type="line"/>
			<point x="179" y="497" type="line"/>
			<point x="79" y="497" type="line"/>
		</contour>
	</outline>
</glyph>
<glyph name="ecyr" format="2">
	<unicode hex="044D"/>
	<advance width="541"/>
	<outline>
		<contour>
			<point x="150" y="216" type="line"/>
			<point x="435" y="216" type="line"/>
			<point x="435" y="293" type="line"/>
			<point x="150" y="293" type="line"/>
		</contour>
		<contour>
			<point x="238" y="-16" type="curve" smooth="yes"/>
			<point x="386" y="-16"/>
			<point x="491" y="94"/>
			<point x="491" y="248" type="curve" smooth="yes"/>
			<point x="491" y="404"/>
			<point x="386" y="513"/>
			<point x="236" y="513" type="curve" smooth="yes"/>
			<point x="152" y="513"/>
			<point x="82" y="479"/>
			<point x="34" y="416" type="curve"/>
			<point x="99" y="354" type="line"/>
			<point x="129" y="402"/>
			<point x="176" y="430"/>
			<point x="234" y="430" type="curve" smooth="yes"/>
			<point x="326" y="430"/>
			<point x="389" y="358"/>
			<point x="389" y="248" type="curve" smooth="yes"/>
			<point x="389" y="140"/>
			<point x="325" y="67"/>
			<point x="232" y="67" type="curve" smooth="yes"/>
			<point x="175" y="67"/>
			<point x="130" y="94"/>
			<point x="98" y="143" type="curve"/>
			<point x="35" y="81" type="line"/>
			<point x="83" y="19"/>
			<point x="154" y="-16"/>
		</contour>
	</outline>
</glyph>
<glyph name="yu" format="2">
	<unicode hex="044E"/>
	<advance width="806"/>
	<outline>
		<contour>
			<point x="79" y="0" type="line"/>
			<point x="179" y="0" type="line"/>
			<point x="179" y="497" type="line"/>
			<point x="79" y="497" type="line"/>
		</contour>
		<contour>
			<point x="125" y="219" type="line"/>
			<point x="327" y="219" type="line"/>
			<point x="327" y="302" type="line"/>
			<point x="125" y="302" type="line"/>
		</contour>
		<contour>
			<point x="509" y="-16" type="curve" smooth="yes"/>
			<point x="656" y="-16"/>
			<point x="755" y="92"/>
			<point x="755" y="248" type="curve" smooth="yes"/>
			<point x="755" y="405"/>
			<point x="656" y="513"/>
			<point x="509" y="513" type="curve" smooth="yes"/>
			<point x="361" y="513"/>
			<point x="262" y="405"/>
			<point x="262" y="248" type="curve" smooth="yes"/>
			<point x="262" y="92"/>
			<point x="361" y="-16"/>
		</contour>
		<contour>
			<point x="509" y="69" type="curve" smooth="yes"/>
			<point x="422" y="69"/>
			<point x="364" y="143"/>
			<point x="364" y="248" type="curve" smooth="yes"/>
			<point x="364" y="354"/>
			<point x="422" y="427"/>
			<point x="509" y="427" type="curve" smooth="yes"/>
			<point x="595" y="427"/>
			<point x="651" y="354"/>
			<point x="651" y="248" type="curve" smooth="yes"/>
			<point x="651" y="143"/>
			<point x="595" y="69"/>
		</contour>
	</outline>
</glyph>
<glyph name="dje" format="2">
	<unicode hex="0452"/>
	<advance width="599"/>
	<outline>
		<contour>
			<point x="85" y="0" type="line"/>
			<point x="185" y="0" type="line"/>
			<point x="185" y="215" type="line" smooth="yes"/>
			<point x="185" y="339"/>
			<point x="238" y="416"/>
			<point x="322" y="416" type="curve" smooth="yes"/>
			<point x="398" y="416"/>
			<point x="433" y="344"/>
			<point x="433" y="189" type="curve" smooth="yes"/>
			<point x="433" y="30"/>
			<point x="381" y="-74"/>
			<point x="274" y="-129" type="curve"/>
			<point x="331" y="-209" type="line"/>
			<point x="467" y="-131"/>
			<point x="536" y="3"/>
			<point x="536" y="194" type="curve" smooth="yes"/>
			<point x="536" y="402"/>
			<point x="475" y="502"/>
			<point x="347" y="502" type="curve" smooth="yes"/>
			<point x="251" y="502"/>
			<point x="187" y="443"/>
			<point x="171" y="333" type="curve"/>
			<point x="185" y="333" type="line"/>
			<point x="185" y="720" type="line"/>
			<point x="85" y="720" type="line"/>
		</contour>
		<contour>
			<point x="9" y="564" type="line"/>
			<point x="334" y="564" type="line"/>
			<point x="334" y="641" type="line"/>
			<point x="9" y="641" type="line"/>
		</contour>
	</outline>
</glyph>
<glyph name="ieukrain" format="2">
	<unicode hex="0454"/>
	<advance width="541"/>
	<outline>
		<contour>
			<point x="106" y="216" type="line"/>
			<point x="391" y="216" type="line"/>
			<point x="391" y="293" type="line"/>
			<point x="106" y="293" type="line"/>
		</contour>
		<contour>
			<point x="304" y="-16" type="curve" smooth="yes"/>
			<point x="387" y="-16"/>
			<point x="458" y="19"/>
			<point x="506" y="81" type="curve"/>
			<point x="443" y="143" type="line"/>
			<point x="411" y="94"/>
			<point x="366" y="67"/>
			<point x="309" y="67" type="curve" smooth="yes"/>
			<point x="216" y="67"/>
			<point x="152" y="140"/>
			<point x="152" y="248" type="curve" smooth="yes"/>
			<point x="152" y="358"/>
			<point x="215" y="430"/>
			<point x="307" y="430" type="curve" smooth="yes"/>
			<point x="365" y="430"/>
			<point x="412" y="402"/>
			<point x="442" y="354" type="curve"/>
			<point x="507" y="416" type="line"/>
			<point x="459" y="479"/>
			<point x="389" y="513"/>
			<point x="305" y="513" type="curve" smooth="yes"/>
			<point x="156" y="513"/>
			<point x="50" y="404"/>
			<point x="50" y="248" type="curve" smooth="yes"/>
			<point x="50" y="94"/>
			<point x="156" y="-16"/>
		</contour>
	</outline>
</glyph>
<glyph name="lje" format="2">
	<unicode hex="0459"/>
	<advance width="793"/>
	<outline>
		<contour>
			<point x="26" y="0" type="line"/>
			<point x="79" y="0" type="line" smooth="yes"/>
			<point x="162" y="0"/>
			<point x="199" y="32"/>
			<point x="207" y="127" type="curve" smooth="yes"/>
			<point x="235" y="434" type="line"/>
			<point x="215" y="414" type="line"/>
			<point x="404" y="414" type="line"/>
			<point x="384" y="434" type="line"/>
			<point x="384" y="0" type="line"/>
			<point x="601" y="0" type="line" smooth="yes"/>
			<point x="702" y="0"/>
			<point x="778" y="68"/>
			<point x="778" y="164" type="curve" smooth="yes"/>
			<point x="778" y="260"/>
			<point x="706" y="325"/>
			<point x="601" y="325" type="curve" smooth="yes"/>
			<point x="449" y="325" type="line"/>
			<point x="449" y="243" type="line"/>
			<point x="595" y="243" type="line" smooth="yes"/>
			<point x="647" y="243"/>
			<point x="679" y="213"/>
			<point x="679" y="163" type="curve" smooth="yes"/>
			<point x="679" y="112"/>
			<point x="647" y="81"/>
			<point x="595" y="81" type="curve" smooth="yes"/>
			<point x="465" y="81" type="line"/>
			<point x="482" y="62" type="line"/>
			<point x="482" y="497" type="line"/>
			<point x="143" y="497" type="line"/>
			<point x="114" y="145" type="line" smooth="yes"/>
			<point x="110" y="100"/>
			<point x="95" y="84"/>
			<point x="65" y="84" type="curve" smooth="yes"/>
			<point x="26" y="84" type="line"/>
		</contour>
	</outline>
</glyph>
<glyph name="tshe" format="2">
	<unicode hex="045B"/>
	<advance width="599"/>
	<outline>
		<contour>
			<point x="85" y="0" type="line"/>
			<point x="185" y="0" type="line"/>
			<point x="185" y="221" type="line" smooth="yes"/>
			<point x="185" y="341"/>
			<point x="238" y="416"/>
			<point x="322" y="416" type="curve" smooth="yes"/>
			<point x="390" y="416"/>
			<point x="429" y="365"/>
			<point x="429" y="276" type="curve" smooth="yes"/>
			<point x="429" y="0" type="line"/>
			<point x="529" y="0" type="line"/>
			<point x="529" y="287" type="line" smooth="yes"/>
			<point x="529" y="423"/>
			<point x="462" y="502"/>
			<point x="347" y="502" type="curve" smooth="yes"/>
			<point x="250" y="502"/>
			<point x="186" y="441"/>
			<point x="171" y="333" type="curve"/>
			<point x="185" y="333" type="line"/>
			<point x="185" y="720" type="line"/>
			<point x="85" y="720" type="line"/>
		</contour>
		<contour>
			<point x="9" y="564" type="line"/>
			<point x="334" y="564" type="line"/>
			<point x="334" y="641" type="line"/>
			<point x="9" y="641" type="line"/>
		</contour>
	</outline>
</glyph>
<glyph name="dzhe" format="2">
	<unicode hex="045F"/>
	<advance width="581"/>
	<outline>
		<contour>
			<point x="79" y="0" type="line"/>
			<point x="502" y="0" type="line"/>
			<point x="502" y="497" type="line"/>
			<point x="402" y="497" type="line"/>
			<point x="402" y="40" type="line"/>
			<point x="440" y="83" type="line"/>
			<point x="140" y="83" type="line"/>
			<point x="179" y="40" type="line"/>
			<point x="179" y="497" type="line"/>
			<point x="79" y="497" type="line"/>
		</contour>
		<contour>
			<point x="243" y="-132" type="line"/>
			<point x="338" y="-132" type="line"/>
			<point x="338" y="63" type="line"/>
			<point x="243" y="63" type="line"/>
		</contour>
	</outline>
</glyph>
<glyph name="Yat" format="2">
	<unicode hex="0462"/>
	<advance width="678"/>
	<outline>
		<contour>
			<point x="14" y="550" type="line"/>
			<point x="481" y="550" type="line"/>
			<point x="481" y="636" type="line"/>
			<point x="14" y="636" type="line"/>
		</contour>
		<contour>
			<point x="124" y="0" type="line"/>
			<point x="403" y="0" type="line" smooth="yes"/>
			<point x="543" y="0"/>
			<point x="634" y="85"/>
			<point x="634" y="211" type="curve" smooth="yes"/>
			<point x="634" y="339"/>
			<point x="543" y="423"/>
			<point x="403" y="423" type="curve" smooth="yes"/>
			<point x="173" y="423" type="line"/>
			<point x="173" y="334" type="line"/>
			<point x="403" y="334" type="line" smooth="yes"/>
			<point x="481" y="334"/>
			<point x="529" y="288"/>
			<point x="529" y="211" type="curve" smooth="yes"/>
			<point x="529" y="135"/>
			<point x="481" y="89"/>
			<point x="403" y="89" type="curve" smooth="yes"/>
			<point x="208" y="89" type="line"/>
			<point x="227" y="68" type="line"/>
			<point x="227" y="715" type="line"/>
			<point x="124" y="715" type="line"/>
		</contour>
	</outline>
</glyph>
<glyph name="yat" format="2">
	<unicode hex="0463"/>
	<advance width="554"/>
	<outline>
		<contour>
			<point x="27" y="420" type="line"/>
			<point x="398" y="420" type="line"/>
			<point x="398" y="497" type="line"/>
			<point x="27" y="497" type="line"/>
		</contour>
		<contour>
			<point x="111" y="0" type="line"/>
			<point x="339" y="0" type="line" smooth="yes"/>
			<point x="445" y="0"/>
			<point x="521" y="67"/>
			<point x="521" y="162" type="curve" smooth="yes"/>
			<point x="521" y="256"/>
			<point x="450" y="320"/>
			<point x="339" y="320" type="curve" smooth="yes"/>
			<point x="158" y="320" type="line"/>
			<point x="158" y="240" type="line"/>
			<point x="334" y="240" type="line" smooth="yes"/>
			<point x="388" y="240"/>
			<point x="419" y="211"/>
			<point x="419" y="162" type="curve" smooth="yes"/>
			<point x="419" y="112"/>
			<point x="388" y="83"/>
			<point x="334" y="83" type="curve" smooth="yes"/>
			<point x="141" y="83" type="line"/>
			<point x="208" y="7" type="line"/>
			<point x="208" y="720" type="line"/>
			<point x="111" y="720" type="line"/>
		</contour>
	</outline>
</glyph>
<glyph name="Fita" format="2">
	<unicode hex="0472"/>
	<advance width="828"/>
	<outline>
		<contour>
			<point x="114" y="325" type="line"/>
			<point x="713" y="325" type="line"/>
			<point x="713" y="415" type="line"/>
			<point x="114" y="415" type="line"/>
		</contour>
		<contour>
			<point x="414" y="-16" type="curve" smooth="yes"/>
			<point x="618" y="-16"/>
			<point x="768" y="143"/>
			<point x="768" y="358" type="curve" smooth="yes"/>
			<point x="768" y="572"/>
			<point x="618" y="731"/>
			<point x="414" y="731" type="curve" smooth="yes"/>
			<point x="211" y="731"/>
			<point x="60" y="572"/>
			<point x="60" y="358" type="curve" smooth="yes"/>
			<point x="60" y="143"/>
			<point x="211" y="-16"/>
		</contour>
		<contour>
			<point x="414" y="76" type="curve" smooth="yes"/>
			<point x="267" y="76"/>
			<point x="165" y="193"/>
			<point x="165" y="358" type="curve" smooth="yes"/>
			<point x="165" y="523"/>
			<point x="267" y="639"/>
			<point x="414" y="639" type="curve" smooth="yes"/>
			<point x="562" y="639"/>
			<point x="664" y="523"/>
			<point x="664" y="358" type="curve" smooth="yes"/>
			<point x="664" y="193"/>
			<point x="562" y="76"/>
		</contour>
	</outline>
</glyph>
<glyph name="Gheup" format="2">
	<unicode hex="0490"/>
	<advance width="555"/>
	<outline>
		<contour>
			<point x="99" y="0" type="line"/>
			<point x="202" y="0" type="line"/>
			<point x="202" y="701" type="line"/>
			<point x="143" y="625" type="line"/>
			<point x="530" y="625" type="line"/>
			<point x="530" y="879" type="line"/>
			<point x="432" y="879" type="line"/>
			<point x="432" y="651" type="line"/>
			<point x="492" y="715" type="line"/>
			<point x="99" y="715" type="line"/>
		</contour>
	</outline>
</glyph>
<glyph name="gheup" format="2">
	<unicode hex="0491"/>
	<advance width="438"/>
	<outline>
		<contour>
			<point x="79" y="0" type="line"/>
			<point x="179" y="0" type="line"/>
			<point x="179" y="484" type="line"/>
			<point x="112" y="414" type="line"/>
			<point x="418" y="414" type="line"/>
			<point x="418" y="621" type="line"/>
			<point x="323" y="621" type="line"/>
			<point x="323" y="451" type="line"/>
			<point x="367" y="497" type="line"/>
			<point x="79" y="497" type="line"/>
		</contour>
	</outline>
</glyph>
<glyph name="endash" format="2">
	<unicode hex="2013"/>
	<advance width="500"/>
	<outline>
		<contour>
			<point x="500" y="229" type="line"/>
			<point x="500" y="317" type="line"/>
			<point x="0" y="317" type="line"/>
			<point x="0" y="229" type="line"/>
		</contour>
	</outline>
</glyph>
<glyph name="emdash" format="2">
	<unicode hex="2014"/>
	<advance width="1000"/>
	<outline>
		<contour>
			<point x="1000" y="229" type="line"/>
			<point x="1000" y="317" type="line"/>
			<point x="0" y="317" type="line"/>
			<point x="0" y="229" type="line"/>
		</contour>
	</outline>
</glyph>
<glyph name="quoteleft" format="2">
	<unicode hex="2018"/>
	<advance width="242"/>
	<outline>
		<contour>
			<point x="129" y="740" type="line"/>
			<point x="82" y="685"/>
			<point x="51" y="610"/>
			<point x="51" y="549" type="curve" smooth="yes"/>
			<point x="51" y="503"/>
			<point x="79" y="473"/>
			<point x="119" y="473" type="curve" smooth="yes"/>
			<point x="159" y="473"/>
			<point x="186" y="502"/>
			<point x="186" y="542" type="curve" smooth="yes"/>
			<point x="186" y="581"/>
			<point x="156" y="610"/>
			<point x="117" y="609" type="curve"/>
			<point x="127" y="579" type="line"/>
			<point x="122" y="622"/>
			<point x="150" y="687"/>
			<point x="191" y="740" type="curve"/>
		</contour>
	</outline>
</glyph>
<glyph name="quoteright" format="2">
	<unicode hex="2019"/>
	<advance width="242"/>
	<outline>
		<contour>
			<point x="113" y="477" type="line"/>
			<point x="160" y="532"/>
			<point x="191" y="607"/>
			<point x="191" y="668" type="curve" smooth="yes"/>
			<point x="191" y="714"/>
			<point x="163" y="744"/>
			<point x="122" y="744" type="curve" smooth="yes"/>
			<point x="83" y="744"/>
			<point x="56" y="715"/>
			<point x="56" y="675" type="curve" smooth="yes"/>
			<point x="56" y="636"/>
			<point x="86" y="607"/>
			<point x="125" y="608" type="curve"/>
			<point x="115" y="638" type="line"/>
			<point x="120" y="595"/>
			<point x="92" y="530"/>
			<point x="51" y="477" type="curve"/>
		</contour>
	</outline>
</glyph>
<glyph name="dagger" format="2">
	<unicode hex="2020"/>
	<advance width="440"/>
	<outline>
		<contour>
			<point x="404" y="413" type="line"/>
			<point x="404" y="497" type="line"/>
			<point x="37" y="497" type="line"/>
			<point x="37" y="413" type="line"/>
		</contour>
		<contour>
			<point x="272" y="-129" type="line"/>
			<point x="272" y="736" type="line"/>
			<point x="172" y="736" type="line"/>
			<point x="172" y="-129" type="line"/>
		</contour>
	</outline>
</glyph>
<glyph name="guilsinglright" format="2">
	<unicode hex="203A"/>
	<advance width="309"/>
	<outline>
		<contour>
			<point x="145" y="463" type="line"/>
			<point x="35" y="463" type="line"/>
			<point x="174" y="248" type="line"/>
			<point x="35" y="33" type="line"/>
			<point x="145" y="33" type="line"/>
			<point x="282" y="248" type="line"/>
		</contour>
	</outline>
</glyph>
<glyph name="Euro" format="2">
	<unicode hex="20AC"/>
	<advance width="632"/>
	<outline>
		<contour>
			<point x="543" y="171" type="line"/>
			<point x="501" y="108"/>
			<point x="447" y="72"/>
			<point x="379" y="72" type="curve" smooth="yes"/>
			<point x="261" y="72"/>
			<point x="187" y="182"/>
			<point x="187" y="357" type="curve" smooth="yes"/>
			<point x="187" y="533"/>
			<point x="259" y="643"/>
			<point x="380" y="643" type="curve" smooth="yes"/>
			<point x="444" y="643"/>
			<point x="499" y="608"/>
			<point x="543" y="543" type="curve"/>
			<point x="609" y="608" type="line"/>
			<point x="553" y="686"/>
			<point x="471" y="731"/>
			<point x="380" y="731" type="curve" smooth="yes"/>
			<point x="205" y="731"/>
			<point x="85" y="579"/>
			<point x="85" y="357" type="curve" smooth="yes"/>
			<point x="85" y="136"/>
			<point x="203" y="-16"/>
			<point x="378" y="-16" type="curve" smooth="yes"/>
			<point x="470" y="-16"/>
			<point x="553" y="30"/>
			<point x="608" y="107" type="curve"/>
		</contour>
		<contour>
			<point x="430" y="241" type="line"/>
			<point x="444" y="318" type="line"/>
			<point x="24" y="318" type="line"/>
			<point x="24" y="241" type="line"/>
		</contour>
		<contour>
			<point x="458" y="399" type="line"/>
			<point x="472" y="476" type="line"/>
			<point x="24" y="476" type="line"/>
			<point x="24" y="399" type="line"/>
		</contour>
	</outline>
</glyph>
<glyph name="rupeeindian" format="2">
	<unicode hex="20B9"/>
	<advance width="632"/>
	<outline>
		<contour>
			<point x="55" y="638" type="line"/>
			<point x="273" y="638" type="line" smooth="yes"/>
			<point x="357" y="638"/>
			<point x="409" y="588"/>
			<point x="409" y="510" type="curve" smooth="yes"/>
			<point x="409" y="430"/>
			<point x="358" y="382"/>
			<point x="273" y="382" type="curve" smooth="yes"/>
			<point x="56" y="382" type="line"/>
			<point x="56" y="304" type="line"/>
			<point x="273" y="304" type="line" smooth="yes"/>
			<point x="415" y="304"/>
			<point x="506" y="387"/>
			<point x="506" y="510" type="curve" smooth="yes"/>
			<point x="506" y="621"/>
			<point x="415" y="695"/>
			<point x="273" y="695" type="curve" smooth="yes"/>
			<point x="55" y="695" type="line"/>
		</contour>
		<contour>
			<point x="579" y="0" type="line"/>
			<point x="186" y="315" type="line"/>
			<point x="56" y="304" type="line"/>
			<point x="423" y="0" type="line"/>
		</contour>
		<contour>
			<point x="554" y="471" type="line"/>
			<point x="569" y="548" type="line"/>
			<point x="55" y="548" type="line"/>
			<point x="55" y="471" type="line"/>
		</contour>
		<contour>
			<point x="583" y="638" type="line"/>
			<point x="597" y="715" type="line"/>
			<point x="55" y="715" type="line"/>
			<point x="55" y="638" type="line"/>
		</contour>
	</outline>
</glyph>
<glyph name="liraturkish" format="2">
	<unicode hex="20BA"/>
	<advance width="632"/>
	<outline>
		<contour>
			<point x="127" y="0" type="line"/>
			<point x="279" y="0" type="line" smooth="yes"/>
			<point x="485" y="0"/>
			<point x="595" y="108"/>
			<point x="595" y="330" type="curve" smooth="yes"/>
			<point x="595" y="340" type="line"/>
			<point x="496" y="346" type="line"/>
			<point x="496" y="326" type="line" smooth="yes"/>
			<point x="496" y="162"/>
			<point x="421" y="85"/>
			<point x="282" y="85" type="curve" smooth="yes"/>
			<point x="227" y="85" type="line"/>
			<point x="227" y="715" type="line"/>
			<point x="127" y="715" type="line"/>
		</contour>
		<contour>
			<point x="396" y="370" type="line"/>
			<point x="396" y="450" type="line"/>
			<point x="33" y="287" type="line"/>
			<point x="33" y="207" type="line"/>
		</contour>
		<contour>
			<point x="396" y="533" type="line"/>
			<point x="396" y="613" type="line"/>
			<point x="33" y="450" type="line"/>
			<point x="33" y="370" type="line"/>
		</contour>
	</outline>
</glyph>
<glyph name="numero" format="2">
	<unicode hex="2116"/>
	<advance width="1183"/>
	<outline>
		<contour>
			<point x="789" y="218" type="line"/>
			<point x="1116" y="218" type="line"/>
			<point x="1116" y="291" type="line"/>
			<point x="789" y="291" type="line"/>
		</contour>
		<contour>
			<point x="952" y="341" type="curve" smooth="yes"/>
			<point x="1059" y="341"/>
			<point x="1134" y="418"/>
			<point x="1134" y="528" type="curve" smooth="yes"/>
			<point x="1134" y="637"/>
			<point x="1059" y="715"/>
			<point x="952" y="715" type="curve" smooth="yes"/>
			<point x="846" y="715"/>
			<point x="770" y="637"/>
			<point x="770" y="528" type="curve" smooth="yes"/>
			<point x="770" y="418"/>
			<point x="846" y="341"/>
		</contour>
		<contour>
			<point x="952" y="415" type="curve" smooth="yes"/>
			<point x="899" y="415"/>
			<point x="860" y="463"/>
			<point x="860" y="528" type="curve" smooth="yes"/>
			<point x="860" y="594"/>
			<point x="899" y="641"/>
			<point x="952" y="641" type="curve" smooth="yes"/>
			<point x="1007" y="641"/>
			<point x="1045" y="594"/>
			<point x="1045" y="528" type="curve" smooth="yes"/>
			<point x="1045" y="463"/>
			<point x="1007" y="415"/>
		</contour>
		<contour>
			<point x="99" y="0" type="line"/>
			<point x="199" y="0" type="line"/>
			<point x="199" y="611" type="line"/>
			<point x="164" y="611" type="line"/>
			<point x="555" y="0" type="line"/>
			<point x="664" y="0" type="line"/>
			<point x="664" y="715" type="line"/>
			<point x="564" y="715" type="line"/>
			<point x="564" y="104" type="line"/>
			<point x="598" y="104" type="line"/>
			<point x="208" y="715" type="line"/>
			<point x="99" y="715" type="line"/>
		</contour>
	</outline>
</glyph>
<glyph name="trademark" format="2">
	<unicode hex="2122"/>
	<advance width="834"/>
	<outline>
		<contour>
			<point x="218" y="312" type="line"/>
			<point x="218" y="654" type="line"/>
			<point x="140" y="654" type="line"/>
			<point x="140" y="312" type="line"/>
		</contour>
		<contour>
			<point x="337" y="649" type="line"/>
			<point x="337" y="715" type="line"/>
			<point x="21" y="715" type="line"/>
			<point x="21" y="649" type="line"/>
		</contour>
		<contour>
			<point x="628" y="357" type="line"/>
			<point x="777" y="683" type="line"/>
			<point x="736" y="685" type="line"/>
			<point x="736" y="312" type="line"/>
			<point x="814" y="312" type="line"/>
			<point x="814" y="715" type="line"/>
			<point x="721" y="715" type="line"/>
			<point x="585" y="410" type="line"/>
			<point x="615" y="410" type="line"/>
			<point x="478" y="715" type="line"/>
			<point x="384" y="715" type="line"/>
			<point x="384" y="312" type="line"/>
			<point x="461" y="312" type="line"/>
			<point x="461" y="685" type="line"/>
			<point x="421" y="683" type="line"/>
			<point x="570" y="357" type="line"/>
		</contour>
	</outline>
</glyph>
<glyph name="minus" format="2">
	<unicode hex="2212"/>
	<advance width="632"/>
	<outline>
		<contour>
			<point x="512" y="316" type="line"/>
			<point x="512" y="398" type="line"/>
			<point x="120" y="398" type="line"/>
			<point x="120" y="316" type="line"/>
		</contour>
	</outline>
</glyph>
<glyph name="triangleleft" format="2">
	<unicode hex="25C0"/>
	<advance width="562"/>
	<outline>
		<contour>
			<point x="462" y="0" type="line"/>
			<point x="210" y="246" type="line"/>
			<point x="462" y="492" type="line"/>
			<point x="356" y="492" type="line"/>
			<point x="100" y="246" type="line"/>
			<point x="356" y="0" type="line"/>
		</contour>
	</outline>
	<guideline x="0" y="49" angle="136.14"/>
</glyph>
<glyph name="rightTipUpArrow" format="2">
	<unicode hex="2B0F"/>
	<advance width="752"/>
	<outline>
		<contour>
			<point x="100" y="0" type="line"/>
			<point x="413" y="0" type="line"/>
			<point x="413" y="643" type="line"/>
			<point x="339" y="643" type="line"/>
			<point x="339" y="72" type="line"/>
			<point x="100" y="72" type="line"/>
		</contour>
		<contour>
			<point x="100" y="374" type="line"/>
			<point x="376" y="631" type="line"/>
			<point x="652" y="374" type="line"/>
			<point x="652" y="475" type="line"/>
			<point x="376" y="731" type="line"/>
			<point x="100" y="475" type="line"/>
		</contour>
	</outline>
</glyph>
<glyph name="Ef.loclBGR" format="2">
	<advance width="843"/>
	<outline>
		<contour>
			<point x="422" y="53" type="curve" smooth="yes"/>
			<point x="656" y="53"/>
			<point x="783" y="160"/>
			<point x="783" y="358" type="curve" smooth="yes"/>
			<point x="783" y="555"/>
			<point x="656" y="662"/>
			<point x="422" y="662" type="curve" smooth="yes"/>
			<point x="187" y="662"/>
			<point x="59" y="556"/>
			<point x="59" y="358" type="curve" smooth="yes"/>
			<point x="59" y="160"/>
			<point x="186" y="53"/>
		</contour>
		<contour>
			<point x="422" y="142" type="curve" smooth="yes"/>
			<point x="247" y="142"/>
			<point x="162" y="213"/>
			<point x="162" y="358" type="curve" smooth="yes"/>
			<point x="162" y="504"/>
			<point x="245" y="573"/>
			<point x="422" y="573" type="curve" smooth="yes"/>
			<point x="596" y="573"/>
			<point x="680" y="503"/>
			<point x="680" y="358" type="curve" smooth="yes"/>
			<point x="680" y="212"/>
			<point x="597" y="142"/>
		</contour>
		<contour>
			<point x="370" y="-51" type="line"/>
			<point x="472" y="-51" type="line"/>
			<point x="472" y="79" type="line"/>
			<point x="469" y="123" type="line"/>
			<point x="469" y="595" type="line"/>
			<point x="472" y="634" type="line"/>
			<point x="472" y="766" type="line"/>
			<point x="370" y="766" type="line"/>
			<point x="370" y="634" type="line"/>
			<point x="374" y="595" type="line"/>
			<point x="374" y="123" type="line"/>
			<point x="370" y="79" type="line"/>
		</contour>
	</outline>
</glyph>
<glyph name="acutecomb.asc" format="2">
	<outline>
		<contour>
			<point x="167" y="731" type="line"/>
			<point x="52" y="731" type="line"/>
			<point x="-57" y="587" type="line"/>
			<point x="33" y="587" type="line"/>
		</contour>
	</outline>
	<anchor name="_top.LC" x="0" y="544"/>
</glyph>
<glyph name="acutecomb.cap" format="2">
	<outline>
		<contour>
			<point x="190" y="926" type="line"/>
			<point x="66" y="926" type="line"/>
			<point x="-63" y="782" type="line"/>
			<point x="36" y="782" type="line"/>
		</contour>
	</outline>
	<anchor name="_top.UC" x="0" y="750"/>
</glyph>
<glyph name="acutecomb.narrow" format="2">
	<outline>
		<contour>
			<point x="138" y="761" type="line"/>
			<point x="30" y="761" type="line"/>
			<point x="-56" y="587" type="line"/>
			<point x="24" y="587" type="line"/>
		</contour>
	</outline>
	<anchor name="_top.LC" x="0" y="544"/>
</glyph>
<glyph name="breveacutecomb.cap" format="2">
	<outline>
		<contour>
			<point x="0" y="795" type="curve" smooth="yes"/>
			<point x="87" y="795"/>
			<point x="153" y="852"/>
			<point x="161" y="940" type="curve"/>
			<point x="81" y="940" type="line"/>
			<point x="75" y="894"/>
			<point x="43" y="866"/>
			<point x="0" y="866" type="curve" smooth="yes"/>
			<point x="-43" y="866"/>
			<point x="-75" y="894"/>
			<point x="-81" y="940" type="curve"/>
			<point x="-161" y="940" type="line"/>
			<point x="-153" y="852"/>
			<point x="-88" y="795"/>
		</contour>
		<contour>
			<point x="-45" y="939" type="line"/>
			<point x="31" y="939" type="line"/>
			<point x="165" y="1086" type="line"/>
			<point x="59" y="1086" type="line"/>
		</contour>
	</outline>
	<anchor name="_top.UC" x="0" y="750"/>
</glyph>
<glyph name="brevecomb.cap" format="2">
	<outline>
		<contour>
			<point x="0" y="795" type="curve" smooth="yes"/>
			<point x="89" y="795"/>
			<point x="155" y="852"/>
			<point x="164" y="940" type="curve"/>
			<point x="83" y="940" type="line"/>
			<point x="77" y="894"/>
			<point x="44" y="866"/>
			<point x="0" y="866" type="curve" smooth="yes"/>
			<point x="-44" y="866"/>
			<point x="-77" y="894"/>
			<point x="-83" y="940" type="curve"/>
			<point x="-164" y="940" type="line"/>
			<point x="-155" y="852"/>
			<point x="-89" y="795"/>
		</contour>
	</outline>
	<anchor name="_top.UC" x="0" y="750"/>
</glyph>
<glyph name="brevecomb.cyrl.cap" format="2">
	<outline>
		<contour>
			<point x="0" y="584" type="curve" smooth="yes"/>
			<point x="98" y="584"/>
			<point x="167" y="632"/>
			<point x="177" y="723" type="curve"/>
			<point x="91" y="723" type="line"/>
			<point x="83" y="669"/>
			<point x="52" y="645"/>
			<point x="0" y="645" type="curve" smooth="yes"/>
			<point x="-52" y="645"/>
			<point x="-84" y="669"/>
			<point x="-92" y="723" type="curve"/>
			<point x="-177" y="723" type="line"/>
			<point x="-168" y="632"/>
			<point x="-99" y="584"/>
		</contour>
	</outline>
	<anchor name="_top.UC" x="0" y="544"/>
</glyph>
<glyph name="brevecomb.cyrl" format="2">
	<outline>
		<contour>
			<point x="0" y="585" type="curve" smooth="yes"/>
			<point x="92" y="585"/>
			<point x="159" y="633"/>
			<point x="170" y="723" type="curve"/>
			<point x="85" y="723" type="line"/>
			<point x="78" y="668"/>
			<point x="47" y="645"/>
			<point x="0" y="645" type="curve" smooth="yes"/>
			<point x="-46" y="645"/>
			<point x="-79" y="668"/>
			<point x="-86" y="723" type="curve"/>
			<point x="-170" y="723" type="line"/>
			<point x="-160" y="633"/>
			<point x="-93" y="585"/>
		</contour>
	</outline>
	<anchor name="_top.LC" x="0" y="544"/>
</glyph>
<glyph name="brevegravecomb" format="2">
	<outline>
		<contour>
			<point x="0" y="583" type="curve" smooth="yes"/>
			<point x="79" y="583"/>
			<point x="143" y="643"/>
			<point x="152" y="739" type="curve"/>
			<point x="74" y="739" type="line"/>
			<point x="68" y="681"/>
			<point x="38" y="654"/>
			<point x="0" y="654" type="curve" smooth="yes"/>
			<point x="-37" y="654"/>
			<point x="-67" y="681"/>
			<point x="-74" y="739" type="curve"/>
			<point x="-151" y="739" type="line"/>
			<point x="-142" y="643"/>
			<point x="-79" y="583"/>
		</contour>
		<contour>
			<point x="-29" y="738" type="line"/>
			<point x="46" y="738" type="line"/>
			<point x="-51" y="883" type="line"/>
			<point x="-158" y="883" type="line"/>
		</contour>
	</outline>
	<anchor name="_top.LC" x="0" y="544"/>
</glyph>
<glyph name="brevehookabovecomb.cap" format="2">
	<outline>
		<contour>
			<point x="0" y="795" type="curve" smooth="yes"/>
			<point x="87" y="795"/>
			<point x="153" y="852"/>
			<point x="161" y="940" type="curve"/>
			<point x="81" y="940" type="line"/>
			<point x="75" y="894"/>
			<point x="43" y="866"/>
			<point x="0" y="866" type="curve" smooth="yes"/>
			<point x="-43" y="866"/>
			<point x="-75" y="894"/>
			<point x="-81" y="940" type="curve"/>
			<point x="-161" y="940" type="line"/>
			<point x="-153" y="852"/>
			<point x="-88" y="795"/>
		</contour>
		<contour>
			<point x="-15" y="920" type="line"/>
			<point x="52" y="947"/>
			<point x="88" y="989"/>
			<point x="88" y="1037" type="curve" smooth="yes"/>
			<point x="88" y="1088"/>
			<point x="46" y="1127"/>
			<point x="-10" y="1127" type="curve" smooth="yes"/>
			<point x="-46" y="1127"/>
			<point x="-76" y="1114"/>
			<point x="-103" y="1088" type="curve"/>
			<point x="-68" y="1042" type="line"/>
			<point x="-50" y="1057"/>
			<point x="-34" y="1064"/>
			<point x="-20" y="1064" type="curve" smooth="yes"/>
			<point x="2" y="1064"/>
			<point x="16" y="1052"/>
			<point x="16" y="1030" type="curve" smooth="yes"/>
			<point x="16" y="1007"/>
			<point x="-3" y="987"/>
			<point x="-40" y="968" type="curve"/>
		</contour>
	</outline>
	<anchor name="_top.UC" x="0" y="750"/>
</glyph>
<glyph name="brevehookabovecomb" format="2">
	<outline>
		<contour>
			<point x="0" y="583" type="curve" smooth="yes"/>
			<point x="79" y="583"/>
			<point x="143" y="643"/>
			<point x="152" y="739" type="curve"/>
			<point x="74" y="739" type="line"/>
			<point x="68" y="681"/>
			<point x="38" y="654"/>
			<point x="0" y="654" type="curve" smooth="yes"/>
			<point x="-37" y="654"/>
			<point x="-67" y="681"/>
			<point x="-74" y="739" type="curve"/>
			<point x="-151" y="739" type="line"/>
			<point x="-142" y="643"/>
			<point x="-79" y="583"/>
		</contour>
		<contour>
			<point x="-15" y="713" type="line"/>
			<point x="52" y="739"/>
			<point x="88" y="780"/>
			<point x="88" y="826" type="curve" smooth="yes"/>
			<point x="88" y="876"/>
			<point x="46" y="915"/>
			<point x="-10" y="915" type="curve" smooth="yes"/>
			<point x="-46" y="915"/>
			<point x="-77" y="902"/>
			<point x="-103" y="877" type="curve"/>
			<point x="-68" y="830" type="line"/>
			<point x="-51" y="845"/>
			<point x="-34" y="853"/>
			<point x="-19" y="853" type="curve" smooth="yes"/>
			<point x="3" y="853"/>
			<point x="16" y="841"/>
			<point x="16" y="820" type="curve" smooth="yes"/>
			<point x="16" y="798"/>
			<point x="-2" y="779"/>
			<point x="-39" y="761" type="curve"/>
		</contour>
	</outline>
	<anchor name="_top.LC" x="0" y="544"/>
</glyph>
<glyph name="brevetildecomb.cap" format="2">
	<outline>
		<contour>
			<point x="0" y="795" type="curve" smooth="yes"/>
			<point x="88" y="795"/>
			<point x="153" y="853"/>
			<point x="161" y="940" type="curve"/>
			<point x="81" y="940" type="line"/>
			<point x="75" y="895"/>
			<point x="44" y="866"/>
			<point x="0" y="866" type="curve" smooth="yes"/>
			<point x="-44" y="866"/>
			<point x="-75" y="895"/>
			<point x="-81" y="940" type="curve"/>
			<point x="-161" y="940" type="line"/>
			<point x="-153" y="853"/>
			<point x="-89" y="795"/>
		</contour>
		<contour>
			<point x="-101" y="969" type="line"/>
			<point x="-96" y="1005"/>
			<point x="-82" y="1026"/>
			<point x="-64" y="1026" type="curve" smooth="yes"/>
			<point x="-55" y="1026"/>
			<point x="-49" y="1023"/>
			<point x="-11" y="999" type="curve" smooth="yes"/>
			<point x="26" y="976"/>
			<point x="47" y="968"/>
			<point x="72" y="968" type="curve" smooth="yes"/>
			<point x="123" y="968"/>
			<point x="160" y="1005"/>
			<point x="169" y="1065" type="curve"/>
			<point x="102" y="1094" type="line"/>
			<point x="97" y="1058"/>
			<point x="83" y="1037"/>
			<point x="65" y="1037" type="curve" smooth="yes"/>
			<point x="55" y="1037"/>
			<point x="43" y="1042"/>
			<point x="19" y="1059" type="curve" smooth="yes"/>
			<point x="-23" y="1087"/>
			<point x="-44" y="1095"/>
			<point x="-71" y="1095" type="curve" smooth="yes"/>
			<point x="-121" y="1095"/>
			<point x="-159" y="1058"/>
			<point x="-169" y="998" type="curve"/>
		</contour>
	</outline>
	<anchor name="_top.UC" x="0" y="750"/>
</glyph>
<glyph name="brevetildecomb" format="2">
	<outline>
		<contour>
			<point x="0" y="583" type="curve" smooth="yes"/>
			<point x="82" y="583"/>
			<point x="143" y="646"/>
			<point x="152" y="739" type="curve"/>
			<point x="74" y="739" type="line"/>
			<point x="68" y="685"/>
			<point x="41" y="654"/>
			<point x="0" y="654" type="curve" smooth="yes"/>
			<point x="-40" y="654"/>
			<point x="-68" y="685"/>
			<point x="-74" y="739" type="curve"/>
			<point x="-151" y="739" type="line"/>
			<point x="-142" y="646"/>
			<point x="-81" y="583"/>
		</contour>
		<contour>
			<point x="-90" y="776" type="line"/>
			<point x="-85" y="812"/>
			<point x="-73" y="832"/>
			<point x="-57" y="832" type="curve" smooth="yes"/>
			<point x="-49" y="832"/>
			<point x="-37" y="826"/>
			<point x="-18" y="812" type="curve" smooth="yes"/>
			<point x="16" y="785"/>
			<point x="36" y="777"/>
			<point x="63" y="777" type="curve" smooth="yes"/>
			<point x="109" y="777"/>
			<point x="141" y="812"/>
			<point x="151" y="871" type="curve"/>
			<point x="89" y="899" type="line"/>
			<point x="84" y="862"/>
			<point x="72" y="843"/>
			<point x="55" y="843" type="curve" smooth="yes"/>
			<point x="49" y="843"/>
			<point x="42" y="847"/>
			<point x="24" y="860" type="curve" smooth="yes"/>
			<point x="-14" y="889"/>
			<point x="-34" y="898"/>
			<point x="-62" y="898" type="curve" smooth="yes"/>
			<point x="-109" y="898"/>
			<point x="-142" y="863"/>
			<point x="-152" y="804" type="curve"/>
		</contour>
	</outline>
	<anchor name="_top.LC" x="0" y="544"/>
</glyph>
<glyph name="cedillacomb.cap" format="2">
	<outline>
		<contour>
			<point x="-113" y="-220" type="line"/>
			<point x="-87" y="-244"/>
			<point x="-52" y="-258"/>
			<point x="-13" y="-258" type="curve" smooth="yes"/>
			<point x="69" y="-258"/>
			<point x="115" y="-211"/>
			<point x="115" y="-150" type="curve" smooth="yes"/>
			<point x="115" y="-89"/>
			<point x="57" y="-48"/>
			<point x="-18" y="-49" type="curve"/>
			<point x="13" y="-80" type="line"/>
			<point x="31" y="10" type="line"/>
			<point x="-30" y="10" type="line"/>
			<point x="-58" y="-116" type="line"/>
			<point x="-44" y="-112"/>
			<point x="-31" y="-110"/>
			<point x="-19" y="-110" type="curve" smooth="yes"/>
			<point x="18" y="-110"/>
			<point x="39" y="-128"/>
			<point x="39" y="-152" type="curve" smooth="yes"/>
			<point x="39" y="-176"/>
			<point x="18" y="-193"/>
			<point x="-10" y="-193" type="curve" smooth="yes"/>
			<point x="-36" y="-193"/>
			<point x="-62" y="-181"/>
			<point x="-77" y="-164" type="curve"/>
		</contour>
	</outline>
	<anchor name="_bottom.UC" x="0" y="-50"/>
</glyph>
<glyph name="che.loclBGR" format="2">
	<advance width="555"/>
	<outline>
		<contour>
			<point x="376" y="0" type="line"/>
			<point x="476" y="0" type="line"/>
			<point x="476" y="497" type="line"/>
			<point x="376" y="497" type="line"/>
		</contour>
		<contour>
			<point x="229" y="160" type="curve" smooth="yes"/>
			<point x="332" y="160"/>
			<point x="405" y="238"/>
			<point x="406" y="348" type="curve"/>
			<point x="381" y="374" type="line"/>
			<point x="372" y="300"/>
			<point x="316" y="245"/>
			<point x="252" y="245" type="curve" smooth="yes"/>
			<point x="186" y="245"/>
			<point x="148" y="290"/>
			<point x="148" y="376" type="curve" smooth="yes"/>
			<point x="148" y="497" type="line"/>
			<point x="48" y="497" type="line"/>
			<point x="48" y="365" type="line" smooth="yes"/>
			<point x="48" y="234"/>
			<point x="115" y="160"/>
		</contour>
	</outline>
</glyph>
<glyph name="circumflexcomb.cap" format="2">
	<outline>
		<contour>
			<point x="177" y="799" type="line"/>
			<point x="50" y="943" type="line"/>
			<point x="-50" y="943" type="line"/>
			<point x="-177" y="799" type="line"/>
			<point x="-81" y="799" type="line"/>
			<point x="45" y="927" type="line"/>
			<point x="-47" y="927" type="line"/>
			<point x="80" y="799" type="line"/>
		</contour>
	</outline>
	<anchor name="_top.UC" x="0" y="750"/>
</glyph>
<glyph name="circumflexcomb.narrow" format="2">
	<outline>
		<contour>
			<point x="156" y="587" type="line"/>
			<point x="37" y="761" type="line"/>
			<point x="-38" y="761" type="line"/>
			<point x="-156" y="587" type="line"/>
			<point x="-74" y="587" type="line"/>
			<point x="41" y="742" type="line"/>
			<point x="-45" y="742" type="line"/>
			<point x="70" y="587" type="line"/>
		</contour>
	</outline>
	<anchor name="_top.LC" x="0" y="544"/>
</glyph>
<glyph name="circumflexgravecomb.cap" format="2">
	<outline>
		<contour>
			<point x="-163" y="799" type="line"/>
			<point x="-68" y="799" type="line"/>
			<point x="29" y="897" type="line"/>
			<point x="-28" y="897" type="line"/>
			<point x="69" y="799" type="line"/>
			<point x="165" y="799" type="line"/>
			<point x="50" y="934" type="line"/>
			<point x="-48" y="934" type="line"/>
		</contour>
		<contour>
			<point x="175" y="877" type="line"/>
			<point x="249" y="877" type="line"/>
			<point x="150" y="1024" type="line"/>
			<point x="44" y="1024" type="line"/>
		</contour>
	</outline>
	<anchor name="_top.UC" x="0" y="750"/>
</glyph>
<glyph name="circumflexgravecomb" format="2">
	<outline>
		<contour>
			<point x="-159" y="587" type="line"/>
			<point x="-71" y="587" type="line"/>
			<point x="23" y="687" type="line"/>
			<point x="-22" y="687" type="line"/>
			<point x="73" y="587" type="line"/>
			<point x="163" y="587" type="line"/>
			<point x="49" y="730" type="line"/>
			<point x="-45" y="730" type="line"/>
		</contour>
		<contour>
			<point x="155" y="677" type="line"/>
			<point x="231" y="677" type="line"/>
			<point x="133" y="821" type="line"/>
			<point x="27" y="821" type="line"/>
		</contour>
	</outline>
	<anchor name="_top.LC" x="0" y="544"/>
</glyph>
<glyph name="circumflexhookabovecomb.cap" format="2">
	<outline>
		<contour>
			<point x="-163" y="799" type="line"/>
			<point x="-68" y="799" type="line"/>
			<point x="29" y="897" type="line"/>
			<point x="-28" y="897" type="line"/>
			<point x="69" y="799" type="line"/>
			<point x="165" y="799" type="line"/>
			<point x="50" y="934" type="line"/>
			<point x="-48" y="934" type="line"/>
		</contour>
		<contour>
			<point x="157" y="858" type="line"/>
			<point x="224" y="885"/>
			<point x="260" y="927"/>
			<point x="260" y="975" type="curve" smooth="yes"/>
			<point x="260" y="1026"/>
			<point x="219" y="1065"/>
			<point x="160" y="1065" type="curve" smooth="yes"/>
			<point x="127" y="1065"/>
			<point x="96" y="1052"/>
			<point x="69" y="1026" type="curve"/>
			<point x="104" y="980" type="line"/>
			<point x="122" y="995"/>
			<point x="138" y="1003"/>
			<point x="154" y="1003" type="curve" smooth="yes"/>
			<point x="175" y="1003"/>
			<point x="188" y="990"/>
			<point x="188" y="969" type="curve" smooth="yes"/>
			<point x="188" y="945"/>
			<point x="169" y="925"/>
			<point x="133" y="906" type="curve"/>
		</contour>
	</outline>
	<anchor name="_top.UC" x="0" y="750"/>
</glyph>
<glyph name="circumflexhookabovecomb" format="2">
	<outline>
		<contour>
			<point x="-159" y="587" type="line"/>
			<point x="-72" y="587" type="line"/>
			<point x="23" y="687" type="line"/>
			<point x="-22" y="687" type="line"/>
			<point x="73" y="587" type="line"/>
			<point x="163" y="587" type="line"/>
			<point x="49" y="730" type="line"/>
			<point x="-45" y="730" type="line"/>
		</contour>
		<contour>
			<point x="153" y="652" type="line"/>
			<point x="220" y="678"/>
			<point x="256" y="719"/>
			<point x="256" y="766" type="curve" smooth="yes"/>
			<point x="256" y="815"/>
			<point x="213" y="854"/>
			<point x="155" y="854" type="curve" smooth="yes"/>
			<point x="122" y="854"/>
			<point x="91" y="841"/>
			<point x="65" y="816" type="curve"/>
			<point x="99" y="769" type="line"/>
			<point x="117" y="784"/>
			<point x="134" y="792"/>
			<point x="150" y="792" type="curve" smooth="yes"/>
			<point x="170" y="792"/>
			<point x="184" y="780"/>
			<point x="184" y="760" type="curve" smooth="yes"/>
			<point x="184" y="737"/>
			<point x="165" y="718"/>
			<point x="129" y="700" type="curve"/>
		</contour>
	</outline>
	<anchor name="_top.LC" x="0" y="544"/>
</glyph>
<glyph name="circumflextildecomb.cap" format="2">
	<outline>
		<contour>
			<point x="-163" y="799" type="line"/>
			<point x="-68" y="799" type="line"/>
			<point x="29" y="897" type="line"/>
			<point x="-28" y="897" type="line"/>
			<point x="69" y="799" type="line"/>
			<point x="165" y="799" type="line"/>
			<point x="50" y="934" type="line"/>
			<point x="-48" y="934" type="line"/>
		</contour>
		<contour>
			<point x="-101" y="957" type="line"/>
			<point x="-96" y="992"/>
			<point x="-82" y="1014"/>
			<point x="-65" y="1014" type="curve" smooth="yes"/>
			<point x="-56" y="1014"/>
			<point x="-42" y="1007"/>
			<point x="-17" y="990" type="curve" smooth="yes"/>
			<point x="16" y="967"/>
			<point x="44" y="956"/>
			<point x="72" y="956" type="curve" smooth="yes"/>
			<point x="123" y="956"/>
			<point x="161" y="994"/>
			<point x="170" y="1053" type="curve"/>
			<point x="102" y="1082" type="line"/>
			<point x="97" y="1046"/>
			<point x="83" y="1024"/>
			<point x="64" y="1024" type="curve" smooth="yes"/>
			<point x="56" y="1024"/>
			<point x="49" y="1028"/>
			<point x="20" y="1046" type="curve" smooth="yes"/>
			<point x="-24" y="1075"/>
			<point x="-45" y="1083"/>
			<point x="-69" y="1083" type="curve" smooth="yes"/>
			<point x="-121" y="1083"/>
			<point x="-159" y="1046"/>
			<point x="-168" y="986" type="curve"/>
		</contour>
	</outline>
	<anchor name="_top.UC" x="0" y="750"/>
</glyph>
<glyph name="circumflextildecomb" format="2">
	<outline>
		<contour>
			<point x="-159" y="587" type="line"/>
			<point x="-72" y="587" type="line"/>
			<point x="23" y="687" type="line"/>
			<point x="-22" y="687" type="line"/>
			<point x="73" y="587" type="line"/>
			<point x="163" y="587" type="line"/>
			<point x="49" y="730" type="line"/>
			<point x="-45" y="730" type="line"/>
		</contour>
		<contour>
			<point x="-88" y="760" type="line"/>
			<point x="-82" y="797"/>
			<point x="-71" y="816"/>
			<point x="-55" y="816" type="curve" smooth="yes"/>
			<point x="-46" y="816"/>
			<point x="-34" y="810"/>
			<point x="-14" y="795" type="curve" smooth="yes"/>
			<point x="20" y="769"/>
			<point x="39" y="761"/>
			<point x="62" y="761" type="curve" smooth="yes"/>
			<point x="110" y="761"/>
			<point x="143" y="795"/>
			<point x="154" y="856" type="curve"/>
			<point x="92" y="883" type="line"/>
			<point x="87" y="847"/>
			<point x="75" y="827"/>
			<point x="59" y="827" type="curve" smooth="yes"/>
			<point x="51" y="827"/>
			<point x="43" y="831"/>
			<point x="26" y="845" type="curve" smooth="yes"/>
			<point x="-9" y="872"/>
			<point x="-30" y="882"/>
			<point x="-57" y="882" type="curve" smooth="yes"/>
			<point x="-105" y="882"/>
			<point x="-139" y="848"/>
			<point x="-149" y="788" type="curve"/>
		</contour>
	</outline>
	<anchor name="_top.LC" x="0" y="544"/>
</glyph>
<glyph name="commaaboverightcomb.short" format="2">
	<outline>
		<contour>
			<point x="21" y="553" type="line"/>
			<point x="50" y="588"/>
			<point x="77" y="637"/>
			<point x="77" y="677" type="curve" smooth="yes"/>
			<point x="77" y="714"/>
			<point x="53" y="740"/>
			<point x="19" y="740" type="curve" smooth="yes"/>
			<point x="-12" y="740"/>
			<point x="-36" y="717"/>
			<point x="-36" y="686" type="curve" smooth="yes"/>
			<point x="-36" y="657"/>
			<point x="-9" y="632"/>
			<point x="24" y="632" type="curve"/>
			<point x="5" y="655" type="line"/>
			<point x="5" y="629"/>
			<point x="-13" y="588"/>
			<point x="-37" y="553" type="curve"/>
		</contour>
	</outline>
	<anchor name="_top_right.LC.short" x="0" y="540"/>
</glyph>
<glyph name="commabelowcomb.cap" format="2">
	<outline>
		<contour>
			<point x="-2" y="-280" type="line"/>
			<point x="28" y="-243"/>
			<point x="54" y="-188"/>
			<point x="54" y="-146" type="curve" smooth="yes"/>
			<point x="54" y="-111"/>
			<point x="31" y="-85"/>
			<point x="-4" y="-85" type="curve" smooth="yes"/>
			<point x="-35" y="-85"/>
			<point x="-58" y="-108"/>
			<point x="-58" y="-137" type="curve" smooth="yes"/>
			<point x="-58" y="-167"/>
			<point x="-33" y="-190"/>
			<point x="-1" y="-190" type="curve"/>
			<point x="-19" y="-170" type="line"/>
			<point x="-17" y="-198"/>
			<point x="-36" y="-243"/>
			<point x="-62" y="-280" type="curve"/>
		</contour>
	</outline>
	<anchor name="_bottom.UC" x="0" y="-50"/>
</glyph>
<glyph name="dieresiscomb.narrow" format="2">
	<outline>
		<contour>
			<point x="80" y="613" type="curve" smooth="yes"/>
			<point x="114" y="613"/>
			<point x="141" y="639"/>
			<point x="141" y="673" type="curve" smooth="yes"/>
			<point x="141" y="707"/>
			<point x="114" y="734"/>
			<point x="80" y="734" type="curve" smooth="yes"/>
			<point x="46" y="734"/>
			<point x="20" y="707"/>
			<point x="20" y="673" type="curve" smooth="yes"/>
			<point x="20" y="639"/>
			<point x="46" y="613"/>
		</contour>
		<contour>
			<point x="-81" y="613" type="curve" smooth="yes"/>
			<point x="-47" y="613"/>
			<point x="-20" y="639"/>
			<point x="-20" y="673" type="curve" smooth="yes"/>
			<point x="-20" y="707"/>
			<point x="-47" y="734"/>
			<point x="-81" y="734" type="curve" smooth="yes"/>
			<point x="-115" y="734"/>
			<point x="-141" y="707"/>
			<point x="-141" y="673" type="curve" smooth="yes"/>
			<point x="-141" y="639"/>
			<point x="-115" y="613"/>
		</contour>
	</outline>
	<anchor name="_top.LC" x="0" y="544"/>
</glyph>
<glyph name="dotaccentcomb.cap" format="2">
	<outline>
		<contour>
			<point x="0" y="800" type="curve" smooth="yes"/>
			<point x="37" y="800"/>
			<point x="66" y="828"/>
			<point x="66" y="865" type="curve" smooth="yes"/>
			<point x="66" y="903"/>
			<point x="37" y="931"/>
			<point x="0" y="931" type="curve" smooth="yes"/>
			<point x="-37" y="931"/>
			<point x="-65" y="903"/>
			<point x="-65" y="865" type="curve" smooth="yes"/>
			<point x="-65" y="828"/>
			<point x="-37" y="800"/>
		</contour>
	</outline>
	<anchor name="_top.UC" x="0" y="750"/>
</glyph>
<glyph name="dotbelowcomb.cap" format="2">
	<outline>
		<contour>
			<point x="0" y="-231" type="curve" smooth="yes"/>
			<point x="37" y="-231"/>
			<point x="66" y="-203"/>
			<point x="66" y="-166" type="curve" smooth="yes"/>
			<point x="66" y="-128"/>
			<point x="37" y="-100"/>
			<point x="0" y="-100" type="curve" smooth="yes"/>
			<point x="-37" y="-100"/>
			<point x="-65" y="-128"/>
			<point x="-65" y="-166" type="curve" smooth="yes"/>
			<point x="-65" y="-203"/>
			<point x="-37" y="-231"/>
		</contour>
	</outline>
	<anchor name="_bottom.UC" x="0" y="-50"/>
</glyph>
<glyph name="eight.dnom" format="2">
	<advance width="397"/>
	<outline>
		<contour>
			<point x="199" y="-9" type="curve" smooth="yes"/>
			<point x="291" y="-9"/>
			<point x="356" y="41"/>
			<point x="356" y="112" type="curve" smooth="yes"/>
			<point x="356" y="182"/>
			<point x="291" y="230"/>
			<point x="199" y="230" type="curve" smooth="yes"/>
			<point x="106" y="230"/>
			<point x="42" y="182"/>
			<point x="42" y="112" type="curve" smooth="yes"/>
			<point x="42" y="42"/>
			<point x="106" y="-9"/>
		</contour>
		<contour>
			<point x="199" y="201" type="curve" smooth="yes"/>
			<point x="281" y="201"/>
			<point x="340" y="245"/>
			<point x="340" y="307" type="curve" smooth="yes"/>
			<point x="340" y="369"/>
			<point x="280" y="417"/>
			<point x="199" y="417" type="curve" smooth="yes"/>
			<point x="117" y="417"/>
			<point x="57" y="369"/>
			<point x="57" y="307" type="curve" smooth="yes"/>
			<point x="57" y="245"/>
			<point x="116" y="201"/>
		</contour>
		<contour>
			<point x="199" y="57" type="curve" smooth="yes"/>
			<point x="155" y="57"/>
			<point x="124" y="82"/>
			<point x="124" y="117" type="curve" smooth="yes"/>
			<point x="124" y="153"/>
			<point x="154" y="180"/>
			<point x="199" y="180" type="curve" smooth="yes"/>
			<point x="244" y="180"/>
			<point x="274" y="153"/>
			<point x="274" y="118" type="curve" smooth="yes"/>
			<point x="274" y="82"/>
			<point x="243" y="57"/>
		</contour>
		<contour>
			<point x="199" y="242" type="curve" smooth="yes"/>
			<point x="164" y="242"/>
			<point x="138" y="266"/>
			<point x="138" y="298" type="curve" smooth="yes"/>
			<point x="138" y="329"/>
			<point x="161" y="351"/>
			<point x="199" y="351" type="curve" smooth="yes"/>
			<point x="235" y="351"/>
			<point x="259" y="329"/>
			<point x="259" y="299" type="curve" smooth="yes"/>
			<point x="259" y="266"/>
			<point x="233" y="242"/>
		</contour>
	</outline>
</glyph>
<glyph name="el.loclBGR" format="2">
	<advance width="574"/>
	<outline>
		<contour>
			<point x="29" y="0" type="line"/>
			<point x="130" y="0" type="line"/>
			<point x="294" y="409" type="line"/>
			<point x="275" y="409" type="line"/>
			<point x="439" y="0" type="line"/>
			<point x="545" y="0" type="line"/>
			<point x="336" y="497" type="line"/>
			<point x="238" y="497" type="line"/>
		</contour>
	</outline>
</glyph>
<glyph name="exclamdown.case" format="2">
	<advance width="254"/>
	<outline>
		<contour>
			<point x="98" y="490" type="line"/>
			<point x="93" y="424"/>
			<point x="70" y="59"/>
			<point x="70" y="38" type="curve" smooth="yes"/>
			<point x="70" y="-4"/>
			<point x="95" y="-28"/>
			<point x="128" y="-28" type="curve"/>
			<point x="160" y="-28"/>
			<point x="187" y="-4"/>
			<point x="187" y="38" type="curve" smooth="yes"/>
			<point x="187" y="59"/>
			<point x="164" y="424"/>
			<point x="158" y="490" type="curve"/>
		</contour>
		<contour>
			<point x="128" y="715" type="curve" smooth="yes"/>
			<point x="89" y="715"/>
			<point x="59" y="685"/>
			<point x="59" y="646" type="curve" smooth="yes"/>
			<point x="59" y="606"/>
			<point x="89" y="576"/>
			<point x="128" y="576" type="curve" smooth="yes"/>
			<point x="168" y="576"/>
			<point x="197" y="606"/>
			<point x="197" y="646" type="curve" smooth="yes"/>
			<point x="197" y="685"/>
			<point x="168" y="715"/>
		</contour>
	</outline>
</glyph>
<glyph name="five.dnom" format="2">
	<advance width="375"/>
	<outline>
		<contour>
			<point x="33" y="68" type="line"/>
			<point x="71" y="17"/>
			<point x="123" y="-9"/>
			<point x="185" y="-9" type="curve" smooth="yes"/>
			<point x="272" y="-9"/>
			<point x="338" y="52"/>
			<point x="338" y="136" type="curve" smooth="yes"/>
			<point x="338" y="215"/>
			<point x="281" y="272"/>
			<point x="200" y="272" type="curve" smooth="yes"/>
			<point x="143" y="272"/>
			<point x="102" y="235"/>
			<point x="91" y="177" type="curve"/>
			<point x="119" y="176" type="line"/>
			<point x="135" y="195"/>
			<point x="157" y="207"/>
			<point x="188" y="207" type="curve" smooth="yes"/>
			<point x="228" y="207"/>
			<point x="257" y="176"/>
			<point x="257" y="136" type="curve" smooth="yes"/>
			<point x="257" y="92"/>
			<point x="227" y="58"/>
			<point x="184" y="58" type="curve" smooth="yes"/>
			<point x="142" y="58"/>
			<point x="113" y="76"/>
			<point x="82" y="120" type="curve"/>
		</contour>
		<contour>
			<point x="312" y="342" type="line"/>
			<point x="312" y="408" type="line"/>
			<point x="74" y="408" type="line"/>
			<point x="46" y="176" type="line"/>
			<point x="119" y="176" type="line"/>
			<point x="143" y="383" type="line"/>
			<point x="112" y="342" type="line"/>
		</contour>
	</outline>
</glyph>
<glyph name="four.dnom" format="2">
	<advance width="411"/>
	<outline>
		<contour>
			<point x="322" y="0" type="line"/>
			<point x="322" y="89" type="line"/>
			<point x="378" y="89" type="line"/>
			<point x="378" y="154" type="line"/>
			<point x="322" y="154" type="line"/>
			<point x="322" y="408" type="line"/>
			<point x="242" y="408" type="line"/>
			<point x="36" y="154" type="line"/>
			<point x="36" y="89" type="line"/>
			<point x="242" y="89" type="line"/>
			<point x="242" y="0" type="line"/>
		</contour>
		<contour>
			<point x="242" y="315" type="line"/>
			<point x="242" y="154" type="line"/>
			<point x="116" y="154" type="line"/>
		</contour>
	</outline>
</glyph>
<glyph name="ghe.loclBGR" format="2">
	<advance width="509"/>
	<outline>
		<contour>
			<point x="256" y="-16" type="curve" smooth="yes"/>
			<point x="343" y="-16"/>
			<point x="418" y="15"/>
			<point x="477" y="76" type="curve"/>
			<point x="419" y="142" type="line"/>
			<point x="374" y="91"/>
			<point x="314" y="63"/>
			<point x="252" y="63" type="curve" smooth="yes"/>
			<point x="189" y="63"/>
			<point x="144" y="93"/>
			<point x="144" y="136" type="curve" smooth="yes"/>
			<point x="144" y="177"/>
			<point x="170" y="194"/>
			<point x="267" y="216" type="curve" smooth="yes"/>
			<point x="407" y="247"/>
			<point x="457" y="284"/>
			<point x="457" y="360" type="curve" smooth="yes"/>
			<point x="457" y="453"/>
			<point x="380" y="513"/>
			<point x="260" y="513" type="curve" smooth="yes"/>
			<point x="176" y="513"/>
			<point x="106" y="483"/>
			<point x="51" y="422" type="curve"/>
			<point x="107" y="356" type="line"/>
			<point x="150" y="407"/>
			<point x="202" y="434"/>
			<point x="261" y="434" type="curve" smooth="yes"/>
			<point x="319" y="434"/>
			<point x="358" y="406"/>
			<point x="358" y="366" type="curve" smooth="yes"/>
			<point x="358" y="330"/>
			<point x="333" y="314"/>
			<point x="239" y="295" type="curve" smooth="yes"/>
			<point x="97" y="267"/>
			<point x="46" y="228"/>
			<point x="46" y="146" type="curve" smooth="yes"/>
			<point x="46" y="49"/>
			<point x="130" y="-16"/>
		</contour>
	</outline>
</glyph>
<glyph name="gravecomb.cap" format="2">
	<outline>
		<contour>
			<point x="-35" y="796" type="line"/>
			<point x="63" y="796" type="line"/>
			<point x="-66" y="940" type="line"/>
			<point x="-190" y="940" type="line"/>
		</contour>
	</outline>
	<anchor name="_top.UC" x="0" y="750"/>
</glyph>
